<svg xmlns="http://www.w3.org/2000/svg" xmlns:v="https://svgstorm.com"
viewBox = "0 0 705 720"
width="705"
height="720">
<g fill="None" fill-opacity="0.0" stroke="#000000" stroke-opacity="0.00" stroke-width="0.3"><path d="
M 0.00 526.00 
C 4.33 503.20 6.75 478.00 21.75 458.75 C 33.84 440.27 50.80 423.66 54.00 401.00
C 52.46 398.72 52.28 393.21 54.00 391.00
C 51.33 375.06 45.44 359.69 35.00 347.00
C 31.20 343.67 29.87 341.38 26.00 345.00
C 24.24 341.26 26.74 335.38 21.00 335.00
C 20.88 326.65 31.53 330.90 37.00 329.00
C 39.61 327.44 45.46 327.28 48.00 329.00
C 70.00 333.00 74.51 359.21 75.00 378.00
C 76.59 381.60 76.71 388.47 75.00 392.00
C 70.55 437.41 45.20 477.39 21.23 515.23 C 10.13 528.63 18.68 543.50 28.00 555.00
C 32.65 558.85 37.22 563.37 41.00 568.00
C 47.56 574.04 57.04 576.34 62.00 584.00
C 65.59 533.16 74.64 479.72 111.00 441.00
C 115.18 436.01 120.04 431.11 125.00 427.00
C 129.58 423.34 133.74 418.58 138.00 415.00
C 142.52 409.68 147.70 404.45 153.00 400.00
C 168.68 381.73 182.96 362.41 198.00 344.00
C 201.85 339.35 206.37 334.78 211.00 331.00
C 229.42 317.03 247.54 301.80 265.00 286.00
C 270.84 279.34 277.37 272.78 284.00 267.00
C 307.60 245.78 309.03 213.48 324.00 188.00
C 325.82 186.12 330.66 178.36 332.00 183.00
C 306.66 216.53 310.62 264.29 277.00 294.00
C 272.48 299.32 267.30 304.55 262.00 309.00
C 245.88 323.13 229.51 336.58 213.00 350.00
C 208.48 355.32 203.30 360.55 198.00 365.00
C 181.77 384.59 167.05 404.97 150.00 424.00
C 145.82 428.99 140.96 433.89 136.00 438.00
C 131.86 441.53 127.87 446.26 123.00 449.00
C 120.46 452.30 117.31 455.56 114.00 458.00
C 83.21 491.21 68.32 534.17 67.00 579.00
C 67.00 583.33 67.00 587.67 67.00 592.00
C 67.00 592.50 67.00 593.00 67.00 593.00
C 70.68 594.74 68.33 599.79 69.00 603.00
C 71.68 615.13 79.62 625.17 87.00 635.00
C 91.65 638.85 96.22 643.37 100.00 648.00
C 104.84 654.33 116.35 656.65 115.00 666.00
C 102.54 663.34 91.17 656.44 82.25 646.75 C 70.84 639.26 71.59 621.94 60.97 616.03 C 48.54 612.64 38.58 603.68 29.00 595.00
C 21.34 588.16 13.78 580.63 7.00 573.00
C 3.25 568.23 3.37 561.29 0.00 557.00
L 0.00 720.00
L 356.00 720.00
C 333.47 700.69 333.91 666.85 328.67 639.33 C 317.15 579.70 345.23 524.29 378.77 477.77 C 392.23 455.44 405.85 433.12 423.00 413.00
C 426.19 409.02 430.03 405.11 434.00 402.00
C 446.19 391.45 460.17 382.72 476.00 380.00
C 470.46 368.27 464.24 356.44 458.08 344.92 C 450.05 335.24 450.14 315.70 435.99 314.01 C 423.57 309.49 408.30 305.63 399.00 297.00
C 413.64 301.02 426.41 311.00 442.00 312.00
C 433.67 290.98 421.02 271.44 417.00 249.00
C 415.43 246.06 415.29 239.87 417.00 237.00
C 417.80 233.72 420.06 231.11 421.00 228.00
C 440.17 232.16 457.09 251.92 478.22 244.22 C 495.81 234.62 513.22 224.02 534.00 223.00
C 537.27 221.42 543.80 221.29 547.00 223.00
C 561.21 228.25 577.93 231.29 587.25 215.25 C 599.27 205.98 614.07 202.11 628.00 197.00
C 633.36 216.64 638.72 236.46 641.00 257.00
C 641.00 260.33 641.00 263.67 641.00 267.00
C 639.96 275.53 638.32 284.92 634.00 291.00
C 633.93 283.95 639.12 275.27 639.00 267.00
C 637.44 264.39 637.28 258.54 639.00 256.00
C 637.56 246.52 635.47 237.21 633.02 227.98 C 630.05 221.59 631.41 203.21 620.31 210.31 C 605.19 216.95 588.23 222.57 578.25 237.25 C 560.10 244.00 539.29 227.07 519.78 236.78 C 501.43 238.68 488.16 254.42 470.00 256.00 C 450.83 256.77 436.09 242.96 419.00 237.00
C 423.77 274.49 450.98 304.23 465.77 338.23 C 472.03 356.08 492.23 370.04 486.00 391.00
C 482.33 390.69 481.35 386.23 479.00 384.00
C 475.46 392.44 462.55 393.09 455.75 399.75 C 447.59 404.19 440.47 410.41 433.00 416.00
C 430.13 419.64 426.64 423.23 423.00 426.00
C 401.78 451.21 386.40 479.83 369.70 507.70 C 350.95 537.01 332.60 568.26 331.00 604.00
C 331.00 608.33 331.00 612.67 331.00 617.00
C 333.59 639.87 335.27 663.34 344.77 684.23 C 354.45 705.82 380.83 707.02 400.01 701.01 C 423.15 695.39 446.76 691.42 471.00 690.00
C 478.26 688.36 488.81 688.32 496.00 690.00
C 527.64 690.77 557.56 698.37 589.00 700.00
C 593.92 698.38 602.15 698.31 607.00 700.00
C 630.67 698.92 653.79 691.46 672.00 676.00
C 674.54 672.70 677.69 669.44 681.00 667.00
C 703.89 645.18 708.99 601.18 674.31 587.70 C 667.77 583.24 660.09 581.23 652.92 578.08 C 642.82 580.39 634.92 564.89 649.00 566.00
C 651.28 564.46 656.79 564.28 659.00 566.00
C 682.16 566.84 702.54 586.49 705.00 609.00
L 705.00 0.00
L 472.00 0.00
C 483.71 4.47 498.56 3.74 510.68 9.32 C 521.77 13.59 531.77 20.31 541.00 28.00
C 545.65 31.85 550.22 36.37 554.00 41.00
C 555.77 43.99 559.23 46.23 559.00 50.00
C 557.80 49.33 556.42 48.36 556.00 47.00
C 551.35 43.15 546.78 38.63 543.00 34.00
C 527.66 21.32 507.71 10.72 488.00 13.00
C 493.52 13.67 513.84 16.95 499.00 20.00 C 472.28 32.11 430.87 29.03 418.00 61.00
C 418.00 65.33 418.00 69.67 418.00 74.00
C 420.46 91.89 424.31 113.18 417.00 130.00
C 421.59 154.37 421.19 184.93 397.77 199.77 C 375.36 216.93 347.32 190.94 348.00 167.00 C 345.26 141.69 328.13 120.76 327.00 95.00
C 325.41 91.73 325.29 85.20 327.00 82.00
C 327.20 45.35 364.34 20.42 397.00 17.00
C 399.28 15.46 404.79 15.28 407.00 17.00
C 414.39 17.92 416.45 7.85 423.70 6.70 C 429.80 2.80 437.62 2.03 444.00 0.00
L 0.00 0.00
L 0.00 526.00
M 597.00 52.00 
C 600.93 50.40 608.14 50.30 612.00 52.00
C 618.88 51.38 625.68 57.97 631.74 55.74 C 637.52 49.74 644.97 56.08 645.00 63.00
C 645.00 66.00 645.00 69.00 645.00 72.00
C 642.82 83.35 628.04 88.61 628.01 101.01 C 625.57 112.97 623.25 125.34 615.00 135.00
C 612.13 138.64 608.64 142.23 605.00 145.00
C 579.34 167.03 547.53 181.91 513.00 181.00 C 502.34 180.12 484.63 181.06 481.00 170.00
C 481.15 166.01 491.10 168.86 495.00 168.00 C 500.50 168.65 507.33 166.68 512.00 169.00
C 546.47 168.94 579.64 155.81 605.00 133.00
C 607.54 129.70 610.69 126.44 614.00 124.00
C 620.34 117.98 622.47 108.85 624.78 100.78 C 624.59 91.32 632.25 82.98 628.00 74.00
C 626.48 72.04 626.28 66.89 628.00 65.00
C 627.82 58.60 618.66 59.95 614.00 59.00
C 609.67 59.00 605.33 59.00 601.00 59.00
C 590.78 59.43 581.12 62.08 571.00 63.00
C 568.00 63.00 565.00 63.00 562.00 63.00
C 548.87 61.48 533.76 56.46 527.00 44.00
C 547.88 56.36 573.42 57.02 597.00 52.00
M 506.00 57.00 
C 503.24 59.16 498.51 57.45 495.00 58.00
C 489.74 56.87 485.86 60.62 481.00 61.00
C 486.75 55.54 500.16 52.67 506.00 57.00
M 520.00 63.00 
C 526.22 81.44 486.18 94.14 484.00 73.00
C 497.02 73.38 509.41 70.25 520.00 63.00
M 568.00 107.00 
C 567.31 110.05 563.83 111.56 562.00 114.00
C 561.46 110.39 565.27 108.21 568.00 107.00
M 589.00 110.00 
C 588.25 113.19 578.76 119.45 578.00 114.00
C 581.97 113.61 585.14 110.78 589.00 110.00
M 632.00 249.00 
C 633.61 253.26 633.70 260.81 632.00 265.00
C 630.54 273.31 628.76 284.58 621.00 289.00
C 616.26 277.11 620.30 263.81 626.31 253.31 C 628.96 241.23 615.70 234.10 611.00 225.00
C 622.54 225.70 631.92 237.81 632.00 249.00
M 438.00 269.00 
C 445.21 285.59 457.83 299.38 469.92 313.08 C 475.44 318.61 485.51 335.00 473.00 337.00 C 450.03 318.78 443.42 286.98 432.00 263.00
C 441.00 264.92 450.14 266.39 459.67 266.33 C 470.11 262.82 476.34 281.07 462.93 276.07 C 454.81 273.06 446.36 271.26 438.00 269.00
M 423.00 322.00 
C 431.02 322.81 440.29 321.93 447.00 326.00
C 433.49 325.55 418.52 323.25 404.00 324.00
C 398.74 325.63 390.19 325.69 385.00 324.00
C 384.48 321.08 388.33 322.27 390.00 322.00
C 392.43 319.87 396.82 321.53 400.00 321.00
C 407.50 321.66 416.33 319.67 423.00 322.00
M 441.00 336.00 
C 439.01 341.90 429.66 338.27 424.93 340.93 C 418.43 340.52 412.03 343.55 406.00 342.00
C 416.60 337.59 429.76 339.43 441.00 336.00
M 584.00 390.00 
C 537.13 404.62 487.62 417.93 449.25 451.25 C 431.16 467.40 419.05 487.21 407.23 507.23 C 392.74 525.88 376.61 543.52 367.23 565.23 C 353.77 588.83 340.74 612.64 346.00 642.00 C 344.18 673.89 395.38 664.30 389.00 697.00
C 389.32 704.40 377.94 702.37 374.00 701.00
C 349.14 697.22 338.53 669.68 340.00 647.00
C 337.70 640.24 339.64 631.51 339.00 624.00
C 333.51 583.71 356.46 551.96 374.25 519.25 C 393.49 491.86 412.23 464.13 432.00 437.00
C 436.85 431.34 442.37 425.78 448.00 421.00
C 484.70 389.95 532.72 381.23 581.00 384.00
C 585.93 381.33 589.96 389.50 584.00 390.00
M 239.00 443.00 
C 291.56 453.91 303.67 525.73 284.69 568.69 C 280.28 592.73 267.34 612.97 256.00 634.00
C 257.00 634.11 258.73 633.53 259.00 635.00
C 274.54 638.71 290.41 649.09 296.32 664.68 C 307.16 681.09 295.55 706.44 274.00 702.00
C 269.41 703.62 261.52 703.70 257.00 702.00
C 238.88 702.16 221.77 698.30 204.00 697.00
C 200.67 697.00 197.33 697.00 194.00 697.00
C 177.57 697.60 162.23 702.52 146.00 704.00
C 150.80 695.52 165.54 695.46 174.22 690.22 C 198.63 679.73 224.34 690.42 250.00 690.00
C 256.67 690.00 263.33 690.00 270.00 690.00
C 279.17 690.44 300.10 686.86 293.08 673.92 C 280.14 654.30 256.98 647.53 235.33 644.67 C 226.09 636.79 206.74 655.15 209.00 636.00 C 222.57 620.83 240.99 608.96 249.92 589.92 C 260.62 571.94 279.12 554.97 277.22 532.78 C 276.71 521.20 270.56 511.14 264.00 502.00
C 260.20 499.62 257.76 495.32 254.00 493.00
C 244.33 484.64 232.68 479.15 220.00 478.00
C 216.67 478.00 213.33 478.00 210.00 478.00
C 189.03 479.17 171.44 491.95 153.00 500.00
C 156.67 489.78 170.17 483.67 178.00 476.00
C 179.33 471.84 170.93 477.01 168.32 477.32 C 164.19 479.12 160.40 481.92 156.00 483.00
C 167.33 458.68 196.61 445.87 222.00 443.00
C 226.59 441.38 234.48 441.30 239.00 443.00
M 582.00 542.00 
C 582.00 550.67 582.00 559.33 582.00 568.00
C 582.94 583.60 585.63 598.74 588.00 614.00
C 589.56 616.61 589.72 622.46 588.00 625.00
C 588.38 628.73 587.18 632.14 585.00 635.00
C 576.23 622.81 577.40 605.92 576.00 591.00
C 573.84 588.24 575.55 583.51 575.00 580.00
C 575.00 576.00 575.00 572.00 575.00 568.00
C 575.66 559.50 573.67 549.67 576.00 542.00
C 575.72 519.55 578.84 497.12 592.00 479.00
C 595.19 475.02 599.03 471.11 603.00 468.00
C 605.74 466.91 606.83 462.97 610.00 463.00
C 607.08 475.61 596.96 485.89 592.23 498.23 C 586.02 511.99 583.07 526.78 582.00 542.00
M 601.00 697.00 
C 594.08 698.64 583.85 698.68 577.00 697.00
C 555.09 697.42 535.95 688.15 516.92 679.08 C 508.46 673.92 490.70 680.73 488.00 669.00
C 507.55 671.49 526.51 663.14 547.00 666.00 C 584.59 667.77 625.43 670.25 657.00 649.00
C 659.54 645.70 662.69 642.44 666.00 640.00
C 674.27 631.24 660.37 621.90 652.97 619.03 C 642.36 614.79 629.86 615.10 619.92 620.92 C 606.60 626.03 630.58 644.47 613.00 645.00 C 599.50 629.95 604.38 597.95 624.23 588.23 C 659.51 572.79 688.16 617.96 676.22 649.22 C 669.79 683.33 631.54 695.98 601.00 697.00 Z"/>
</g>
<g fill="None" fill-opacity="0.0" stroke="#000000" stroke-opacity="0.96" stroke-width="0.3"><path d="
M 407.00 17.00 
C 403.67 17.00 400.33 17.00 397.00 17.00
C 364.34 20.42 327.20 45.35 327.00 82.00
C 327.00 86.33 327.00 90.67 327.00 95.00
C 328.13 120.76 345.26 141.69 348.00 167.00 C 347.32 190.94 375.36 216.93 397.77 199.77 C 421.19 184.93 421.59 154.37 417.00 130.00
C 415.40 129.47 416.28 127.25 416.00 126.00
C 415.84 117.13 413.16 108.89 413.00 100.00
C 409.75 115.01 416.56 130.48 416.00 146.00
C 417.54 148.28 417.72 153.79 416.00 156.00
C 416.18 169.38 403.69 180.18 391.00 181.00
C 388.00 181.00 385.00 181.00 382.00 181.00
C 380.44 181.41 379.31 180.54 378.00 180.00
C 360.51 177.30 350.48 159.33 350.00 143.00
C 348.24 113.92 314.39 83.08 342.00 56.00
C 344.54 52.70 347.69 49.44 351.00 47.00
C 367.75 33.50 388.20 26.53 409.00 23.00
C 413.97 35.11 427.57 16.52 435.00 19.00
C 441.10 13.30 453.46 12.76 463.00 11.00
C 467.59 9.38 475.48 9.30 480.00 11.00
C 483.26 9.97 485.25 12.44 488.00 13.00
C 507.71 10.72 527.66 21.32 543.00 34.00
C 547.65 37.85 552.22 42.37 556.00 47.00
C 556.42 48.36 557.80 49.33 559.00 50.00
C 559.23 46.23 555.77 43.99 554.00 41.00
C 549.35 37.15 544.78 32.63 541.00 28.00
C 531.77 20.31 521.77 13.59 510.68 9.32 C 498.56 3.74 483.71 4.47 472.00 0.00
L 444.00 0.00
C 437.62 2.03 429.80 2.80 423.70 6.70 C 416.45 7.85 414.39 17.92 407.00 17.00 Z"/>
</g>
<g fill="None" fill-opacity="0.0" stroke="#000000" stroke-opacity="0.77" stroke-width="0.3"><path d="
M 463.00 11.00 
C 468.67 11.00 474.33 11.00 480.00 11.00
C 475.48 9.30 467.59 9.38 463.00 11.00 Z"/>
</g>
<g fill="None" fill-opacity="0.0" stroke="#000000" stroke-opacity="0.40" stroke-width="0.3"><path d="
M 435.00 19.00 
C 422.11 25.29 412.54 39.48 413.00 54.00
C 413.00 59.00 413.00 64.00 413.00 69.00
C 413.78 82.13 417.14 94.62 417.00 108.00
C 418.61 112.26 418.70 119.81 417.00 124.00
C 417.18 124.74 416.95 125.91 416.00 126.00
C 416.28 127.25 415.40 129.47 417.00 130.00
C 424.31 113.18 420.46 91.89 418.00 74.00
C 416.42 70.73 416.29 64.20 418.00 61.00
C 430.87 29.03 472.28 32.11 499.00 20.00 C 513.84 16.95 493.52 13.67 488.00 13.00
C 485.25 12.44 483.26 9.97 480.00 11.00
C 474.33 11.00 468.67 11.00 463.00 11.00
C 453.46 12.76 441.10 13.30 435.00 19.00 Z"/>
</g>
<g fill="None" fill-opacity="0.0" stroke="#000000" stroke-opacity="0.22" stroke-width="0.3"><path d="
M 397.00 17.00 
C 400.33 17.00 403.67 17.00 407.00 17.00
C 404.79 15.28 399.28 15.46 397.00 17.00 Z"/>
</g>
<g fill="None" fill-opacity="0.0" stroke="#000000" stroke-opacity="0.01" stroke-width="0.3"><path d="
M 351.00 47.00 
C 348.46 50.30 345.31 53.56 342.00 56.00
C 314.39 83.08 348.24 113.92 350.00 143.00
C 363.03 169.68 406.01 153.87 404.00 126.00
C 404.00 121.00 404.00 116.00 404.00 111.00
C 405.98 102.24 397.44 94.41 399.00 87.00
C 407.63 99.27 405.67 115.22 406.00 130.00
C 405.41 132.84 407.22 136.98 405.00 139.00
C 405.03 156.34 394.81 174.49 378.00 180.00
C 379.31 180.54 380.44 181.41 382.00 181.00
C 383.96 179.48 389.11 179.28 391.00 181.00
C 403.69 180.18 416.18 169.38 416.00 156.00
C 416.00 152.67 416.00 149.33 416.00 146.00
C 416.56 130.48 409.75 115.01 413.00 100.00
C 413.16 108.89 415.84 117.13 416.00 126.00
C 416.95 125.91 417.18 124.74 417.00 124.00
C 417.00 118.67 417.00 113.33 417.00 108.00
C 417.14 94.62 413.78 82.13 413.00 69.00
C 411.40 65.07 411.30 57.86 413.00 54.00
C 412.54 39.48 422.11 25.29 435.00 19.00
C 427.57 16.52 413.97 35.11 409.00 23.00
C 388.20 26.53 367.75 33.50 351.00 47.00 Z"/>
</g>
<g fill="None" fill-opacity="0.0" stroke="#000000" stroke-opacity="0.57" stroke-width="0.3"><path d="
M 554.00 41.00 
C 550.22 36.37 545.65 31.85 541.00 28.00
C 544.78 32.63 549.35 37.15 554.00 41.00 Z"/>
</g>
<g fill="None" fill-opacity="0.0" stroke="#000000" stroke-opacity="0.22" stroke-width="0.3"><path d="
M 556.00 47.00 
C 552.22 42.37 547.65 37.85 543.00 34.00
C 546.78 38.63 551.35 43.15 556.00 47.00 Z"/>
</g>
<g fill="None" fill-opacity="0.0" stroke="#000000" stroke-opacity="0.96" stroke-width="0.3"><path d="
M 562.00 63.00 
C 563.96 61.48 569.11 61.28 571.00 63.00
C 581.12 62.08 590.78 59.43 601.00 59.00
C 604.27 57.42 610.80 57.29 614.00 59.00
C 618.66 59.95 627.82 58.60 628.00 65.00
C 628.00 68.00 628.00 71.00 628.00 74.00
C 632.25 82.98 624.59 91.32 624.78 100.78 C 622.47 108.85 620.34 117.98 614.00 124.00
C 611.46 127.30 608.31 130.56 605.00 133.00
C 579.64 155.81 546.47 168.94 512.00 169.00
C 501.83 169.67 490.34 167.67 481.00 170.00
C 484.63 181.06 502.34 180.12 513.00 181.00 C 547.53 181.91 579.34 167.03 605.00 145.00
C 607.87 141.36 611.36 137.77 615.00 135.00
C 623.25 125.34 625.57 112.97 628.01 101.01 C 628.04 88.61 642.82 83.35 645.00 72.00
C 643.48 70.04 643.28 64.89 645.00 63.00
C 644.97 56.08 637.52 49.74 631.74 55.74 C 625.68 57.97 618.88 51.38 612.00 52.00
C 607.00 52.00 602.00 52.00 597.00 52.00
C 573.42 57.02 547.88 56.36 527.00 44.00
C 533.76 56.46 548.87 61.48 562.00 63.00 Z"/>
</g>
<g fill="None" fill-opacity="0.0" stroke="#000000" stroke-opacity="0.21" stroke-width="0.3"><path d="
M 342.00 56.00 
C 345.31 53.56 348.46 50.30 351.00 47.00
C 347.69 49.44 344.54 52.70 342.00 56.00 Z"/>
</g>
<g fill="None" fill-opacity="0.0" stroke="#000000" stroke-opacity="0.57" stroke-width="0.3"><path d="
M 597.00 52.00 
C 602.00 52.00 607.00 52.00 612.00 52.00
C 608.14 50.30 600.93 50.40 597.00 52.00 Z"/>
</g>
<g fill="None" fill-opacity="0.0" stroke="#000000" stroke-opacity="0.15" stroke-width="0.3"><path d="
M 413.00 69.00 
C 413.00 64.00 413.00 59.00 413.00 54.00
C 411.30 57.86 411.40 65.07 413.00 69.00 Z"/>
</g>
<g fill="None" fill-opacity="0.0" stroke="#000000" stroke-opacity="0.86" stroke-width="0.3"><path d="
M 495.00 58.00 
C 497.76 55.84 502.49 57.55 506.00 57.00
C 500.16 52.67 486.75 55.54 481.00 61.00
C 485.86 60.62 489.74 56.87 495.00 58.00 Z"/>
</g>
<g fill="None" fill-opacity="0.0" stroke="#000000" stroke-opacity="0.19" stroke-width="0.3"><path d="
M 495.00 58.00 
C 498.51 57.45 503.24 59.16 506.00 57.00
C 502.49 57.55 497.76 55.84 495.00 58.00 Z"/>
</g>
<g fill="None" fill-opacity="0.0" stroke="#000000" stroke-opacity="0.24" stroke-width="0.3"><path d="
M 601.00 59.00 
C 605.33 59.00 609.67 59.00 614.00 59.00
C 610.80 57.29 604.27 57.42 601.00 59.00 Z"/>
</g>
<g fill="None" fill-opacity="0.0" stroke="#000000" stroke-opacity="0.20" stroke-width="0.3"><path d="
M 418.00 74.00 
C 418.00 69.67 418.00 65.33 418.00 61.00
C 416.29 64.20 416.42 70.73 418.00 74.00 Z"/>
</g>
<g fill="None" fill-opacity="0.0" stroke="#000000" stroke-opacity="0.58" stroke-width="0.3"><path d="
M 562.00 63.00 
C 565.00 63.00 568.00 63.00 571.00 63.00
C 569.11 61.28 563.96 61.48 562.00 63.00 Z"/>
</g>
<g fill="None" fill-opacity="0.0" stroke="#000000" stroke-opacity="0.94" stroke-width="0.3"><path d="
M 520.00 63.00 
C 509.41 70.25 497.02 73.38 484.00 73.00
C 486.18 94.14 526.22 81.44 520.00 63.00 Z"/>
</g>
<g fill="None" fill-opacity="0.0" stroke="#000000" stroke-opacity="0.77" stroke-width="0.3"><path d="
M 645.00 72.00 
C 645.00 69.00 645.00 66.00 645.00 63.00
C 643.28 64.89 643.48 70.04 645.00 72.00 Z"/>
</g>
<g fill="None" fill-opacity="0.0" stroke="#000000" stroke-opacity="0.23" stroke-width="0.3"><path d="
M 628.00 74.00 
C 628.00 71.00 628.00 68.00 628.00 65.00
C 626.28 66.89 626.48 72.04 628.00 74.00 Z"/>
</g>
<g fill="None" fill-opacity="0.0" stroke="#000000" stroke-opacity="0.75" stroke-width="0.3"><path d="
M 327.00 95.00 
C 327.00 90.67 327.00 86.33 327.00 82.00
C 325.29 85.20 325.41 91.73 327.00 95.00 Z"/>
</g>
<g fill="None" fill-opacity="0.0" stroke="#000000" stroke-opacity="0.40" stroke-width="0.3"><path d="
M 404.00 111.00 
C 405.60 114.93 405.70 122.14 404.00 126.00
C 406.01 153.87 363.03 169.68 350.00 143.00
C 350.48 159.33 360.51 177.30 378.00 180.00
C 394.81 174.49 405.03 156.34 405.00 139.00
C 405.59 136.16 403.78 132.02 406.00 130.00
C 405.67 115.22 407.63 99.27 399.00 87.00
C 397.44 94.41 405.98 102.24 404.00 111.00 Z"/>
</g>
<g fill="None" fill-opacity="0.0" stroke="#000000" stroke-opacity="0.73" stroke-width="0.3"><path d="
M 568.00 107.00 
C 565.27 108.21 561.46 110.39 562.00 114.00
C 563.83 111.56 567.31 110.05 568.00 107.00 Z"/>
</g>
<g fill="None" fill-opacity="0.0" stroke="#000000" stroke-opacity="0.25" stroke-width="0.3"><path d="
M 417.00 124.00 
C 418.70 119.81 418.61 112.26 417.00 108.00
C 417.00 113.33 417.00 118.67 417.00 124.00 Z"/>
</g>
<g fill="None" fill-opacity="0.0" stroke="#000000" stroke-opacity="0.85" stroke-width="0.3"><path d="
M 589.00 110.00 
C 585.14 110.78 581.97 113.61 578.00 114.00
C 578.76 119.45 588.25 113.19 589.00 110.00 Z"/>
</g>
<g fill="None" fill-opacity="0.0" stroke="#000000" stroke-opacity="0.14" stroke-width="0.3"><path d="
M 404.00 126.00 
C 405.70 122.14 405.60 114.93 404.00 111.00
C 404.00 116.00 404.00 121.00 404.00 126.00 Z"/>
</g>
<g fill="None" fill-opacity="0.0" stroke="#000000" stroke-opacity="0.27" stroke-width="0.3"><path d="
M 605.00 133.00 
C 608.31 130.56 611.46 127.30 614.00 124.00
C 610.69 126.44 607.54 129.70 605.00 133.00 Z"/>
</g>
<g fill="None" fill-opacity="0.0" stroke="#000000" stroke-opacity="0.17" stroke-width="0.3"><path d="
M 405.00 139.00 
C 407.22 136.98 405.41 132.84 406.00 130.00
C 403.78 132.02 405.59 136.16 405.00 139.00 Z"/>
</g>
<g fill="None" fill-opacity="0.0" stroke="#000000" stroke-opacity="0.33" stroke-width="0.3"><path d="
M 605.00 145.00 
C 608.64 142.23 612.13 138.64 615.00 135.00
C 611.36 137.77 607.87 141.36 605.00 145.00 Z"/>
</g>
<g fill="None" fill-opacity="0.0" stroke="#000000" stroke-opacity="0.81" stroke-width="0.3"><path d="
M 416.00 156.00 
C 417.72 153.79 417.54 148.28 416.00 146.00
C 416.00 149.33 416.00 152.67 416.00 156.00 Z"/>
</g>
<g fill="None" fill-opacity="0.0" stroke="#000000" stroke-opacity="0.19" stroke-width="0.3"><path d="
M 481.00 170.00 
C 490.34 167.67 501.83 169.67 512.00 169.00
C 507.33 166.68 500.50 168.65 495.00 168.00 C 491.10 168.86 481.15 166.01 481.00 170.00 Z"/>
</g>
<g fill="None" fill-opacity="0.0" stroke="#000000" stroke-opacity="0.23" stroke-width="0.3"><path d="
M 382.00 181.00 
C 385.00 181.00 388.00 181.00 391.00 181.00
C 389.11 179.28 383.96 179.48 382.00 181.00 Z"/>
</g>
<g fill="None" fill-opacity="0.0" stroke="#000000" stroke-opacity="0.35" stroke-width="0.3"><path d="
M 324.00 188.00 
C 327.10 187.06 328.66 181.05 332.00 183.00
C 330.66 178.36 325.82 186.12 324.00 188.00 Z"/>
</g>
<g fill="None" fill-opacity="0.0" stroke="#000000" stroke-opacity="0.97" stroke-width="0.3"><path d="
M 324.00 188.00 
C 309.03 213.48 307.60 245.78 284.00 267.00
C 278.16 273.66 271.63 280.22 265.00 286.00
C 247.54 301.80 229.42 317.03 211.00 331.00
C 207.15 335.65 202.63 340.22 198.00 344.00
C 182.96 362.41 168.68 381.73 153.00 400.00
C 148.48 405.32 143.30 410.55 138.00 415.00
C 133.74 418.58 129.58 423.34 125.00 427.00
C 120.82 431.99 115.96 436.89 111.00 441.00
C 74.64 479.72 65.59 533.16 62.00 584.00
C 61.51 592.96 63.07 601.38 64.00 610.00
C 48.68 603.25 35.32 591.48 23.00 580.00
C 12.59 571.74 8.16 558.75 7.00 546.00
C 5.43 543.06 5.29 536.87 7.00 534.00
C 7.00 533.50 6.99 532.50 7.00 532.00
C 8.94 508.73 20.21 487.80 34.92 469.92 C 50.90 451.76 59.00 428.32 61.00 405.00
C 61.00 403.67 61.00 402.33 61.00 401.00
C 59.41 397.40 59.29 390.53 61.00 387.00
C 60.56 373.79 57.70 360.74 50.00 350.00
C 45.68 346.48 41.44 342.30 38.00 338.00
C 32.97 336.68 29.64 330.63 24.00 331.00
C 23.59 338.12 31.63 341.57 35.00 347.00
C 45.44 359.69 51.33 375.06 54.00 391.00
C 54.00 394.33 54.00 397.67 54.00 401.00
C 50.80 423.66 33.84 440.27 21.75 458.75 C 6.75 478.00 4.33 503.20 0.00 526.00
L 0.00 529.00
C 1.52 530.96 1.72 536.11 0.00 538.00
L 0.00 557.00
C 3.37 561.29 3.25 568.23 7.00 573.00
C 14.66 579.84 22.22 587.38 29.00 595.00
C 38.58 603.68 48.54 612.64 60.97 616.03 C 71.59 621.94 70.84 639.26 82.25 646.75 C 91.17 656.44 102.54 663.34 115.00 666.00
C 116.35 656.65 104.84 654.33 100.00 648.00
C 95.35 644.15 90.78 639.63 87.00 635.00
C 79.62 625.17 71.68 615.13 69.00 603.00
C 66.55 600.55 69.37 595.80 67.00 593.00
C 67.00 593.00 67.00 592.50 67.00 592.00
C 65.42 588.73 65.29 582.20 67.00 579.00
C 68.32 534.17 83.21 491.21 114.00 458.00
C 116.54 454.70 119.69 451.44 123.00 449.00
C 127.87 446.26 131.86 441.53 136.00 438.00
C 140.18 433.01 145.04 428.11 150.00 424.00
C 167.05 404.97 181.77 384.59 198.00 365.00
C 202.52 359.68 207.70 354.45 213.00 350.00
C 229.51 336.58 245.88 323.13 262.00 309.00
C 266.52 303.68 271.70 298.45 277.00 294.00
C 310.62 264.29 306.66 216.53 332.00 183.00
C 328.66 181.05 327.10 187.06 324.00 188.00 Z"/>
</g>
<g fill="None" fill-opacity="0.0" stroke="#000000" stroke-opacity="0.96" stroke-width="0.3"><path d="
M 547.00 223.00 
C 542.67 223.00 538.33 223.00 534.00 223.00
C 513.22 224.02 495.81 234.62 478.22 244.22 C 457.09 251.92 440.17 232.16 421.00 228.00
C 420.06 231.11 417.80 233.72 417.00 237.00
C 417.00 241.00 417.00 245.00 417.00 249.00
C 421.02 271.44 433.67 290.98 442.00 312.00
C 426.41 311.00 413.64 301.02 399.00 297.00
C 408.30 305.63 423.57 309.49 435.99 314.01 C 450.14 315.70 450.05 335.24 458.08 344.92 C 464.24 356.44 470.46 368.27 476.00 380.00
C 460.17 382.72 446.19 391.45 434.00 402.00
C 430.81 405.98 426.97 409.89 423.00 413.00
C 405.85 433.12 392.23 455.44 378.77 477.77 C 345.23 524.29 317.15 579.70 328.67 639.33 C 333.91 666.85 333.47 700.69 356.00 720.00
L 365.00 720.00
C 366.98 717.28 371.30 716.97 373.00 714.00
C 374.96 712.48 380.11 712.28 382.00 714.00
C 408.87 709.86 434.15 699.52 462.00 699.00
C 467.92 697.37 477.15 697.31 483.00 699.00
C 520.11 703.18 555.21 715.36 593.00 717.00
C 597.59 715.38 605.48 715.30 610.00 717.00
C 632.38 715.66 654.50 709.45 672.00 695.00
C 674.87 691.36 678.36 687.77 682.00 685.00
C 694.49 670.79 701.16 652.60 705.00 635.00
L 705.00 609.00
C 702.54 586.49 682.16 566.84 659.00 566.00
C 655.67 566.00 652.33 566.00 649.00 566.00
C 634.92 564.89 642.82 580.39 652.92 578.08 C 660.09 581.23 667.77 583.24 674.31 587.70 C 708.99 601.18 703.89 645.18 681.00 667.00
C 678.46 670.30 675.31 673.56 672.00 676.00
C 653.79 691.46 630.67 698.92 607.00 700.00
C 601.00 700.00 595.00 700.00 589.00 700.00
C 557.56 698.37 527.64 690.77 496.00 690.00
C 487.67 690.00 479.33 690.00 471.00 690.00
C 446.76 691.42 423.15 695.39 400.01 701.01 C 380.83 707.02 354.45 705.82 344.77 684.23 C 335.27 663.34 333.59 639.87 331.00 617.00
C 329.42 613.73 329.29 607.20 331.00 604.00
C 332.60 568.26 350.95 537.01 369.70 507.70 C 386.40 479.83 401.78 451.21 423.00 426.00
C 425.87 422.36 429.36 418.77 433.00 416.00
C 440.47 410.41 447.59 404.19 455.75 399.75 C 462.55 393.09 475.46 392.44 479.00 384.00
C 481.35 386.23 482.33 390.69 486.00 391.00
C 492.23 370.04 472.03 356.08 465.77 338.23 C 450.98 304.23 423.77 274.49 419.00 237.00
C 436.09 242.96 450.83 256.77 470.00 256.00 C 488.16 254.42 501.43 238.68 519.78 236.78 C 539.29 227.07 560.10 244.00 578.25 237.25 C 588.23 222.57 605.19 216.95 620.31 210.31 C 631.41 203.21 630.05 221.59 633.02 227.98 C 635.47 237.21 637.56 246.52 639.00 256.00
C 639.00 259.67 639.00 263.33 639.00 267.00
C 639.12 275.27 633.93 283.95 634.00 291.00
C 638.32 284.92 639.96 275.53 641.00 267.00
C 639.46 264.72 639.28 259.21 641.00 257.00
C 638.72 236.46 633.36 216.64 628.00 197.00
C 614.07 202.11 599.27 205.98 587.25 215.25 C 577.93 231.29 561.21 228.25 547.00 223.00 Z"/>
</g>
<g fill="None" fill-opacity="0.0" stroke="#000000" stroke-opacity="0.25" stroke-width="0.3"><path d="
M 534.00 223.00 
C 538.33 223.00 542.67 223.00 547.00 223.00
C 543.80 221.29 537.27 221.42 534.00 223.00 Z"/>
</g>
<g fill="None" fill-opacity="0.0" stroke="#000000" stroke-opacity="0.40" stroke-width="0.3"><path d="
M 632.00 265.00 
C 632.00 259.67 632.00 254.33 632.00 249.00
C 631.92 237.81 622.54 225.70 611.00 225.00
C 615.70 234.10 628.96 241.23 626.31 253.31 C 620.30 263.81 616.26 277.11 621.00 289.00
C 628.76 284.58 630.54 273.31 632.00 265.00 Z"/>
</g>
<g fill="None" fill-opacity="0.0" stroke="#000000" stroke-opacity="0.36" stroke-width="0.3"><path d="
M 417.00 249.00 
C 417.00 245.00 417.00 241.00 417.00 237.00
C 415.29 239.87 415.43 246.06 417.00 249.00 Z"/>
</g>
<g fill="None" fill-opacity="0.0" stroke="#000000" stroke-opacity="0.24" stroke-width="0.3"><path d="
M 632.00 265.00 
C 633.70 260.81 633.61 253.26 632.00 249.00
C 632.00 254.33 632.00 259.67 632.00 265.00 Z"/>
</g>
<g fill="None" fill-opacity="0.0" stroke="#000000" stroke-opacity="0.36" stroke-width="0.3"><path d="
M 639.00 267.00 
C 639.00 263.33 639.00 259.67 639.00 256.00
C 637.28 258.54 637.44 264.39 639.00 267.00 Z"/>
</g>
<g fill="None" fill-opacity="0.0" stroke="#000000" stroke-opacity="0.51" stroke-width="0.3"><path d="
M 641.00 267.00 
C 641.00 263.67 641.00 260.33 641.00 257.00
C 639.28 259.21 639.46 264.72 641.00 267.00 Z"/>
</g>
<g fill="None" fill-opacity="0.0" stroke="#000000" stroke-opacity="0.40" stroke-width="0.3"><path d="
M 438.00 269.00 
C 446.36 271.26 454.81 273.06 462.93 276.07 C 476.34 281.07 470.11 262.82 459.67 266.33 C 450.14 266.39 441.00 264.92 432.00 263.00
C 443.42 286.98 450.03 318.78 473.00 337.00 C 485.51 335.00 475.44 318.61 469.92 313.08 C 457.83 299.38 445.21 285.59 438.00 269.00 Z"/>
</g>
<g fill="None" fill-opacity="0.0" stroke="#000000" stroke-opacity="0.58" stroke-width="0.3"><path d="
M 265.00 286.00 
C 271.63 280.22 278.16 273.66 284.00 267.00
C 277.37 272.78 270.84 279.34 265.00 286.00 Z"/>
</g>
<g fill="None" fill-opacity="0.0" stroke="#000000" stroke-opacity="0.28" stroke-width="0.3"><path d="
M 262.00 309.00 
C 267.30 304.55 272.48 299.32 277.00 294.00
C 271.70 298.45 266.52 303.68 262.00 309.00 Z"/>
</g>
<g fill="None" fill-opacity="0.0" stroke="#000000" stroke-opacity="0.22" stroke-width="0.3"><path d="
M 390.00 322.00 
C 393.33 322.00 396.67 322.00 400.00 322.00
C 399.96 322.00 400.00 321.00 400.00 321.00
C 396.82 321.53 392.43 319.87 390.00 322.00 Z"/>
</g>
<g fill="None" fill-opacity="0.0" stroke="#000000" stroke-opacity="0.44" stroke-width="0.3"><path d="
M 400.00 322.00 
C 407.67 322.00 415.33 322.00 423.00 322.00
C 416.33 319.67 407.50 321.66 400.00 321.00
C 400.00 321.00 399.96 322.00 400.00 322.00 Z"/>
</g>
<g fill="None" fill-opacity="0.0" stroke="#000000" stroke-opacity="0.89" stroke-width="0.3"><path d="
M 385.00 324.00 
C 391.33 324.00 397.67 324.00 404.00 324.00
C 418.52 323.25 433.49 325.55 447.00 326.00
C 440.29 321.93 431.02 322.81 423.00 322.00
C 415.33 322.00 407.67 322.00 400.00 322.00
C 396.67 322.00 393.33 322.00 390.00 322.00
C 388.33 322.27 384.48 321.08 385.00 324.00 Z"/>
</g>
<g fill="None" fill-opacity="0.0" stroke="#000000" stroke-opacity="0.21" stroke-width="0.3"><path d="
M 404.00 324.00 
C 397.67 324.00 391.33 324.00 385.00 324.00
C 390.19 325.69 398.74 325.63 404.00 324.00 Z"/>
</g>
<g fill="None" fill-opacity="0.0" stroke="#000000" stroke-opacity="0.26" stroke-width="0.3"><path d="
M 37.00 329.00 
C 40.67 329.00 44.33 329.00 48.00 329.00
C 45.46 327.28 39.61 327.44 37.00 329.00 Z"/>
</g>
<g fill="None" fill-opacity="0.0" stroke="#000000" stroke-opacity="0.41" stroke-width="0.3"><path d="
M 35.00 347.00 
C 31.63 341.57 23.59 338.12 24.00 331.00
C 29.64 330.63 32.97 336.68 38.00 338.00
C 40.04 338.81 40.97 341.27 43.00 342.00
C 59.19 353.43 72.70 374.09 66.07 394.07 C 65.34 397.09 62.15 407.89 61.00 405.00
C 59.00 428.32 50.90 451.76 34.92 469.92 C 20.21 487.80 8.94 508.73 7.00 532.00
C 7.34 548.78 14.76 567.00 23.00 580.00
C 35.32 591.48 48.68 603.25 64.00 610.00
C 63.07 601.38 61.51 592.96 62.00 584.00
C 57.04 576.34 47.56 574.04 41.00 568.00
C 36.35 564.15 31.78 559.63 28.00 555.00
C 18.68 543.50 10.13 528.63 21.23 515.23 C 45.20 477.39 70.55 437.41 75.00 392.00
C 75.00 387.33 75.00 382.67 75.00 378.00
C 74.51 359.21 70.00 333.00 48.00 329.00
C 44.33 329.00 40.67 329.00 37.00 329.00
C 31.53 330.90 20.88 326.65 21.00 335.00
C 26.74 335.38 24.24 341.26 26.00 345.00
C 29.87 341.38 31.20 343.67 35.00 347.00 Z"/>
</g>
<g fill="None" fill-opacity="0.0" stroke="#000000" stroke-opacity="0.17" stroke-width="0.3"><path d="
M 198.00 344.00 
C 202.63 340.22 207.15 335.65 211.00 331.00
C 206.37 334.78 201.85 339.35 198.00 344.00 Z"/>
</g>
<g fill="None" fill-opacity="0.0" stroke="#000000" stroke-opacity="0.80" stroke-width="0.3"><path d="
M 441.00 336.00 
C 429.76 339.43 416.60 337.59 406.00 342.00
C 412.03 343.55 418.43 340.52 424.93 340.93 C 429.66 338.27 439.01 341.90 441.00 336.00 Z"/>
</g>
<g fill="None" fill-opacity="0.0" stroke="#000000" stroke-opacity="0.62" stroke-width="0.3"><path d="
M 50.00 350.00 
C 48.27 346.89 44.67 345.08 43.00 342.00
C 40.97 341.27 40.04 338.81 38.00 338.00
C 41.44 342.30 45.68 346.48 50.00 350.00 Z"/>
</g>
<g fill="None" fill-opacity="0.0" stroke="#000000" stroke-opacity="0.02" stroke-width="0.3"><path d="
M 50.00 350.00 
C 57.70 360.74 60.56 373.79 61.00 387.00
C 61.00 391.67 61.00 396.33 61.00 401.00
C 61.00 402.33 61.00 403.67 61.00 405.00
C 62.15 407.89 65.34 397.09 66.07 394.07 C 72.70 374.09 59.19 353.43 43.00 342.00
C 44.67 345.08 48.27 346.89 50.00 350.00 Z"/>
</g>
<g fill="None" fill-opacity="0.0" stroke="#000000" stroke-opacity="0.56" stroke-width="0.3"><path d="
M 198.00 365.00 
C 203.30 360.55 208.48 355.32 213.00 350.00
C 207.70 354.45 202.52 359.68 198.00 365.00 Z"/>
</g>
<g fill="None" fill-opacity="0.0" stroke="#000000" stroke-opacity="0.18" stroke-width="0.3"><path d="
M 75.00 392.00 
C 76.71 388.47 76.59 381.60 75.00 378.00
C 75.00 382.67 75.00 387.33 75.00 392.00 Z"/>
</g>
<g fill="None" fill-opacity="0.0" stroke="#000000" stroke-opacity="0.40" stroke-width="0.3"><path d="
M 448.00 421.00 
C 443.15 426.66 437.63 432.22 432.00 437.00
C 412.23 464.13 393.49 491.86 374.25 519.25 C 356.46 551.96 333.51 583.71 339.00 624.00
C 341.30 630.76 339.36 639.49 340.00 647.00
C 338.53 669.68 349.14 697.22 374.00 701.00
C 379.20 700.29 387.42 703.44 389.00 697.00
C 395.38 664.30 344.18 673.89 346.00 642.00 C 340.74 612.64 353.77 588.83 367.23 565.23 C 376.61 543.52 392.74 525.88 407.23 507.23 C 419.05 487.21 431.16 467.40 449.25 451.25 C 487.62 417.93 537.13 404.62 584.00 390.00
C 585.77 389.02 586.35 387.20 586.00 385.00
C 584.43 384.61 581.78 385.94 581.00 384.00
C 532.72 381.23 484.70 389.95 448.00 421.00 Z"/>
</g>
<g fill="None" fill-opacity="0.0" stroke="#000000" stroke-opacity="0.23" stroke-width="0.3"><path d="
M 584.00 390.00 
C 589.96 389.50 585.93 381.33 581.00 384.00
C 581.78 385.94 584.43 384.61 586.00 385.00
C 586.35 387.20 585.77 389.02 584.00 390.00 Z"/>
</g>
<g fill="None" fill-opacity="0.0" stroke="#000000" stroke-opacity="0.84" stroke-width="0.3"><path d="
M 61.00 401.00 
C 61.00 396.33 61.00 391.67 61.00 387.00
C 59.29 390.53 59.41 397.40 61.00 401.00 Z"/>
</g>
<g fill="None" fill-opacity="0.0" stroke="#000000" stroke-opacity="0.53" stroke-width="0.3"><path d="
M 54.00 401.00 
C 54.00 397.67 54.00 394.33 54.00 391.00
C 52.28 393.21 52.46 398.72 54.00 401.00 Z"/>
</g>
<g fill="None" fill-opacity="0.0" stroke="#000000" stroke-opacity="0.54" stroke-width="0.3"><path d="
M 138.00 415.00 
C 143.30 410.55 148.48 405.32 153.00 400.00
C 147.70 404.45 142.52 409.68 138.00 415.00 Z"/>
</g>
<g fill="None" fill-opacity="0.0" stroke="#000000" stroke-opacity="0.72" stroke-width="0.3"><path d="
M 423.00 413.00 
C 426.97 409.89 430.81 405.98 434.00 402.00
C 430.03 405.11 426.19 409.02 423.00 413.00 Z"/>
</g>
<g fill="None" fill-opacity="0.0" stroke="#000000" stroke-opacity="0.45" stroke-width="0.3"><path d="
M 423.00 426.00 
C 426.64 423.23 430.13 419.64 433.00 416.00
C 429.36 418.77 425.87 422.36 423.00 426.00 Z"/>
</g>
<g fill="None" fill-opacity="0.0" stroke="#000000" stroke-opacity="0.27" stroke-width="0.3"><path d="
M 432.00 437.00 
C 437.63 432.22 443.15 426.66 448.00 421.00
C 442.37 425.78 436.85 431.34 432.00 437.00 Z"/>
</g>
<g fill="None" fill-opacity="0.0" stroke="#000000" stroke-opacity="0.51" stroke-width="0.3"><path d="
M 136.00 438.00 
C 140.96 433.89 145.82 428.99 150.00 424.00
C 145.04 428.11 140.18 433.01 136.00 438.00 Z"/>
</g>
<g fill="None" fill-opacity="0.0" stroke="#000000" stroke-opacity="0.83" stroke-width="0.3"><path d="
M 111.00 441.00 
C 115.96 436.89 120.82 431.99 125.00 427.00
C 120.04 431.11 115.18 436.01 111.00 441.00 Z"/>
</g>
<g fill="None" fill-opacity="0.0" stroke="#000000" stroke-opacity="0.25" stroke-width="0.3"><path d="
M 222.00 443.00 
C 227.67 443.00 233.33 443.00 239.00 443.00
C 234.48 441.30 226.59 441.38 222.00 443.00 Z"/>
</g>
<g fill="None" fill-opacity="0.0" stroke="#000000" stroke-opacity="0.41" stroke-width="0.3"><path d="
M 178.00 476.00 
C 196.74 460.04 225.98 453.50 247.00 469.00
C 259.17 470.36 271.30 483.90 276.31 495.70 C 282.46 508.85 291.72 524.49 282.00 538.00
C 281.72 539.28 282.76 541.50 281.00 542.00
C 280.16 566.08 264.68 585.69 252.00 605.00
C 252.88 608.47 248.02 612.67 246.00 616.00
C 245.76 616.32 246.00 617.00 246.00 617.00
C 246.00 621.67 246.00 626.33 246.00 631.00
C 246.00 631.50 245.75 632.75 246.00 633.00
C 250.14 634.36 254.77 633.88 259.00 635.00
C 258.73 633.53 257.00 634.11 256.00 634.00
C 267.34 612.97 280.28 592.73 284.69 568.69 C 303.67 525.73 291.56 453.91 239.00 443.00
C 233.33 443.00 227.67 443.00 222.00 443.00
C 196.61 445.87 167.33 458.68 156.00 483.00
C 160.40 481.92 164.19 479.12 168.32 477.32 C 170.93 477.01 179.33 471.84 178.00 476.00 Z"/>
</g>
<g fill="None" fill-opacity="0.0" stroke="#000000" stroke-opacity="0.74" stroke-width="0.3"><path d="
M 114.00 458.00 
C 117.31 455.56 120.46 452.30 123.00 449.00
C 119.69 451.44 116.54 454.70 114.00 458.00 Z"/>
</g>
<g fill="None" fill-opacity="0.0" stroke="#000000" stroke-opacity="0.97" stroke-width="0.3"><path d="
M 178.00 476.00 
C 170.17 483.67 156.67 489.78 153.00 500.00
C 171.44 491.95 189.03 479.17 210.00 478.00
C 212.28 476.46 217.79 476.28 220.00 478.00
C 232.68 479.15 244.33 484.64 254.00 493.00
C 257.18 493.08 261.32 499.11 264.00 502.00
C 270.56 511.14 276.71 521.20 277.22 532.78 C 279.12 554.97 260.62 571.94 249.92 589.92 C 240.99 608.96 222.57 620.83 209.00 636.00 C 206.74 655.15 226.09 636.79 235.33 644.67 C 256.98 647.53 280.14 654.30 293.08 673.92 C 300.10 686.86 279.17 690.44 270.00 690.00
C 264.41 691.63 255.52 691.69 250.00 690.00
C 224.34 690.42 198.63 679.73 174.22 690.22 C 165.54 695.46 150.80 695.52 146.00 704.00
C 162.23 702.52 177.57 697.60 194.00 697.00
C 196.28 695.46 201.79 695.28 204.00 697.00
C 221.77 698.30 238.88 702.16 257.00 702.00
C 262.67 702.00 268.33 702.00 274.00 702.00
C 295.55 706.44 307.16 681.09 296.32 664.68 C 290.41 649.09 274.54 638.71 259.00 635.00
C 254.77 633.88 250.14 634.36 246.00 633.00
C 241.19 632.83 236.51 632.94 232.00 634.00
C 235.49 627.73 241.39 622.12 245.00 616.00
C 246.92 612.05 249.71 608.71 252.00 605.00
C 264.68 585.69 280.16 566.08 281.00 542.00
C 281.64 537.50 279.70 531.67 282.00 528.00
C 280.24 504.58 267.66 481.65 247.00 469.00
C 225.98 453.50 196.74 460.04 178.00 476.00 Z"/>
</g>
<g fill="None" fill-opacity="0.0" stroke="#000000" stroke-opacity="0.96" stroke-width="0.3"><path d="
M 603.00 468.00 
C 599.81 471.98 595.97 475.89 592.00 479.00
C 578.84 497.12 575.72 519.55 576.00 542.00
C 576.00 550.67 576.00 559.33 576.00 568.00
C 576.00 572.00 576.00 576.00 576.00 580.00
C 576.00 583.67 576.00 587.33 576.00 591.00
C 577.40 605.92 576.23 622.81 585.00 635.00
C 587.18 632.14 588.38 628.73 588.00 625.00
C 588.00 621.33 588.00 617.67 588.00 614.00
C 585.63 598.74 582.94 583.60 582.00 568.00
C 580.36 560.41 580.32 549.52 582.00 542.00
C 583.07 526.78 586.02 511.99 592.23 498.23 C 596.96 485.89 607.08 475.61 610.00 463.00
C 606.83 462.97 605.74 466.91 603.00 468.00 Z"/>
</g>
<g fill="None" fill-opacity="0.0" stroke="#000000" stroke-opacity="0.04" stroke-width="0.3"><path d="
M 247.00 469.00 
C 267.66 481.65 280.24 504.58 282.00 528.00
C 282.00 531.33 282.00 534.67 282.00 538.00
C 291.72 524.49 282.46 508.85 276.31 495.70 C 271.30 483.90 259.17 470.36 247.00 469.00 Z"/>
</g>
<g fill="None" fill-opacity="0.0" stroke="#000000" stroke-opacity="0.46" stroke-width="0.3"><path d="
M 592.00 479.00 
C 595.97 475.89 599.81 471.98 603.00 468.00
C 599.03 471.11 595.19 475.02 592.00 479.00 Z"/>
</g>
<g fill="None" fill-opacity="0.0" stroke="#000000" stroke-opacity="0.53" stroke-width="0.3"><path d="
M 210.00 478.00 
C 213.33 478.00 216.67 478.00 220.00 478.00
C 217.79 476.28 212.28 476.46 210.00 478.00 Z"/>
</g>
<g fill="None" fill-opacity="0.0" stroke="#000000" stroke-opacity="0.67" stroke-width="0.3"><path d="
M 254.00 493.00 
C 257.76 495.32 260.20 499.62 264.00 502.00
C 261.32 499.11 257.18 493.08 254.00 493.00 Z"/>
</g>
<g fill="None" fill-opacity="0.0" stroke="#000000" stroke-opacity="0.73" stroke-width="0.3"><path d="
M 281.00 542.00 
C 282.76 541.50 281.72 539.28 282.00 538.00
C 282.00 534.67 282.00 531.33 282.00 528.00
C 279.70 531.67 281.64 537.50 281.00 542.00 Z"/>
</g>
<g fill="None" fill-opacity="0.0" stroke="#000000" stroke-opacity="0.78" stroke-width="0.3"><path d="
M 0.00 538.00 
C 1.72 536.11 1.52 530.96 0.00 529.00
L 0.00 538.00 Z"/>
</g>
<g fill="None" fill-opacity="0.0" stroke="#000000" stroke-opacity="0.09" stroke-width="0.3"><path d="
M 7.00 534.00 
C 7.00 538.00 7.00 542.00 7.00 546.00
C 8.16 558.75 12.59 571.74 23.00 580.00
C 14.76 567.00 7.34 548.78 7.00 532.00
C 6.99 532.50 7.00 533.50 7.00 534.00 Z"/>
</g>
<g fill="None" fill-opacity="0.0" stroke="#000000" stroke-opacity="0.49" stroke-width="0.3"><path d="
M 7.00 546.00 
C 7.00 542.00 7.00 538.00 7.00 534.00
C 5.29 536.87 5.43 543.06 7.00 546.00 Z"/>
</g>
<g fill="None" fill-opacity="0.0" stroke="#000000" stroke-opacity="0.82" stroke-width="0.3"><path d="
M 575.00 568.00 
C 575.00 567.96 576.00 568.00 576.00 568.00
C 576.00 559.33 576.00 550.67 576.00 542.00
C 573.67 549.67 575.66 559.50 575.00 568.00 Z"/>
</g>
<g fill="None" fill-opacity="0.0" stroke="#000000" stroke-opacity="0.77" stroke-width="0.3"><path d="
M 582.00 568.00 
C 582.00 559.33 582.00 550.67 582.00 542.00
C 580.32 549.52 580.36 560.41 582.00 568.00 Z"/>
</g>
<g fill="None" fill-opacity="0.0" stroke="#000000" stroke-opacity="0.24" stroke-width="0.3"><path d="
M 41.00 568.00 
C 37.22 563.37 32.65 558.85 28.00 555.00
C 31.78 559.63 36.35 564.15 41.00 568.00 Z"/>
</g>
<g fill="None" fill-opacity="0.0" stroke="#000000" stroke-opacity="0.37" stroke-width="0.3"><path d="
M 649.00 566.00 
C 652.33 566.00 655.67 566.00 659.00 566.00
C 656.79 564.28 651.28 564.46 649.00 566.00 Z"/>
</g>
<g fill="None" fill-opacity="0.0" stroke="#000000" stroke-opacity="0.61" stroke-width="0.3"><path d="
M 575.00 580.00 
C 575.00 579.96 576.00 580.00 576.00 580.00
C 576.00 576.00 576.00 572.00 576.00 568.00
C 576.00 568.00 575.00 567.96 575.00 568.00
C 575.00 572.00 575.00 576.00 575.00 580.00 Z"/>
</g>
<g fill="None" fill-opacity="0.0" stroke="#000000" stroke-opacity="0.76" stroke-width="0.3"><path d="
M 29.00 595.00 
C 22.22 587.38 14.66 579.84 7.00 573.00
C 13.78 580.63 21.34 588.16 29.00 595.00 Z"/>
</g>
<g fill="None" fill-opacity="0.0" stroke="#000000" stroke-opacity="0.49" stroke-width="0.3"><path d="
M 67.00 592.00 
C 67.00 587.67 67.00 583.33 67.00 579.00
C 65.29 582.20 65.42 588.73 67.00 592.00 Z"/>
</g>
<g fill="None" fill-opacity="0.0" stroke="#000000" stroke-opacity="0.30" stroke-width="0.3"><path d="
M 576.00 591.00 
C 576.00 587.33 576.00 583.67 576.00 580.00
C 576.00 580.00 575.00 579.96 575.00 580.00
C 575.55 583.51 573.84 588.24 576.00 591.00 Z"/>
</g>
<g fill="None" fill-opacity="0.0" stroke="#000000" stroke-opacity="0.40" stroke-width="0.3"><path d="
M 666.00 640.00 
C 663.46 643.30 660.31 646.56 657.00 649.00
C 625.43 670.25 584.59 667.77 547.00 666.00 C 526.51 663.14 507.55 671.49 488.00 669.00
C 490.70 680.73 508.46 673.92 516.92 679.08 C 535.95 688.15 555.09 697.42 577.00 697.00
C 585.00 697.00 593.00 697.00 601.00 697.00
C 631.54 695.98 669.79 683.33 676.22 649.22 C 688.16 617.96 659.51 572.79 624.23 588.23 C 604.38 597.95 599.50 629.95 613.00 645.00 C 630.58 644.47 606.60 626.03 619.92 620.92 C 629.86 615.10 642.36 614.79 652.97 619.03 C 660.37 621.90 674.27 631.24 666.00 640.00 Z"/>
</g>
<g fill="None" fill-opacity="0.0" stroke="#000000" stroke-opacity="0.29" stroke-width="0.3"><path d="
M 69.00 603.00 
C 68.33 599.79 70.68 594.74 67.00 593.00
C 69.37 595.80 66.55 600.55 69.00 603.00 Z"/>
</g>
<g fill="None" fill-opacity="0.0" stroke="#000000" stroke-opacity="0.53" stroke-width="0.3"><path d="
M 331.00 617.00 
C 331.00 612.67 331.00 608.33 331.00 604.00
C 329.29 607.20 329.42 613.73 331.00 617.00 Z"/>
</g>
<g fill="None" fill-opacity="0.0" stroke="#000000" stroke-opacity="0.21" stroke-width="0.3"><path d="
M 245.00 616.00 
C 245.28 615.75 246.00 616.00 246.00 616.00
C 248.02 612.67 252.88 608.47 252.00 605.00
C 249.71 608.71 246.92 612.05 245.00 616.00 Z"/>
</g>
<g fill="None" fill-opacity="0.0" stroke="#000000" stroke-opacity="0.27" stroke-width="0.3"><path d="
M 588.00 625.00 
C 589.72 622.46 589.56 616.61 588.00 614.00
C 588.00 617.67 588.00 621.33 588.00 625.00 Z"/>
</g>
<g fill="None" fill-opacity="0.0" stroke="#000000" stroke-opacity="0.04" stroke-width="0.3"><path d="
M 246.00 633.00 
C 245.75 632.75 246.00 631.50 246.00 631.00
C 244.41 627.40 244.29 620.53 246.00 617.00
C 246.00 617.00 245.76 616.32 246.00 616.00
C 246.00 616.00 245.28 615.75 245.00 616.00
C 241.39 622.12 235.49 627.73 232.00 634.00
C 236.51 632.94 241.19 632.83 246.00 633.00 Z"/>
</g>
<g fill="None" fill-opacity="0.0" stroke="#000000" stroke-opacity="0.22" stroke-width="0.3"><path d="
M 246.00 631.00 
C 246.00 626.33 246.00 621.67 246.00 617.00
C 244.29 620.53 244.41 627.40 246.00 631.00 Z"/>
</g>
<g fill="None" fill-opacity="0.0" stroke="#000000" stroke-opacity="0.20" stroke-width="0.3"><path d="
M 340.00 647.00 
C 339.36 639.49 341.30 630.76 339.00 624.00
C 339.64 631.51 337.70 640.24 340.00 647.00 Z"/>
</g>
<g fill="None" fill-opacity="0.0" stroke="#000000" stroke-opacity="0.68" stroke-width="0.3"><path d="
M 100.00 648.00 
C 96.22 643.37 91.65 638.85 87.00 635.00
C 90.78 639.63 95.35 644.15 100.00 648.00 Z"/>
</g>
<g fill="None" fill-opacity="0.0" stroke="#000000" stroke-opacity="0.00" stroke-width="0.3"><path d="
M 682.00 685.00 
C 679.13 688.64 675.64 692.23 672.00 695.00
C 654.50 709.45 632.38 715.66 610.00 717.00
C 604.33 717.00 598.67 717.00 593.00 717.00
C 555.21 715.36 520.11 703.18 483.00 699.00
C 476.00 699.00 469.00 699.00 462.00 699.00
C 434.15 699.52 408.87 709.86 382.00 714.00
C 379.00 714.00 376.00 714.00 373.00 714.00
C 371.30 716.97 366.98 717.28 365.00 720.00
L 705.00 720.00
L 705.00 635.00
C 701.16 652.60 694.49 670.79 682.00 685.00 Z"/>
</g>
<g fill="None" fill-opacity="0.0" stroke="#000000" stroke-opacity="0.18" stroke-width="0.3"><path d="
M 657.00 649.00 
C 660.31 646.56 663.46 643.30 666.00 640.00
C 662.69 642.44 659.54 645.70 657.00 649.00 Z"/>
</g>
<g fill="None" fill-opacity="0.0" stroke="#000000" stroke-opacity="0.80" stroke-width="0.3"><path d="
M 672.00 676.00 
C 675.31 673.56 678.46 670.30 681.00 667.00
C 677.69 669.44 674.54 672.70 672.00 676.00 Z"/>
</g>
<g fill="None" fill-opacity="0.0" stroke="#000000" stroke-opacity="0.38" stroke-width="0.3"><path d="
M 672.00 695.00 
C 675.64 692.23 679.13 688.64 682.00 685.00
C 678.36 687.77 674.87 691.36 672.00 695.00 Z"/>
</g>
<g fill="None" fill-opacity="0.0" stroke="#000000" stroke-opacity="0.33" stroke-width="0.3"><path d="
M 471.00 690.00 
C 479.33 690.00 487.67 690.00 496.00 690.00
C 488.81 688.32 478.26 688.36 471.00 690.00 Z"/>
</g>
<g fill="None" fill-opacity="0.0" stroke="#000000" stroke-opacity="0.70" stroke-width="0.3"><path d="
M 270.00 690.00 
C 263.33 690.00 256.67 690.00 250.00 690.00
C 255.52 691.69 264.41 691.63 270.00 690.00 Z"/>
</g>
<g fill="None" fill-opacity="0.0" stroke="#000000" stroke-opacity="0.35" stroke-width="0.3"><path d="
M 194.00 697.00 
C 197.33 697.00 200.67 697.00 204.00 697.00
C 201.79 695.28 196.28 695.46 194.00 697.00 Z"/>
</g>
<g fill="None" fill-opacity="0.0" stroke="#000000" stroke-opacity="0.20" stroke-width="0.3"><path d="
M 374.00 701.00 
C 377.94 702.37 389.32 704.40 389.00 697.00
C 387.42 703.44 379.20 700.29 374.00 701.00 Z"/>
</g>
<g fill="None" fill-opacity="0.0" stroke="#000000" stroke-opacity="0.27" stroke-width="0.3"><path d="
M 601.00 697.00 
C 593.00 697.00 585.00 697.00 577.00 697.00
C 583.85 698.68 594.08 698.64 601.00 697.00 Z"/>
</g>
<g fill="None" fill-opacity="0.0" stroke="#000000" stroke-opacity="0.58" stroke-width="0.3"><path d="
M 462.00 699.00 
C 469.00 699.00 476.00 699.00 483.00 699.00
C 477.15 697.31 467.92 697.37 462.00 699.00 Z"/>
</g>
<g fill="None" fill-opacity="0.0" stroke="#000000" stroke-opacity="0.18" stroke-width="0.3"><path d="
M 589.00 700.00 
C 595.00 700.00 601.00 700.00 607.00 700.00
C 602.15 698.31 593.92 698.38 589.00 700.00 Z"/>
</g>
<g fill="None" fill-opacity="0.0" stroke="#000000" stroke-opacity="0.15" stroke-width="0.3"><path d="
M 274.00 702.00 
C 268.33 702.00 262.67 702.00 257.00 702.00
C 261.52 703.70 269.41 703.62 274.00 702.00 Z"/>
</g>
<g fill="None" fill-opacity="0.0" stroke="#000000" stroke-opacity="0.64" stroke-width="0.3"><path d="
M 373.00 714.00 
C 376.00 714.00 379.00 714.00 382.00 714.00
C 380.11 712.28 374.96 712.48 373.00 714.00 Z"/>
</g>
<g fill="None" fill-opacity="0.0" stroke="#000000" stroke-opacity="0.68" stroke-width="0.3"><path d="
M 593.00 717.00 
C 598.67 717.00 604.33 717.00 610.00 717.00
C 605.48 715.30 597.59 715.38 593.00 717.00 Z"/>
</g>
<g fill="#000000" fill-opacity="0.00" stroke="None">
<path d="
M 0.00 526.00 
C 4.33 503.20 6.75 478.00 21.75 458.75 C 33.84 440.27 50.80 423.66 54.00 401.00
C 52.46 398.72 52.28 393.21 54.00 391.00
C 51.33 375.06 45.44 359.69 35.00 347.00
C 31.20 343.67 29.87 341.38 26.00 345.00
C 24.24 341.26 26.74 335.38 21.00 335.00
C 20.88 326.65 31.53 330.90 37.00 329.00
C 39.61 327.44 45.46 327.28 48.00 329.00
C 70.00 333.00 74.51 359.21 75.00 378.00
C 76.59 381.60 76.71 388.47 75.00 392.00
C 70.55 437.41 45.20 477.39 21.23 515.23 C 10.13 528.63 18.68 543.50 28.00 555.00
C 32.65 558.85 37.22 563.37 41.00 568.00
C 47.56 574.04 57.04 576.34 62.00 584.00
C 65.59 533.16 74.64 479.72 111.00 441.00
C 115.18 436.01 120.04 431.11 125.00 427.00
C 129.58 423.34 133.74 418.58 138.00 415.00
C 142.52 409.68 147.70 404.45 153.00 400.00
C 168.68 381.73 182.96 362.41 198.00 344.00
C 201.85 339.35 206.37 334.78 211.00 331.00
C 229.42 317.03 247.54 301.80 265.00 286.00
C 270.84 279.34 277.37 272.78 284.00 267.00
C 307.60 245.78 309.03 213.48 324.00 188.00
C 325.82 186.12 330.66 178.36 332.00 183.00
C 306.66 216.53 310.62 264.29 277.00 294.00
C 272.48 299.32 267.30 304.55 262.00 309.00
C 245.88 323.13 229.51 336.58 213.00 350.00
C 208.48 355.32 203.30 360.55 198.00 365.00
C 181.77 384.59 167.05 404.97 150.00 424.00
C 145.82 428.99 140.96 433.89 136.00 438.00
C 131.86 441.53 127.87 446.26 123.00 449.00
C 120.46 452.30 117.31 455.56 114.00 458.00
C 83.21 491.21 68.32 534.17 67.00 579.00
C 67.00 583.33 67.00 587.67 67.00 592.00
C 67.00 592.50 67.00 593.00 67.00 593.00
C 70.68 594.74 68.33 599.79 69.00 603.00
C 71.68 615.13 79.62 625.17 87.00 635.00
C 91.65 638.85 96.22 643.37 100.00 648.00
C 104.84 654.33 116.35 656.65 115.00 666.00
C 102.54 663.34 91.17 656.44 82.25 646.75 C 70.84 639.26 71.59 621.94 60.97 616.03 C 48.54 612.64 38.58 603.68 29.00 595.00
C 21.34 588.16 13.78 580.63 7.00 573.00
C 3.25 568.23 3.37 561.29 0.00 557.00
L 0.00 720.00
L 356.00 720.00
C 333.47 700.69 333.91 666.85 328.67 639.33 C 317.15 579.70 345.23 524.29 378.77 477.77 C 392.23 455.44 405.85 433.12 423.00 413.00
C 426.19 409.02 430.03 405.11 434.00 402.00
C 446.19 391.45 460.17 382.72 476.00 380.00
C 470.46 368.27 464.24 356.44 458.08 344.92 C 450.05 335.24 450.14 315.70 435.99 314.01 C 423.57 309.49 408.30 305.63 399.00 297.00
C 413.64 301.02 426.41 311.00 442.00 312.00
C 433.67 290.98 421.02 271.44 417.00 249.00
C 415.43 246.06 415.29 239.87 417.00 237.00
C 417.80 233.72 420.06 231.11 421.00 228.00
C 440.17 232.16 457.09 251.92 478.22 244.22 C 495.81 234.62 513.22 224.02 534.00 223.00
C 537.27 221.42 543.80 221.29 547.00 223.00
C 561.21 228.25 577.93 231.29 587.25 215.25 C 599.27 205.98 614.07 202.11 628.00 197.00
C 633.36 216.64 638.72 236.46 641.00 257.00
C 641.00 260.33 641.00 263.67 641.00 267.00
C 639.96 275.53 638.32 284.92 634.00 291.00
C 633.93 283.95 639.12 275.27 639.00 267.00
C 637.44 264.39 637.28 258.54 639.00 256.00
C 637.56 246.52 635.47 237.21 633.02 227.98 C 630.05 221.59 631.41 203.21 620.31 210.31 C 605.19 216.95 588.23 222.57 578.25 237.25 C 560.10 244.00 539.29 227.07 519.78 236.78 C 501.43 238.68 488.16 254.42 470.00 256.00 C 450.83 256.77 436.09 242.96 419.00 237.00
C 423.77 274.49 450.98 304.23 465.77 338.23 C 472.03 356.08 492.23 370.04 486.00 391.00
C 482.33 390.69 481.35 386.23 479.00 384.00
C 475.46 392.44 462.55 393.09 455.75 399.75 C 447.59 404.19 440.47 410.41 433.00 416.00
C 430.13 419.64 426.64 423.23 423.00 426.00
C 401.78 451.21 386.40 479.83 369.70 507.70 C 350.95 537.01 332.60 568.26 331.00 604.00
C 331.00 608.33 331.00 612.67 331.00 617.00
C 333.59 639.87 335.27 663.34 344.77 684.23 C 354.45 705.82 380.83 707.02 400.01 701.01 C 423.15 695.39 446.76 691.42 471.00 690.00
C 478.26 688.36 488.81 688.32 496.00 690.00
C 527.64 690.77 557.56 698.37 589.00 700.00
C 593.92 698.38 602.15 698.31 607.00 700.00
C 630.67 698.92 653.79 691.46 672.00 676.00
C 674.54 672.70 677.69 669.44 681.00 667.00
C 703.89 645.18 708.99 601.18 674.31 587.70 C 667.77 583.24 660.09 581.23 652.92 578.08 C 642.82 580.39 634.92 564.89 649.00 566.00
C 651.28 564.46 656.79 564.28 659.00 566.00
C 682.16 566.84 702.54 586.49 705.00 609.00
L 705.00 0.00
L 472.00 0.00
C 483.71 4.47 498.56 3.74 510.68 9.32 C 521.77 13.59 531.77 20.31 541.00 28.00
C 545.65 31.85 550.22 36.37 554.00 41.00
C 555.77 43.99 559.23 46.23 559.00 50.00
C 557.80 49.33 556.42 48.36 556.00 47.00
C 551.35 43.15 546.78 38.63 543.00 34.00
C 527.66 21.32 507.71 10.72 488.00 13.00
C 493.52 13.67 513.84 16.95 499.00 20.00 C 472.28 32.11 430.87 29.03 418.00 61.00
C 418.00 65.33 418.00 69.67 418.00 74.00
C 420.46 91.89 424.31 113.18 417.00 130.00
C 421.59 154.37 421.19 184.93 397.77 199.77 C 375.36 216.93 347.32 190.94 348.00 167.00 C 345.26 141.69 328.13 120.76 327.00 95.00
C 325.41 91.73 325.29 85.20 327.00 82.00
C 327.20 45.35 364.34 20.42 397.00 17.00
C 399.28 15.46 404.79 15.28 407.00 17.00
C 414.39 17.92 416.45 7.85 423.70 6.70 C 429.80 2.80 437.62 2.03 444.00 0.00
L 0.00 0.00
L 0.00 526.00
M 597.00 52.00 
C 600.93 50.40 608.14 50.30 612.00 52.00
C 618.88 51.38 625.68 57.97 631.74 55.74 C 637.52 49.74 644.97 56.08 645.00 63.00
C 645.00 66.00 645.00 69.00 645.00 72.00
C 642.82 83.35 628.04 88.61 628.01 101.01 C 625.57 112.97 623.25 125.34 615.00 135.00
C 612.13 138.64 608.64 142.23 605.00 145.00
C 579.34 167.03 547.53 181.91 513.00 181.00 C 502.34 180.12 484.63 181.06 481.00 170.00
C 481.15 166.01 491.10 168.86 495.00 168.00 C 500.50 168.65 507.33 166.68 512.00 169.00
C 546.47 168.94 579.64 155.81 605.00 133.00
C 607.54 129.70 610.69 126.44 614.00 124.00
C 620.34 117.98 622.47 108.85 624.78 100.78 C 624.59 91.32 632.25 82.98 628.00 74.00
C 626.48 72.04 626.28 66.89 628.00 65.00
C 627.82 58.60 618.66 59.95 614.00 59.00
C 609.67 59.00 605.33 59.00 601.00 59.00
C 590.78 59.43 581.12 62.08 571.00 63.00
C 568.00 63.00 565.00 63.00 562.00 63.00
C 548.87 61.48 533.76 56.46 527.00 44.00
C 547.88 56.36 573.42 57.02 597.00 52.00
M 506.00 57.00 
C 503.24 59.16 498.51 57.45 495.00 58.00
C 489.74 56.87 485.86 60.62 481.00 61.00
C 486.75 55.54 500.16 52.67 506.00 57.00
M 520.00 63.00 
C 526.22 81.44 486.18 94.14 484.00 73.00
C 497.02 73.38 509.41 70.25 520.00 63.00
M 568.00 107.00 
C 567.31 110.05 563.83 111.56 562.00 114.00
C 561.46 110.39 565.27 108.21 568.00 107.00
M 589.00 110.00 
C 588.25 113.19 578.76 119.45 578.00 114.00
C 581.97 113.61 585.14 110.78 589.00 110.00
M 632.00 249.00 
C 633.61 253.26 633.70 260.81 632.00 265.00
C 630.54 273.31 628.76 284.58 621.00 289.00
C 616.26 277.11 620.30 263.81 626.31 253.31 C 628.96 241.23 615.70 234.10 611.00 225.00
C 622.54 225.70 631.92 237.81 632.00 249.00
M 438.00 269.00 
C 445.21 285.59 457.83 299.38 469.92 313.08 C 475.44 318.61 485.51 335.00 473.00 337.00 C 450.03 318.78 443.42 286.98 432.00 263.00
C 441.00 264.92 450.14 266.39 459.67 266.33 C 470.11 262.82 476.34 281.07 462.93 276.07 C 454.81 273.06 446.36 271.26 438.00 269.00
M 423.00 322.00 
C 431.02 322.81 440.29 321.93 447.00 326.00
C 433.49 325.55 418.52 323.25 404.00 324.00
C 398.74 325.63 390.19 325.69 385.00 324.00
C 384.48 321.08 388.33 322.27 390.00 322.00
C 392.43 319.87 396.82 321.53 400.00 321.00
C 407.50 321.66 416.33 319.67 423.00 322.00
M 441.00 336.00 
C 439.01 341.90 429.66 338.27 424.93 340.93 C 418.43 340.52 412.03 343.55 406.00 342.00
C 416.60 337.59 429.76 339.43 441.00 336.00
M 584.00 390.00 
C 537.13 404.62 487.62 417.93 449.25 451.25 C 431.16 467.40 419.05 487.21 407.23 507.23 C 392.74 525.88 376.61 543.52 367.23 565.23 C 353.77 588.83 340.74 612.64 346.00 642.00 C 344.18 673.89 395.38 664.30 389.00 697.00
C 389.32 704.40 377.94 702.37 374.00 701.00
C 349.14 697.22 338.53 669.68 340.00 647.00
C 337.70 640.24 339.64 631.51 339.00 624.00
C 333.51 583.71 356.46 551.96 374.25 519.25 C 393.49 491.86 412.23 464.13 432.00 437.00
C 436.85 431.34 442.37 425.78 448.00 421.00
C 484.70 389.95 532.72 381.23 581.00 384.00
C 585.93 381.33 589.96 389.50 584.00 390.00
M 239.00 443.00 
C 291.56 453.91 303.67 525.73 284.69 568.69 C 280.28 592.73 267.34 612.97 256.00 634.00
C 257.00 634.11 258.73 633.53 259.00 635.00
C 274.54 638.71 290.41 649.09 296.32 664.68 C 307.16 681.09 295.55 706.44 274.00 702.00
C 269.41 703.62 261.52 703.70 257.00 702.00
C 238.88 702.16 221.77 698.30 204.00 697.00
C 200.67 697.00 197.33 697.00 194.00 697.00
C 177.57 697.60 162.23 702.52 146.00 704.00
C 150.80 695.52 165.54 695.46 174.22 690.22 C 198.63 679.73 224.34 690.42 250.00 690.00
C 256.67 690.00 263.33 690.00 270.00 690.00
C 279.17 690.44 300.10 686.86 293.08 673.92 C 280.14 654.30 256.98 647.53 235.33 644.67 C 226.09 636.79 206.74 655.15 209.00 636.00 C 222.57 620.83 240.99 608.96 249.92 589.92 C 260.62 571.94 279.12 554.97 277.22 532.78 C 276.71 521.20 270.56 511.14 264.00 502.00
C 260.20 499.62 257.76 495.32 254.00 493.00
C 244.33 484.64 232.68 479.15 220.00 478.00
C 216.67 478.00 213.33 478.00 210.00 478.00
C 189.03 479.17 171.44 491.95 153.00 500.00
C 156.67 489.78 170.17 483.67 178.00 476.00
C 179.33 471.84 170.93 477.01 168.32 477.32 C 164.19 479.12 160.40 481.92 156.00 483.00
C 167.33 458.68 196.61 445.87 222.00 443.00
C 226.59 441.38 234.48 441.30 239.00 443.00
M 582.00 542.00 
C 582.00 550.67 582.00 559.33 582.00 568.00
C 582.94 583.60 585.63 598.74 588.00 614.00
C 589.56 616.61 589.72 622.46 588.00 625.00
C 588.38 628.73 587.18 632.14 585.00 635.00
C 576.23 622.81 577.40 605.92 576.00 591.00
C 573.84 588.24 575.55 583.51 575.00 580.00
C 575.00 576.00 575.00 572.00 575.00 568.00
C 575.66 559.50 573.67 549.67 576.00 542.00
C 575.72 519.55 578.84 497.12 592.00 479.00
C 595.19 475.02 599.03 471.11 603.00 468.00
C 605.74 466.91 606.83 462.97 610.00 463.00
C 607.08 475.61 596.96 485.89 592.23 498.23 C 586.02 511.99 583.07 526.78 582.00 542.00
M 601.00 697.00 
C 594.08 698.64 583.85 698.68 577.00 697.00
C 555.09 697.42 535.95 688.15 516.92 679.08 C 508.46 673.92 490.70 680.73 488.00 669.00
C 507.55 671.49 526.51 663.14 547.00 666.00 C 584.59 667.77 625.43 670.25 657.00 649.00
C 659.54 645.70 662.69 642.44 666.00 640.00
C 674.27 631.24 660.37 621.90 652.97 619.03 C 642.36 614.79 629.86 615.10 619.92 620.92 C 606.60 626.03 630.58 644.47 613.00 645.00 C 599.50 629.95 604.38 597.95 624.23 588.23 C 659.51 572.79 688.16 617.96 676.22 649.22 C 669.79 683.33 631.54 695.98 601.00 697.00 Z"/>
</g>
<g fill="#000000" fill-opacity="0.96" stroke="None">
<path d="
M 407.00 17.00 
C 403.67 17.00 400.33 17.00 397.00 17.00
C 364.34 20.42 327.20 45.35 327.00 82.00
C 327.00 86.33 327.00 90.67 327.00 95.00
C 328.13 120.76 345.26 141.69 348.00 167.00 C 347.32 190.94 375.36 216.93 397.77 199.77 C 421.19 184.93 421.59 154.37 417.00 130.00
C 415.40 129.47 416.28 127.25 416.00 126.00
C 415.84 117.13 413.16 108.89 413.00 100.00
C 409.75 115.01 416.56 130.48 416.00 146.00
C 417.54 148.28 417.72 153.79 416.00 156.00
C 416.18 169.38 403.69 180.18 391.00 181.00
C 388.00 181.00 385.00 181.00 382.00 181.00
C 380.44 181.41 379.31 180.54 378.00 180.00
C 360.51 177.30 350.48 159.33 350.00 143.00
C 348.24 113.92 314.39 83.08 342.00 56.00
C 344.54 52.70 347.69 49.44 351.00 47.00
C 367.75 33.50 388.20 26.53 409.00 23.00
C 413.97 35.11 427.57 16.52 435.00 19.00
C 441.10 13.30 453.46 12.76 463.00 11.00
C 467.59 9.38 475.48 9.30 480.00 11.00
C 483.26 9.97 485.25 12.44 488.00 13.00
C 507.71 10.72 527.66 21.32 543.00 34.00
C 547.65 37.85 552.22 42.37 556.00 47.00
C 556.42 48.36 557.80 49.33 559.00 50.00
C 559.23 46.23 555.77 43.99 554.00 41.00
C 549.35 37.15 544.78 32.63 541.00 28.00
C 531.77 20.31 521.77 13.59 510.68 9.32 C 498.56 3.74 483.71 4.47 472.00 0.00
L 444.00 0.00
C 437.62 2.03 429.80 2.80 423.70 6.70 C 416.45 7.85 414.39 17.92 407.00 17.00 Z"/>
</g>
<g fill="#000000" fill-opacity="0.77" stroke="None">
<path d="
M 463.00 11.00 
C 468.67 11.00 474.33 11.00 480.00 11.00
C 475.48 9.30 467.59 9.38 463.00 11.00 Z"/>
</g>
<g fill="#000000" fill-opacity="0.40" stroke="None">
<path d="
M 435.00 19.00 
C 422.11 25.29 412.54 39.48 413.00 54.00
C 413.00 59.00 413.00 64.00 413.00 69.00
C 413.78 82.13 417.14 94.62 417.00 108.00
C 418.61 112.26 418.70 119.81 417.00 124.00
C 417.18 124.74 416.95 125.91 416.00 126.00
C 416.28 127.25 415.40 129.47 417.00 130.00
C 424.31 113.18 420.46 91.89 418.00 74.00
C 416.42 70.73 416.29 64.20 418.00 61.00
C 430.87 29.03 472.28 32.11 499.00 20.00 C 513.84 16.95 493.52 13.67 488.00 13.00
C 485.25 12.44 483.26 9.97 480.00 11.00
C 474.33 11.00 468.67 11.00 463.00 11.00
C 453.46 12.76 441.10 13.30 435.00 19.00 Z"/>
</g>
<g fill="#000000" fill-opacity="0.22" stroke="None">
<path d="
M 397.00 17.00 
C 400.33 17.00 403.67 17.00 407.00 17.00
C 404.79 15.28 399.28 15.46 397.00 17.00 Z"/>
</g>
<g fill="#000000" fill-opacity="0.01" stroke="None">
<path d="
M 351.00 47.00 
C 348.46 50.30 345.31 53.56 342.00 56.00
C 314.39 83.08 348.24 113.92 350.00 143.00
C 363.03 169.68 406.01 153.87 404.00 126.00
C 404.00 121.00 404.00 116.00 404.00 111.00
C 405.98 102.24 397.44 94.41 399.00 87.00
C 407.63 99.27 405.67 115.22 406.00 130.00
C 405.41 132.84 407.22 136.98 405.00 139.00
C 405.03 156.34 394.81 174.49 378.00 180.00
C 379.31 180.54 380.44 181.41 382.00 181.00
C 383.96 179.48 389.11 179.28 391.00 181.00
C 403.69 180.18 416.18 169.38 416.00 156.00
C 416.00 152.67 416.00 149.33 416.00 146.00
C 416.56 130.48 409.75 115.01 413.00 100.00
C 413.16 108.89 415.84 117.13 416.00 126.00
C 416.95 125.91 417.18 124.74 417.00 124.00
C 417.00 118.67 417.00 113.33 417.00 108.00
C 417.14 94.62 413.78 82.13 413.00 69.00
C 411.40 65.07 411.30 57.86 413.00 54.00
C 412.54 39.48 422.11 25.29 435.00 19.00
C 427.57 16.52 413.97 35.11 409.00 23.00
C 388.20 26.53 367.75 33.50 351.00 47.00 Z"/>
</g>
<g fill="#000000" fill-opacity="0.57" stroke="None">
<path d="
M 554.00 41.00 
C 550.22 36.37 545.65 31.85 541.00 28.00
C 544.78 32.63 549.35 37.15 554.00 41.00 Z"/>
</g>
<g fill="#000000" fill-opacity="0.22" stroke="None">
<path d="
M 556.00 47.00 
C 552.22 42.37 547.65 37.85 543.00 34.00
C 546.78 38.63 551.35 43.15 556.00 47.00 Z"/>
</g>
<g fill="#000000" fill-opacity="0.96" stroke="None">
<path d="
M 562.00 63.00 
C 563.96 61.48 569.11 61.28 571.00 63.00
C 581.12 62.08 590.78 59.43 601.00 59.00
C 604.27 57.42 610.80 57.29 614.00 59.00
C 618.66 59.95 627.82 58.60 628.00 65.00
C 628.00 68.00 628.00 71.00 628.00 74.00
C 632.25 82.98 624.59 91.32 624.78 100.78 C 622.47 108.85 620.34 117.98 614.00 124.00
C 611.46 127.30 608.31 130.56 605.00 133.00
C 579.64 155.81 546.47 168.94 512.00 169.00
C 501.83 169.67 490.34 167.67 481.00 170.00
C 484.63 181.06 502.34 180.12 513.00 181.00 C 547.53 181.91 579.34 167.03 605.00 145.00
C 607.87 141.36 611.36 137.77 615.00 135.00
C 623.25 125.34 625.57 112.97 628.01 101.01 C 628.04 88.61 642.82 83.35 645.00 72.00
C 643.48 70.04 643.28 64.89 645.00 63.00
C 644.97 56.08 637.52 49.74 631.74 55.74 C 625.68 57.97 618.88 51.38 612.00 52.00
C 607.00 52.00 602.00 52.00 597.00 52.00
C 573.42 57.02 547.88 56.36 527.00 44.00
C 533.76 56.46 548.87 61.48 562.00 63.00 Z"/>
</g>
<g fill="#000000" fill-opacity="0.21" stroke="None">
<path d="
M 342.00 56.00 
C 345.31 53.56 348.46 50.30 351.00 47.00
C 347.69 49.44 344.54 52.70 342.00 56.00 Z"/>
</g>
<g fill="#000000" fill-opacity="0.57" stroke="None">
<path d="
M 597.00 52.00 
C 602.00 52.00 607.00 52.00 612.00 52.00
C 608.14 50.30 600.93 50.40 597.00 52.00 Z"/>
</g>
<g fill="#000000" fill-opacity="0.15" stroke="None">
<path d="
M 413.00 69.00 
C 413.00 64.00 413.00 59.00 413.00 54.00
C 411.30 57.86 411.40 65.07 413.00 69.00 Z"/>
</g>
<g fill="#000000" fill-opacity="0.86" stroke="None">
<path d="
M 495.00 58.00 
C 497.76 55.84 502.49 57.55 506.00 57.00
C 500.16 52.67 486.75 55.54 481.00 61.00
C 485.86 60.62 489.74 56.87 495.00 58.00 Z"/>
</g>
<g fill="#000000" fill-opacity="0.19" stroke="None">
<path d="
M 495.00 58.00 
C 498.51 57.45 503.24 59.16 506.00 57.00
C 502.49 57.55 497.76 55.84 495.00 58.00 Z"/>
</g>
<g fill="#000000" fill-opacity="0.24" stroke="None">
<path d="
M 601.00 59.00 
C 605.33 59.00 609.67 59.00 614.00 59.00
C 610.80 57.29 604.27 57.42 601.00 59.00 Z"/>
</g>
<g fill="#000000" fill-opacity="0.20" stroke="None">
<path d="
M 418.00 74.00 
C 418.00 69.67 418.00 65.33 418.00 61.00
C 416.29 64.20 416.42 70.73 418.00 74.00 Z"/>
</g>
<g fill="#000000" fill-opacity="0.58" stroke="None">
<path d="
M 562.00 63.00 
C 565.00 63.00 568.00 63.00 571.00 63.00
C 569.11 61.28 563.96 61.48 562.00 63.00 Z"/>
</g>
<g fill="#000000" fill-opacity="0.94" stroke="None">
<path d="
M 520.00 63.00 
C 509.41 70.25 497.02 73.38 484.00 73.00
C 486.18 94.14 526.22 81.44 520.00 63.00 Z"/>
</g>
<g fill="#000000" fill-opacity="0.77" stroke="None">
<path d="
M 645.00 72.00 
C 645.00 69.00 645.00 66.00 645.00 63.00
C 643.28 64.89 643.48 70.04 645.00 72.00 Z"/>
</g>
<g fill="#000000" fill-opacity="0.23" stroke="None">
<path d="
M 628.00 74.00 
C 628.00 71.00 628.00 68.00 628.00 65.00
C 626.28 66.89 626.48 72.04 628.00 74.00 Z"/>
</g>
<g fill="#000000" fill-opacity="0.75" stroke="None">
<path d="
M 327.00 95.00 
C 327.00 90.67 327.00 86.33 327.00 82.00
C 325.29 85.20 325.41 91.73 327.00 95.00 Z"/>
</g>
<g fill="#000000" fill-opacity="0.40" stroke="None">
<path d="
M 404.00 111.00 
C 405.60 114.93 405.70 122.14 404.00 126.00
C 406.01 153.87 363.03 169.68 350.00 143.00
C 350.48 159.33 360.51 177.30 378.00 180.00
C 394.81 174.49 405.03 156.34 405.00 139.00
C 405.59 136.16 403.78 132.02 406.00 130.00
C 405.67 115.22 407.63 99.27 399.00 87.00
C 397.44 94.41 405.98 102.24 404.00 111.00 Z"/>
</g>
<g fill="#000000" fill-opacity="0.73" stroke="None">
<path d="
M 568.00 107.00 
C 565.27 108.21 561.46 110.39 562.00 114.00
C 563.83 111.56 567.31 110.05 568.00 107.00 Z"/>
</g>
<g fill="#000000" fill-opacity="0.25" stroke="None">
<path d="
M 417.00 124.00 
C 418.70 119.81 418.61 112.26 417.00 108.00
C 417.00 113.33 417.00 118.67 417.00 124.00 Z"/>
</g>
<g fill="#000000" fill-opacity="0.85" stroke="None">
<path d="
M 589.00 110.00 
C 585.14 110.78 581.97 113.61 578.00 114.00
C 578.76 119.45 588.25 113.19 589.00 110.00 Z"/>
</g>
<g fill="#000000" fill-opacity="0.14" stroke="None">
<path d="
M 404.00 126.00 
C 405.70 122.14 405.60 114.93 404.00 111.00
C 404.00 116.00 404.00 121.00 404.00 126.00 Z"/>
</g>
<g fill="#000000" fill-opacity="0.27" stroke="None">
<path d="
M 605.00 133.00 
C 608.31 130.56 611.46 127.30 614.00 124.00
C 610.69 126.44 607.54 129.70 605.00 133.00 Z"/>
</g>
<g fill="#000000" fill-opacity="0.17" stroke="None">
<path d="
M 405.00 139.00 
C 407.22 136.98 405.41 132.84 406.00 130.00
C 403.78 132.02 405.59 136.16 405.00 139.00 Z"/>
</g>
<g fill="#000000" fill-opacity="0.33" stroke="None">
<path d="
M 605.00 145.00 
C 608.64 142.23 612.13 138.64 615.00 135.00
C 611.36 137.77 607.87 141.36 605.00 145.00 Z"/>
</g>
<g fill="#000000" fill-opacity="0.81" stroke="None">
<path d="
M 416.00 156.00 
C 417.72 153.79 417.54 148.28 416.00 146.00
C 416.00 149.33 416.00 152.67 416.00 156.00 Z"/>
</g>
<g fill="#000000" fill-opacity="0.19" stroke="None">
<path d="
M 481.00 170.00 
C 490.34 167.67 501.83 169.67 512.00 169.00
C 507.33 166.68 500.50 168.65 495.00 168.00 C 491.10 168.86 481.15 166.01 481.00 170.00 Z"/>
</g>
<g fill="#000000" fill-opacity="0.23" stroke="None">
<path d="
M 382.00 181.00 
C 385.00 181.00 388.00 181.00 391.00 181.00
C 389.11 179.28 383.96 179.48 382.00 181.00 Z"/>
</g>
<g fill="#000000" fill-opacity="0.35" stroke="None">
<path d="
M 324.00 188.00 
C 327.10 187.06 328.66 181.05 332.00 183.00
C 330.66 178.36 325.82 186.12 324.00 188.00 Z"/>
</g>
<g fill="#000000" fill-opacity="0.97" stroke="None">
<path d="
M 324.00 188.00 
C 309.03 213.48 307.60 245.78 284.00 267.00
C 278.16 273.66 271.63 280.22 265.00 286.00
C 247.54 301.80 229.42 317.03 211.00 331.00
C 207.15 335.65 202.63 340.22 198.00 344.00
C 182.96 362.41 168.68 381.73 153.00 400.00
C 148.48 405.32 143.30 410.55 138.00 415.00
C 133.74 418.58 129.58 423.34 125.00 427.00
C 120.82 431.99 115.96 436.89 111.00 441.00
C 74.64 479.72 65.59 533.16 62.00 584.00
C 61.51 592.96 63.07 601.38 64.00 610.00
C 48.68 603.25 35.32 591.48 23.00 580.00
C 12.59 571.74 8.16 558.75 7.00 546.00
C 5.43 543.06 5.29 536.87 7.00 534.00
C 7.00 533.50 6.99 532.50 7.00 532.00
C 8.94 508.73 20.21 487.80 34.92 469.92 C 50.90 451.76 59.00 428.32 61.00 405.00
C 61.00 403.67 61.00 402.33 61.00 401.00
C 59.41 397.40 59.29 390.53 61.00 387.00
C 60.56 373.79 57.70 360.74 50.00 350.00
C 45.68 346.48 41.44 342.30 38.00 338.00
C 32.97 336.68 29.64 330.63 24.00 331.00
C 23.59 338.12 31.63 341.57 35.00 347.00
C 45.44 359.69 51.33 375.06 54.00 391.00
C 54.00 394.33 54.00 397.67 54.00 401.00
C 50.80 423.66 33.84 440.27 21.75 458.75 C 6.75 478.00 4.33 503.20 0.00 526.00
L 0.00 529.00
C 1.52 530.96 1.72 536.11 0.00 538.00
L 0.00 557.00
C 3.37 561.29 3.25 568.23 7.00 573.00
C 14.66 579.84 22.22 587.38 29.00 595.00
C 38.58 603.68 48.54 612.64 60.97 616.03 C 71.59 621.94 70.84 639.26 82.25 646.75 C 91.17 656.44 102.54 663.34 115.00 666.00
C 116.35 656.65 104.84 654.33 100.00 648.00
C 95.35 644.15 90.78 639.63 87.00 635.00
C 79.62 625.17 71.68 615.13 69.00 603.00
C 66.55 600.55 69.37 595.80 67.00 593.00
C 67.00 593.00 67.00 592.50 67.00 592.00
C 65.42 588.73 65.29 582.20 67.00 579.00
C 68.32 534.17 83.21 491.21 114.00 458.00
C 116.54 454.70 119.69 451.44 123.00 449.00
C 127.87 446.26 131.86 441.53 136.00 438.00
C 140.18 433.01 145.04 428.11 150.00 424.00
C 167.05 404.97 181.77 384.59 198.00 365.00
C 202.52 359.68 207.70 354.45 213.00 350.00
C 229.51 336.58 245.88 323.13 262.00 309.00
C 266.52 303.68 271.70 298.45 277.00 294.00
C 310.62 264.29 306.66 216.53 332.00 183.00
C 328.66 181.05 327.10 187.06 324.00 188.00 Z"/>
</g>
<g fill="#000000" fill-opacity="0.96" stroke="None">
<path d="
M 547.00 223.00 
C 542.67 223.00 538.33 223.00 534.00 223.00
C 513.22 224.02 495.81 234.62 478.22 244.22 C 457.09 251.92 440.17 232.16 421.00 228.00
C 420.06 231.11 417.80 233.72 417.00 237.00
C 417.00 241.00 417.00 245.00 417.00 249.00
C 421.02 271.44 433.67 290.98 442.00 312.00
C 426.41 311.00 413.64 301.02 399.00 297.00
C 408.30 305.63 423.57 309.49 435.99 314.01 C 450.14 315.70 450.05 335.24 458.08 344.92 C 464.24 356.44 470.46 368.27 476.00 380.00
C 460.17 382.72 446.19 391.45 434.00 402.00
C 430.81 405.98 426.97 409.89 423.00 413.00
C 405.85 433.12 392.23 455.44 378.77 477.77 C 345.23 524.29 317.15 579.70 328.67 639.33 C 333.91 666.85 333.47 700.69 356.00 720.00
L 365.00 720.00
C 366.98 717.28 371.30 716.97 373.00 714.00
C 374.96 712.48 380.11 712.28 382.00 714.00
C 408.87 709.86 434.15 699.52 462.00 699.00
C 467.92 697.37 477.15 697.31 483.00 699.00
C 520.11 703.18 555.21 715.36 593.00 717.00
C 597.59 715.38 605.48 715.30 610.00 717.00
C 632.38 715.66 654.50 709.45 672.00 695.00
C 674.87 691.36 678.36 687.77 682.00 685.00
C 694.49 670.79 701.16 652.60 705.00 635.00
L 705.00 609.00
C 702.54 586.49 682.16 566.84 659.00 566.00
C 655.67 566.00 652.33 566.00 649.00 566.00
C 634.92 564.89 642.82 580.39 652.92 578.08 C 660.09 581.23 667.77 583.24 674.31 587.70 C 708.99 601.18 703.89 645.18 681.00 667.00
C 678.46 670.30 675.31 673.56 672.00 676.00
C 653.79 691.46 630.67 698.92 607.00 700.00
C 601.00 700.00 595.00 700.00 589.00 700.00
C 557.56 698.37 527.64 690.77 496.00 690.00
C 487.67 690.00 479.33 690.00 471.00 690.00
C 446.76 691.42 423.15 695.39 400.01 701.01 C 380.83 707.02 354.45 705.82 344.77 684.23 C 335.27 663.34 333.59 639.87 331.00 617.00
C 329.42 613.73 329.29 607.20 331.00 604.00
C 332.60 568.26 350.95 537.01 369.70 507.70 C 386.40 479.83 401.78 451.21 423.00 426.00
C 425.87 422.36 429.36 418.77 433.00 416.00
C 440.47 410.41 447.59 404.19 455.75 399.75 C 462.55 393.09 475.46 392.44 479.00 384.00
C 481.35 386.23 482.33 390.69 486.00 391.00
C 492.23 370.04 472.03 356.08 465.77 338.23 C 450.98 304.23 423.77 274.49 419.00 237.00
C 436.09 242.96 450.83 256.77 470.00 256.00 C 488.16 254.42 501.43 238.68 519.78 236.78 C 539.29 227.07 560.10 244.00 578.25 237.25 C 588.23 222.57 605.19 216.95 620.31 210.31 C 631.41 203.21 630.05 221.59 633.02 227.98 C 635.47 237.21 637.56 246.52 639.00 256.00
C 639.00 259.67 639.00 263.33 639.00 267.00
C 639.12 275.27 633.93 283.95 634.00 291.00
C 638.32 284.92 639.96 275.53 641.00 267.00
C 639.46 264.72 639.28 259.21 641.00 257.00
C 638.72 236.46 633.36 216.64 628.00 197.00
C 614.07 202.11 599.27 205.98 587.25 215.25 C 577.93 231.29 561.21 228.25 547.00 223.00 Z"/>
</g>
<g fill="#000000" fill-opacity="0.25" stroke="None">
<path d="
M 534.00 223.00 
C 538.33 223.00 542.67 223.00 547.00 223.00
C 543.80 221.29 537.27 221.42 534.00 223.00 Z"/>
</g>
<g fill="#000000" fill-opacity="0.40" stroke="None">
<path d="
M 632.00 265.00 
C 632.00 259.67 632.00 254.33 632.00 249.00
C 631.92 237.81 622.54 225.70 611.00 225.00
C 615.70 234.10 628.96 241.23 626.31 253.31 C 620.30 263.81 616.26 277.11 621.00 289.00
C 628.76 284.58 630.54 273.31 632.00 265.00 Z"/>
</g>
<g fill="#000000" fill-opacity="0.36" stroke="None">
<path d="
M 417.00 249.00 
C 417.00 245.00 417.00 241.00 417.00 237.00
C 415.29 239.87 415.43 246.06 417.00 249.00 Z"/>
</g>
<g fill="#000000" fill-opacity="0.24" stroke="None">
<path d="
M 632.00 265.00 
C 633.70 260.81 633.61 253.26 632.00 249.00
C 632.00 254.33 632.00 259.67 632.00 265.00 Z"/>
</g>
<g fill="#000000" fill-opacity="0.36" stroke="None">
<path d="
M 639.00 267.00 
C 639.00 263.33 639.00 259.67 639.00 256.00
C 637.28 258.54 637.44 264.39 639.00 267.00 Z"/>
</g>
<g fill="#000000" fill-opacity="0.51" stroke="None">
<path d="
M 641.00 267.00 
C 641.00 263.67 641.00 260.33 641.00 257.00
C 639.28 259.21 639.46 264.72 641.00 267.00 Z"/>
</g>
<g fill="#000000" fill-opacity="0.40" stroke="None">
<path d="
M 438.00 269.00 
C 446.36 271.26 454.81 273.06 462.93 276.07 C 476.34 281.07 470.11 262.82 459.67 266.33 C 450.14 266.39 441.00 264.92 432.00 263.00
C 443.42 286.98 450.03 318.78 473.00 337.00 C 485.51 335.00 475.44 318.61 469.92 313.08 C 457.83 299.38 445.21 285.59 438.00 269.00 Z"/>
</g>
<g fill="#000000" fill-opacity="0.58" stroke="None">
<path d="
M 265.00 286.00 
C 271.63 280.22 278.16 273.66 284.00 267.00
C 277.37 272.78 270.84 279.34 265.00 286.00 Z"/>
</g>
<g fill="#000000" fill-opacity="0.28" stroke="None">
<path d="
M 262.00 309.00 
C 267.30 304.55 272.48 299.32 277.00 294.00
C 271.70 298.45 266.52 303.68 262.00 309.00 Z"/>
</g>
<g fill="#000000" fill-opacity="0.22" stroke="None">
<path d="
M 390.00 322.00 
C 393.33 322.00 396.67 322.00 400.00 322.00
C 399.96 322.00 400.00 321.00 400.00 321.00
C 396.82 321.53 392.43 319.87 390.00 322.00 Z"/>
</g>
<g fill="#000000" fill-opacity="0.44" stroke="None">
<path d="
M 400.00 322.00 
C 407.67 322.00 415.33 322.00 423.00 322.00
C 416.33 319.67 407.50 321.66 400.00 321.00
C 400.00 321.00 399.96 322.00 400.00 322.00 Z"/>
</g>
<g fill="#000000" fill-opacity="0.89" stroke="None">
<path d="
M 385.00 324.00 
C 391.33 324.00 397.67 324.00 404.00 324.00
C 418.52 323.25 433.49 325.55 447.00 326.00
C 440.29 321.93 431.02 322.81 423.00 322.00
C 415.33 322.00 407.67 322.00 400.00 322.00
C 396.67 322.00 393.33 322.00 390.00 322.00
C 388.33 322.27 384.48 321.08 385.00 324.00 Z"/>
</g>
<g fill="#000000" fill-opacity="0.21" stroke="None">
<path d="
M 404.00 324.00 
C 397.67 324.00 391.33 324.00 385.00 324.00
C 390.19 325.69 398.74 325.63 404.00 324.00 Z"/>
</g>
<g fill="#000000" fill-opacity="0.26" stroke="None">
<path d="
M 37.00 329.00 
C 40.67 329.00 44.33 329.00 48.00 329.00
C 45.46 327.28 39.61 327.44 37.00 329.00 Z"/>
</g>
<g fill="#000000" fill-opacity="0.41" stroke="None">
<path d="
M 35.00 347.00 
C 31.63 341.57 23.59 338.12 24.00 331.00
C 29.64 330.63 32.97 336.68 38.00 338.00
C 40.04 338.81 40.97 341.27 43.00 342.00
C 59.19 353.43 72.70 374.09 66.07 394.07 C 65.34 397.09 62.15 407.89 61.00 405.00
C 59.00 428.32 50.90 451.76 34.92 469.92 C 20.21 487.80 8.94 508.73 7.00 532.00
C 7.34 548.78 14.76 567.00 23.00 580.00
C 35.32 591.48 48.68 603.25 64.00 610.00
C 63.07 601.38 61.51 592.96 62.00 584.00
C 57.04 576.34 47.56 574.04 41.00 568.00
C 36.35 564.15 31.78 559.63 28.00 555.00
C 18.68 543.50 10.13 528.63 21.23 515.23 C 45.20 477.39 70.55 437.41 75.00 392.00
C 75.00 387.33 75.00 382.67 75.00 378.00
C 74.51 359.21 70.00 333.00 48.00 329.00
C 44.33 329.00 40.67 329.00 37.00 329.00
C 31.53 330.90 20.88 326.65 21.00 335.00
C 26.74 335.38 24.24 341.26 26.00 345.00
C 29.87 341.38 31.20 343.67 35.00 347.00 Z"/>
</g>
<g fill="#000000" fill-opacity="0.17" stroke="None">
<path d="
M 198.00 344.00 
C 202.63 340.22 207.15 335.65 211.00 331.00
C 206.37 334.78 201.85 339.35 198.00 344.00 Z"/>
</g>
<g fill="#000000" fill-opacity="0.80" stroke="None">
<path d="
M 441.00 336.00 
C 429.76 339.43 416.60 337.59 406.00 342.00
C 412.03 343.55 418.43 340.52 424.93 340.93 C 429.66 338.27 439.01 341.90 441.00 336.00 Z"/>
</g>
<g fill="#000000" fill-opacity="0.62" stroke="None">
<path d="
M 50.00 350.00 
C 48.27 346.89 44.67 345.08 43.00 342.00
C 40.97 341.27 40.04 338.81 38.00 338.00
C 41.44 342.30 45.68 346.48 50.00 350.00 Z"/>
</g>
<g fill="#000000" fill-opacity="0.02" stroke="None">
<path d="
M 50.00 350.00 
C 57.70 360.74 60.56 373.79 61.00 387.00
C 61.00 391.67 61.00 396.33 61.00 401.00
C 61.00 402.33 61.00 403.67 61.00 405.00
C 62.15 407.89 65.34 397.09 66.07 394.07 C 72.70 374.09 59.19 353.43 43.00 342.00
C 44.67 345.08 48.27 346.89 50.00 350.00 Z"/>
</g>
<g fill="#000000" fill-opacity="0.56" stroke="None">
<path d="
M 198.00 365.00 
C 203.30 360.55 208.48 355.32 213.00 350.00
C 207.70 354.45 202.52 359.68 198.00 365.00 Z"/>
</g>
<g fill="#000000" fill-opacity="0.18" stroke="None">
<path d="
M 75.00 392.00 
C 76.71 388.47 76.59 381.60 75.00 378.00
C 75.00 382.67 75.00 387.33 75.00 392.00 Z"/>
</g>
<g fill="#000000" fill-opacity="0.40" stroke="None">
<path d="
M 448.00 421.00 
C 443.15 426.66 437.63 432.22 432.00 437.00
C 412.23 464.13 393.49 491.86 374.25 519.25 C 356.46 551.96 333.51 583.71 339.00 624.00
C 341.30 630.76 339.36 639.49 340.00 647.00
C 338.53 669.68 349.14 697.22 374.00 701.00
C 379.20 700.29 387.42 703.44 389.00 697.00
C 395.38 664.30 344.18 673.89 346.00 642.00 C 340.74 612.64 353.77 588.83 367.23 565.23 C 376.61 543.52 392.74 525.88 407.23 507.23 C 419.05 487.21 431.16 467.40 449.25 451.25 C 487.62 417.93 537.13 404.62 584.00 390.00
C 585.77 389.02 586.35 387.20 586.00 385.00
C 584.43 384.61 581.78 385.94 581.00 384.00
C 532.72 381.23 484.70 389.95 448.00 421.00 Z"/>
</g>
<g fill="#000000" fill-opacity="0.23" stroke="None">
<path d="
M 584.00 390.00 
C 589.96 389.50 585.93 381.33 581.00 384.00
C 581.78 385.94 584.43 384.61 586.00 385.00
C 586.35 387.20 585.77 389.02 584.00 390.00 Z"/>
</g>
<g fill="#000000" fill-opacity="0.84" stroke="None">
<path d="
M 61.00 401.00 
C 61.00 396.33 61.00 391.67 61.00 387.00
C 59.29 390.53 59.41 397.40 61.00 401.00 Z"/>
</g>
<g fill="#000000" fill-opacity="0.53" stroke="None">
<path d="
M 54.00 401.00 
C 54.00 397.67 54.00 394.33 54.00 391.00
C 52.28 393.21 52.46 398.72 54.00 401.00 Z"/>
</g>
<g fill="#000000" fill-opacity="0.54" stroke="None">
<path d="
M 138.00 415.00 
C 143.30 410.55 148.48 405.32 153.00 400.00
C 147.70 404.45 142.52 409.68 138.00 415.00 Z"/>
</g>
<g fill="#000000" fill-opacity="0.72" stroke="None">
<path d="
M 423.00 413.00 
C 426.97 409.89 430.81 405.98 434.00 402.00
C 430.03 405.11 426.19 409.02 423.00 413.00 Z"/>
</g>
<g fill="#000000" fill-opacity="0.45" stroke="None">
<path d="
M 423.00 426.00 
C 426.64 423.23 430.13 419.64 433.00 416.00
C 429.36 418.77 425.87 422.36 423.00 426.00 Z"/>
</g>
<g fill="#000000" fill-opacity="0.27" stroke="None">
<path d="
M 432.00 437.00 
C 437.63 432.22 443.15 426.66 448.00 421.00
C 442.37 425.78 436.85 431.34 432.00 437.00 Z"/>
</g>
<g fill="#000000" fill-opacity="0.51" stroke="None">
<path d="
M 136.00 438.00 
C 140.96 433.89 145.82 428.99 150.00 424.00
C 145.04 428.11 140.18 433.01 136.00 438.00 Z"/>
</g>
<g fill="#000000" fill-opacity="0.83" stroke="None">
<path d="
M 111.00 441.00 
C 115.96 436.89 120.82 431.99 125.00 427.00
C 120.04 431.11 115.18 436.01 111.00 441.00 Z"/>
</g>
<g fill="#000000" fill-opacity="0.25" stroke="None">
<path d="
M 222.00 443.00 
C 227.67 443.00 233.33 443.00 239.00 443.00
C 234.48 441.30 226.59 441.38 222.00 443.00 Z"/>
</g>
<g fill="#000000" fill-opacity="0.41" stroke="None">
<path d="
M 178.00 476.00 
C 196.74 460.04 225.98 453.50 247.00 469.00
C 259.17 470.36 271.30 483.90 276.31 495.70 C 282.46 508.85 291.72 524.49 282.00 538.00
C 281.72 539.28 282.76 541.50 281.00 542.00
C 280.16 566.08 264.68 585.69 252.00 605.00
C 252.88 608.47 248.02 612.67 246.00 616.00
C 245.76 616.32 246.00 617.00 246.00 617.00
C 246.00 621.67 246.00 626.33 246.00 631.00
C 246.00 631.50 245.75 632.75 246.00 633.00
C 250.14 634.36 254.77 633.88 259.00 635.00
C 258.73 633.53 257.00 634.11 256.00 634.00
C 267.34 612.97 280.28 592.73 284.69 568.69 C 303.67 525.73 291.56 453.91 239.00 443.00
C 233.33 443.00 227.67 443.00 222.00 443.00
C 196.61 445.87 167.33 458.68 156.00 483.00
C 160.40 481.92 164.19 479.12 168.32 477.32 C 170.93 477.01 179.33 471.84 178.00 476.00 Z"/>
</g>
<g fill="#000000" fill-opacity="0.74" stroke="None">
<path d="
M 114.00 458.00 
C 117.31 455.56 120.46 452.30 123.00 449.00
C 119.69 451.44 116.54 454.70 114.00 458.00 Z"/>
</g>
<g fill="#000000" fill-opacity="0.97" stroke="None">
<path d="
M 178.00 476.00 
C 170.17 483.67 156.67 489.78 153.00 500.00
C 171.44 491.95 189.03 479.17 210.00 478.00
C 212.28 476.46 217.79 476.28 220.00 478.00
C 232.68 479.15 244.33 484.64 254.00 493.00
C 257.18 493.08 261.32 499.11 264.00 502.00
C 270.56 511.14 276.71 521.20 277.22 532.78 C 279.12 554.97 260.62 571.94 249.92 589.92 C 240.99 608.96 222.57 620.83 209.00 636.00 C 206.74 655.15 226.09 636.79 235.33 644.67 C 256.98 647.53 280.14 654.30 293.08 673.92 C 300.10 686.86 279.17 690.44 270.00 690.00
C 264.41 691.63 255.52 691.69 250.00 690.00
C 224.34 690.42 198.63 679.73 174.22 690.22 C 165.54 695.46 150.80 695.52 146.00 704.00
C 162.23 702.52 177.57 697.60 194.00 697.00
C 196.28 695.46 201.79 695.28 204.00 697.00
C 221.77 698.30 238.88 702.16 257.00 702.00
C 262.67 702.00 268.33 702.00 274.00 702.00
C 295.55 706.44 307.16 681.09 296.32 664.68 C 290.41 649.09 274.54 638.71 259.00 635.00
C 254.77 633.88 250.14 634.36 246.00 633.00
C 241.19 632.83 236.51 632.94 232.00 634.00
C 235.49 627.73 241.39 622.12 245.00 616.00
C 246.92 612.05 249.71 608.71 252.00 605.00
C 264.68 585.69 280.16 566.08 281.00 542.00
C 281.64 537.50 279.70 531.67 282.00 528.00
C 280.24 504.58 267.66 481.65 247.00 469.00
C 225.98 453.50 196.74 460.04 178.00 476.00 Z"/>
</g>
<g fill="#000000" fill-opacity="0.96" stroke="None">
<path d="
M 603.00 468.00 
C 599.81 471.98 595.97 475.89 592.00 479.00
C 578.84 497.12 575.72 519.55 576.00 542.00
C 576.00 550.67 576.00 559.33 576.00 568.00
C 576.00 572.00 576.00 576.00 576.00 580.00
C 576.00 583.67 576.00 587.33 576.00 591.00
C 577.40 605.92 576.23 622.81 585.00 635.00
C 587.18 632.14 588.38 628.73 588.00 625.00
C 588.00 621.33 588.00 617.67 588.00 614.00
C 585.63 598.74 582.94 583.60 582.00 568.00
C 580.36 560.41 580.32 549.52 582.00 542.00
C 583.07 526.78 586.02 511.99 592.23 498.23 C 596.96 485.89 607.08 475.61 610.00 463.00
C 606.83 462.97 605.74 466.91 603.00 468.00 Z"/>
</g>
<g fill="#000000" fill-opacity="0.04" stroke="None">
<path d="
M 247.00 469.00 
C 267.66 481.65 280.24 504.58 282.00 528.00
C 282.00 531.33 282.00 534.67 282.00 538.00
C 291.72 524.49 282.46 508.85 276.31 495.70 C 271.30 483.90 259.17 470.36 247.00 469.00 Z"/>
</g>
<g fill="#000000" fill-opacity="0.46" stroke="None">
<path d="
M 592.00 479.00 
C 595.97 475.89 599.81 471.98 603.00 468.00
C 599.03 471.11 595.19 475.02 592.00 479.00 Z"/>
</g>
<g fill="#000000" fill-opacity="0.53" stroke="None">
<path d="
M 210.00 478.00 
C 213.33 478.00 216.67 478.00 220.00 478.00
C 217.79 476.28 212.28 476.46 210.00 478.00 Z"/>
</g>
<g fill="#000000" fill-opacity="0.67" stroke="None">
<path d="
M 254.00 493.00 
C 257.76 495.32 260.20 499.62 264.00 502.00
C 261.32 499.11 257.18 493.08 254.00 493.00 Z"/>
</g>
<g fill="#000000" fill-opacity="0.73" stroke="None">
<path d="
M 281.00 542.00 
C 282.76 541.50 281.72 539.28 282.00 538.00
C 282.00 534.67 282.00 531.33 282.00 528.00
C 279.70 531.67 281.64 537.50 281.00 542.00 Z"/>
</g>
<g fill="#000000" fill-opacity="0.78" stroke="None">
<path d="
M 0.00 538.00 
C 1.72 536.11 1.52 530.96 0.00 529.00
L 0.00 538.00 Z"/>
</g>
<g fill="#000000" fill-opacity="0.09" stroke="None">
<path d="
M 7.00 534.00 
C 7.00 538.00 7.00 542.00 7.00 546.00
C 8.16 558.75 12.59 571.74 23.00 580.00
C 14.76 567.00 7.34 548.78 7.00 532.00
C 6.99 532.50 7.00 533.50 7.00 534.00 Z"/>
</g>
<g fill="#000000" fill-opacity="0.49" stroke="None">
<path d="
M 7.00 546.00 
C 7.00 542.00 7.00 538.00 7.00 534.00
C 5.29 536.87 5.43 543.06 7.00 546.00 Z"/>
</g>
<g fill="#000000" fill-opacity="0.82" stroke="None">
<path d="
M 575.00 568.00 
C 575.00 567.96 576.00 568.00 576.00 568.00
C 576.00 559.33 576.00 550.67 576.00 542.00
C 573.67 549.67 575.66 559.50 575.00 568.00 Z"/>
</g>
<g fill="#000000" fill-opacity="0.77" stroke="None">
<path d="
M 582.00 568.00 
C 582.00 559.33 582.00 550.67 582.00 542.00
C 580.32 549.52 580.36 560.41 582.00 568.00 Z"/>
</g>
<g fill="#000000" fill-opacity="0.24" stroke="None">
<path d="
M 41.00 568.00 
C 37.22 563.37 32.65 558.85 28.00 555.00
C 31.78 559.63 36.35 564.15 41.00 568.00 Z"/>
</g>
<g fill="#000000" fill-opacity="0.37" stroke="None">
<path d="
M 649.00 566.00 
C 652.33 566.00 655.67 566.00 659.00 566.00
C 656.79 564.28 651.28 564.46 649.00 566.00 Z"/>
</g>
<g fill="#000000" fill-opacity="0.61" stroke="None">
<path d="
M 575.00 580.00 
C 575.00 579.96 576.00 580.00 576.00 580.00
C 576.00 576.00 576.00 572.00 576.00 568.00
C 576.00 568.00 575.00 567.96 575.00 568.00
C 575.00 572.00 575.00 576.00 575.00 580.00 Z"/>
</g>
<g fill="#000000" fill-opacity="0.76" stroke="None">
<path d="
M 29.00 595.00 
C 22.22 587.38 14.66 579.84 7.00 573.00
C 13.78 580.63 21.34 588.16 29.00 595.00 Z"/>
</g>
<g fill="#000000" fill-opacity="0.49" stroke="None">
<path d="
M 67.00 592.00 
C 67.00 587.67 67.00 583.33 67.00 579.00
C 65.29 582.20 65.42 588.73 67.00 592.00 Z"/>
</g>
<g fill="#000000" fill-opacity="0.30" stroke="None">
<path d="
M 576.00 591.00 
C 576.00 587.33 576.00 583.67 576.00 580.00
C 576.00 580.00 575.00 579.96 575.00 580.00
C 575.55 583.51 573.84 588.24 576.00 591.00 Z"/>
</g>
<g fill="#000000" fill-opacity="0.40" stroke="None">
<path d="
M 666.00 640.00 
C 663.46 643.30 660.31 646.56 657.00 649.00
C 625.43 670.25 584.59 667.77 547.00 666.00 C 526.51 663.14 507.55 671.49 488.00 669.00
C 490.70 680.73 508.46 673.92 516.92 679.08 C 535.95 688.15 555.09 697.42 577.00 697.00
C 585.00 697.00 593.00 697.00 601.00 697.00
C 631.54 695.98 669.79 683.33 676.22 649.22 C 688.16 617.96 659.51 572.79 624.23 588.23 C 604.38 597.95 599.50 629.95 613.00 645.00 C 630.58 644.47 606.60 626.03 619.92 620.92 C 629.86 615.10 642.36 614.79 652.97 619.03 C 660.37 621.90 674.27 631.24 666.00 640.00 Z"/>
</g>
<g fill="#000000" fill-opacity="0.29" stroke="None">
<path d="
M 69.00 603.00 
C 68.33 599.79 70.68 594.74 67.00 593.00
C 69.37 595.80 66.55 600.55 69.00 603.00 Z"/>
</g>
<g fill="#000000" fill-opacity="0.53" stroke="None">
<path d="
M 331.00 617.00 
C 331.00 612.67 331.00 608.33 331.00 604.00
C 329.29 607.20 329.42 613.73 331.00 617.00 Z"/>
</g>
<g fill="#000000" fill-opacity="0.21" stroke="None">
<path d="
M 245.00 616.00 
C 245.28 615.75 246.00 616.00 246.00 616.00
C 248.02 612.67 252.88 608.47 252.00 605.00
C 249.71 608.71 246.92 612.05 245.00 616.00 Z"/>
</g>
<g fill="#000000" fill-opacity="0.27" stroke="None">
<path d="
M 588.00 625.00 
C 589.72 622.46 589.56 616.61 588.00 614.00
C 588.00 617.67 588.00 621.33 588.00 625.00 Z"/>
</g>
<g fill="#000000" fill-opacity="0.04" stroke="None">
<path d="
M 246.00 633.00 
C 245.75 632.75 246.00 631.50 246.00 631.00
C 244.41 627.40 244.29 620.53 246.00 617.00
C 246.00 617.00 245.76 616.32 246.00 616.00
C 246.00 616.00 245.28 615.75 245.00 616.00
C 241.39 622.12 235.49 627.73 232.00 634.00
C 236.51 632.94 241.19 632.83 246.00 633.00 Z"/>
</g>
<g fill="#000000" fill-opacity="0.22" stroke="None">
<path d="
M 246.00 631.00 
C 246.00 626.33 246.00 621.67 246.00 617.00
C 244.29 620.53 244.41 627.40 246.00 631.00 Z"/>
</g>
<g fill="#000000" fill-opacity="0.20" stroke="None">
<path d="
M 340.00 647.00 
C 339.36 639.49 341.30 630.76 339.00 624.00
C 339.64 631.51 337.70 640.24 340.00 647.00 Z"/>
</g>
<g fill="#000000" fill-opacity="0.68" stroke="None">
<path d="
M 100.00 648.00 
C 96.22 643.37 91.65 638.85 87.00 635.00
C 90.78 639.63 95.35 644.15 100.00 648.00 Z"/>
</g>
<g fill="#000000" fill-opacity="0.00" stroke="None">
<path d="
M 682.00 685.00 
C 679.13 688.64 675.64 692.23 672.00 695.00
C 654.50 709.45 632.38 715.66 610.00 717.00
C 604.33 717.00 598.67 717.00 593.00 717.00
C 555.21 715.36 520.11 703.18 483.00 699.00
C 476.00 699.00 469.00 699.00 462.00 699.00
C 434.15 699.52 408.87 709.86 382.00 714.00
C 379.00 714.00 376.00 714.00 373.00 714.00
C 371.30 716.97 366.98 717.28 365.00 720.00
L 705.00 720.00
L 705.00 635.00
C 701.16 652.60 694.49 670.79 682.00 685.00 Z"/>
</g>
<g fill="#000000" fill-opacity="0.18" stroke="None">
<path d="
M 657.00 649.00 
C 660.31 646.56 663.46 643.30 666.00 640.00
C 662.69 642.44 659.54 645.70 657.00 649.00 Z"/>
</g>
<g fill="#000000" fill-opacity="0.80" stroke="None">
<path d="
M 672.00 676.00 
C 675.31 673.56 678.46 670.30 681.00 667.00
C 677.69 669.44 674.54 672.70 672.00 676.00 Z"/>
</g>
<g fill="#000000" fill-opacity="0.38" stroke="None">
<path d="
M 672.00 695.00 
C 675.64 692.23 679.13 688.64 682.00 685.00
C 678.36 687.77 674.87 691.36 672.00 695.00 Z"/>
</g>
<g fill="#000000" fill-opacity="0.33" stroke="None">
<path d="
M 471.00 690.00 
C 479.33 690.00 487.67 690.00 496.00 690.00
C 488.81 688.32 478.26 688.36 471.00 690.00 Z"/>
</g>
<g fill="#000000" fill-opacity="0.70" stroke="None">
<path d="
M 270.00 690.00 
C 263.33 690.00 256.67 690.00 250.00 690.00
C 255.52 691.69 264.41 691.63 270.00 690.00 Z"/>
</g>
<g fill="#000000" fill-opacity="0.35" stroke="None">
<path d="
M 194.00 697.00 
C 197.33 697.00 200.67 697.00 204.00 697.00
C 201.79 695.28 196.28 695.46 194.00 697.00 Z"/>
</g>
<g fill="#000000" fill-opacity="0.20" stroke="None">
<path d="
M 374.00 701.00 
C 377.94 702.37 389.32 704.40 389.00 697.00
C 387.42 703.44 379.20 700.29 374.00 701.00 Z"/>
</g>
<g fill="#000000" fill-opacity="0.27" stroke="None">
<path d="
M 601.00 697.00 
C 593.00 697.00 585.00 697.00 577.00 697.00
C 583.85 698.68 594.08 698.64 601.00 697.00 Z"/>
</g>
<g fill="#000000" fill-opacity="0.58" stroke="None">
<path d="
M 462.00 699.00 
C 469.00 699.00 476.00 699.00 483.00 699.00
C 477.15 697.31 467.92 697.37 462.00 699.00 Z"/>
</g>
<g fill="#000000" fill-opacity="0.18" stroke="None">
<path d="
M 589.00 700.00 
C 595.00 700.00 601.00 700.00 607.00 700.00
C 602.15 698.31 593.92 698.38 589.00 700.00 Z"/>
</g>
<g fill="#000000" fill-opacity="0.15" stroke="None">
<path d="
M 274.00 702.00 
C 268.33 702.00 262.67 702.00 257.00 702.00
C 261.52 703.70 269.41 703.62 274.00 702.00 Z"/>
</g>
<g fill="#000000" fill-opacity="0.64" stroke="None">
<path d="
M 373.00 714.00 
C 376.00 714.00 379.00 714.00 382.00 714.00
C 380.11 712.28 374.96 712.48 373.00 714.00 Z"/>
</g>
<g fill="#000000" fill-opacity="0.68" stroke="None">
<path d="
M 593.00 717.00 
C 598.67 717.00 604.33 717.00 610.00 717.00
C 605.48 715.30 597.59 715.38 593.00 717.00 Z"/>
</g>
</svg>