<svg xmlns="http://www.w3.org/2000/svg" xmlns:v="https://svgstorm.com"
viewBox = "0 0 748 1057"
width="748"
height="1057">
<g fill="None" fill-opacity="0.0" stroke="#000000" stroke-opacity="0.00" stroke-width="0.3"><path d="
M 0.00 299.00 
C 0.50 299.00 1.00 299.00 1.00 299.00
C 1.84 257.03 53.00 254.64 89.02 252.02 C 125.05 249.41 181.75 252.46 222.00 252.00 C 262.25 251.54 313.85 254.64 355.00 255.00
C 348.41 214.18 294.34 237.52 259.00 233.00 C 223.66 228.48 174.59 236.39 138.00 233.00
C 133.46 193.96 140.54 154.12 138.00 115.00 C 135.46 75.88 91.19 108.97 88.08 143.08 C 84.96 177.18 35.79 188.58 35.07 145.93 C 34.36 103.27 40.34 80.61 56.75 47.75 C 73.17 14.90 96.70 3.44 130.00 0.00
L 0.00 0.00
L 0.00 299.00 Z"/>
</g>
<g fill="None" fill-opacity="0.0" stroke="#4D4D4D" stroke-opacity="0.99" stroke-width="0.3"><path d="
M 1.00 299.00 
C 0.89 304.33 1.00 309.67 1.00 315.00
C 1.00 343.22 2.77 372.41 3.00 401.00 C 3.23 429.59 4.09 451.69 12.98 479.02 C 21.86 506.36 56.29 493.00 85.00 496.00 C 113.71 499.00 136.53 489.21 170.02 494.98 C 203.51 500.75 175.37 531.10 142.00 518.00
C 148.95 580.95 176.62 658.06 242.00 681.00
C 244.86 629.92 251.69 583.04 256.00 532.00 C 260.31 480.95 265.15 437.85 274.78 386.78 C 284.40 335.70 342.44 340.36 355.00 391.00
C 383.57 391.95 423.39 395.98 451.00 396.00 C 478.61 396.02 522.53 409.69 532.92 384.92 C 543.32 360.16 573.74 341.81 594.25 363.75 C 614.76 385.70 608.37 419.01 610.00 449.00 C 611.63 478.99 609.04 518.07 611.00 549.00 C 612.96 579.93 610.60 613.58 619.00 643.00
C 684.38 570.51 688.58 461.44 653.07 374.93 C 617.57 288.42 599.04 197.24 566.00 110.00
C 593.19 111.38 639.53 111.53 647.92 146.08 C 656.32 180.62 696.75 196.22 700.00 157.00 C 703.25 117.77 692.01 91.62 676.23 61.77 C 660.45 31.92 642.16 17.65 610.93 8.07 C 579.69 -1.50 544.14 14.26 516.31 28.31 C 488.47 42.35 473.36 70.76 438.00 69.00 C 402.64 67.24 354.71 69.78 319.00 69.00 C 283.29 68.22 239.12 78.74 224.23 44.77 C 209.34 10.80 178.60 7.85 150.00 0.00
L 149.00 0.00
C 144.41 1.62 136.52 1.70 132.00 0.00
L 130.00 0.00
C 96.70 3.44 73.17 14.90 56.75 47.75 C 40.34 80.61 34.36 103.27 35.07 145.93 C 35.79 188.58 84.96 177.18 88.08 143.08 C 91.19 108.97 135.46 75.88 138.00 115.00 C 140.54 154.12 133.46 193.96 138.00 233.00
C 174.59 236.39 223.66 228.48 259.00 233.00 C 294.34 237.52 348.41 214.18 355.00 255.00
C 313.85 254.64 262.25 251.54 222.00 252.00 C 181.75 252.46 125.05 249.41 89.02 252.02 C 53.00 254.64 1.84 257.03 1.00 299.00
M 445.00 137.00 
C 482.65 142.38 471.59 207.17 431.93 196.07 C 392.26 184.97 408.09 131.73 445.00 137.00
M 225.00 146.00 
C 259.74 148.04 257.39 192.85 226.00 196.00 C 194.61 199.15 190.08 143.95 225.00 146.00
M 138.00 377.00 
C 138.19 396.73 131.79 418.82 143.00 436.00
C 155.10 427.80 194.90 414.07 189.07 434.07 C 183.25 454.07 154.04 469.23 136.92 454.08 C 119.81 438.92 105.64 453.67 85.99 458.99 C 66.34 464.32 44.06 440.62 39.00 425.00
C 58.15 412.73 71.03 433.53 89.00 436.00
C 103.83 407.05 101.80 373.40 68.78 372.22 C 35.75 371.05 29.97 330.63 45.77 308.77 C 61.57 286.91 104.14 290.99 130.00 291.00 C 155.86 291.01 190.08 299.03 192.93 330.07 C 195.78 361.12 164.03 375.88 138.00 377.00 Z"/>
</g>
<g fill="None" fill-opacity="0.0" stroke="#4C4C4C" stroke-opacity="0.24" stroke-width="0.3"><path d="
M 149.00 0.00 
L 132.00 0.00
C 136.52 1.70 144.41 1.62 149.00 0.00 Z"/>
</g>
<g fill="None" fill-opacity="0.0" stroke="#000000" stroke-opacity="0.00" stroke-width="0.3"><path d="
M 1.00 315.00 
C 1.00 315.04 0.00 315.00 0.00 315.00
L 0.00 1057.00
L 351.00 1057.00
C 298.22 1034.13 256.76 994.65 244.00 935.00 C 231.25 875.35 328.26 812.70 362.00 883.00
C 405.50 824.90 497.52 884.60 484.00 943.00 C 470.48 1001.40 414.22 1035.89 366.00 1057.00
L 748.00 1057.00
L 748.00 646.00
C 740.31 696.77 705.15 742.71 662.75 773.75 C 620.35 804.79 563.47 825.39 513.98 837.98 C 464.48 850.56 368.20 872.57 365.00 798.00 C 361.81 723.43 455.08 737.55 506.07 726.07 C 557.06 714.60 608.67 694.99 642.75 649.75 C 676.84 604.52 697.50 547.56 695.00 489.00
C 736.58 513.54 734.48 575.08 748.00 617.00
L 748.00 0.00
L 150.00 0.00
C 178.60 7.85 209.34 10.80 224.23 44.77 C 239.12 78.74 283.29 68.22 319.00 69.00 C 354.71 69.78 402.64 67.24 438.00 69.00 C 473.36 70.76 488.47 42.35 516.31 28.31 C 544.14 14.26 579.69 -1.50 610.93 8.07 C 642.16 17.65 660.45 31.92 676.23 61.77 C 692.01 91.62 703.25 117.77 700.00 157.00 C 696.75 196.22 656.32 180.62 647.92 146.08 C 639.53 111.53 593.19 111.38 566.00 110.00
C 599.04 197.24 617.57 288.42 653.07 374.93 C 688.58 461.44 684.38 570.51 619.00 643.00
C 610.60 613.58 612.96 579.93 611.00 549.00 C 609.04 518.07 611.63 478.99 610.00 449.00 C 608.37 419.01 614.76 385.70 594.25 363.75 C 573.74 341.81 543.32 360.16 532.92 384.92 C 522.53 409.69 478.61 396.02 451.00 396.00 C 423.39 395.98 383.57 391.95 355.00 391.00
C 342.44 340.36 284.40 335.70 274.78 386.78 C 265.15 437.85 260.31 480.95 256.00 532.00 C 251.69 583.04 244.86 629.92 242.00 681.00
C 176.62 658.06 148.95 580.95 142.00 518.00
C 175.37 531.10 203.51 500.75 170.02 494.98 C 136.53 489.21 113.71 499.00 85.00 496.00 C 56.29 493.00 21.86 506.36 12.98 479.02 C 4.09 451.69 3.23 429.59 3.00 401.00 C 2.77 372.41 1.00 343.22 1.00 315.00
M 376.00 446.00 
C 402.55 452.58 388.66 499.76 360.98 489.02 C 333.30 478.29 349.03 439.32 376.00 446.00
M 511.00 446.00 
C 537.32 451.45 524.99 497.31 499.00 488.00 C 473.01 478.69 484.56 440.52 511.00 446.00
M 487.00 534.00 
C 479.32 560.17 454.01 558.59 463.92 590.08 C 473.84 621.56 504.08 572.90 520.75 590.25 C 537.42 607.60 510.47 627.28 492.31 638.31 C 474.14 649.33 445.49 630.22 425.00 632.00
C 425.79 660.60 389.26 639.70 375.77 635.23 C 362.28 630.76 335.65 604.64 352.75 592.75 C 369.86 580.86 389.20 617.82 410.00 607.00
C 427.77 573.96 389.98 559.87 389.00 532.00
C 420.01 520.34 456.26 524.23 487.00 534.00
M 363.00 837.00 
C 295.69 832.20 229.78 827.14 177.25 779.75 C 124.72 732.36 134.43 645.73 137.00 580.00
C 151.32 598.24 159.06 623.29 172.92 643.08 C 186.78 662.88 204.63 677.00 222.23 692.77 C 239.83 708.54 268.08 717.06 286.68 728.32 C 305.28 739.59 356.71 731.27 358.00 756.00 C 359.29 780.74 341.81 813.23 363.00 837.00 Z"/>
</g>
<g fill="None" fill-opacity="0.0" stroke="#000000" stroke-opacity="0.00" stroke-width="0.3"><path d="
M 445.00 137.00 
C 408.09 131.73 392.26 184.97 431.93 196.07 C 471.59 207.17 482.65 142.38 445.00 137.00 Z"/>
</g>
<g fill="None" fill-opacity="0.0" stroke="#000000" stroke-opacity="0.00" stroke-width="0.3"><path d="
M 225.00 146.00 
C 190.08 143.95 194.61 199.15 226.00 196.00 C 257.39 192.85 259.74 148.04 225.00 146.00 Z"/>
</g>
<g fill="None" fill-opacity="0.0" stroke="#000000" stroke-opacity="0.00" stroke-width="0.3"><path d="
M 138.00 377.00 
C 164.03 375.88 195.78 361.12 192.93 330.07 C 190.08 299.03 155.86 291.01 130.00 291.00 C 104.14 290.99 61.57 286.91 45.77 308.77 C 29.97 330.63 35.75 371.05 68.78 372.22 C 101.80 373.40 103.83 407.05 89.00 436.00
C 71.03 433.53 58.15 412.73 39.00 425.00
C 44.06 440.62 66.34 464.32 85.99 458.99 C 105.64 453.67 119.81 438.92 136.92 454.08 C 154.04 469.23 183.25 454.07 189.07 434.07 C 194.90 414.07 155.10 427.80 143.00 436.00
C 131.79 418.82 138.19 396.73 138.00 377.00 Z"/>
</g>
<g fill="None" fill-opacity="0.0" stroke="#4E4E4E" stroke-opacity="0.17" stroke-width="0.3"><path d="
M 0.00 315.00 
C 0.00 315.00 1.00 315.04 1.00 315.00
C 1.00 309.67 0.89 304.33 1.00 299.00
C 1.00 299.00 0.50 299.00 0.00 299.00
L 0.00 315.00 Z"/>
</g>
<g fill="None" fill-opacity="0.0" stroke="#4D4D4D" stroke-opacity="0.95" stroke-width="0.3"><path d="
M 376.00 446.00 
C 349.03 439.32 333.30 478.29 360.98 489.02 C 388.66 499.76 402.55 452.58 376.00 446.00 Z"/>
</g>
<g fill="None" fill-opacity="0.0" stroke="#4D4D4D" stroke-opacity="0.95" stroke-width="0.3"><path d="
M 511.00 446.00 
C 484.56 440.52 473.01 478.69 499.00 488.00 C 524.99 497.31 537.32 451.45 511.00 446.00 Z"/>
</g>
<g fill="None" fill-opacity="0.0" stroke="#4C4C4C" stroke-opacity="0.98" stroke-width="0.3"><path d="
M 748.00 646.00 
L 748.00 638.00
C 746.40 634.40 746.29 627.53 748.00 624.00
L 748.00 617.00
C 734.48 575.08 736.58 513.54 695.00 489.00
C 697.50 547.56 676.84 604.52 642.75 649.75 C 608.67 694.99 557.06 714.60 506.07 726.07 C 455.08 737.55 361.81 723.43 365.00 798.00 C 368.20 872.57 464.48 850.56 513.98 837.98 C 563.47 825.39 620.35 804.79 662.75 773.75 C 705.15 742.71 740.31 696.77 748.00 646.00 Z"/>
</g>
<g fill="None" fill-opacity="0.0" stroke="#4D4D4D" stroke-opacity="0.97" stroke-width="0.3"><path d="
M 487.00 534.00 
C 456.26 524.23 420.01 520.34 389.00 532.00
C 389.98 559.87 427.77 573.96 410.00 607.00
C 389.20 617.82 369.86 580.86 352.75 592.75 C 335.65 604.64 362.28 630.76 375.77 635.23 C 389.26 639.70 425.79 660.60 425.00 632.00
C 445.49 630.22 474.14 649.33 492.31 638.31 C 510.47 627.28 537.42 607.60 520.75 590.25 C 504.08 572.90 473.84 621.56 463.92 590.08 C 454.01 558.59 479.32 560.17 487.00 534.00 Z"/>
</g>
<g fill="None" fill-opacity="0.0" stroke="#4D4D4D" stroke-opacity="0.98" stroke-width="0.3"><path d="
M 363.00 837.00 
C 341.81 813.23 359.29 780.74 358.00 756.00 C 356.71 731.27 305.28 739.59 286.68 728.32 C 268.08 717.06 239.83 708.54 222.23 692.77 C 204.63 677.00 186.78 662.88 172.92 643.08 C 159.06 623.29 151.32 598.24 137.00 580.00
C 134.43 645.73 124.72 732.36 177.25 779.75 C 229.78 827.14 295.69 832.20 363.00 837.00 Z"/>
</g>
<g fill="None" fill-opacity="0.0" stroke="#4D4D4D" stroke-opacity="0.74" stroke-width="0.3"><path d="
M 748.00 638.00 
L 748.00 624.00
C 746.29 627.53 746.40 634.40 748.00 638.00 Z"/>
</g>
<g fill="None" fill-opacity="0.0" stroke="#4C4C4C" stroke-opacity="0.99" stroke-width="0.3"><path d="
M 351.00 1057.00 
L 354.00 1057.00
C 355.96 1055.48 361.11 1055.28 363.00 1057.00
L 366.00 1057.00
C 414.22 1035.89 470.48 1001.40 484.00 943.00 C 497.52 884.60 405.50 824.90 362.00 883.00
C 328.26 812.70 231.25 875.35 244.00 935.00 C 256.76 994.65 298.22 1034.13 351.00 1057.00 Z"/>
</g>
<g fill="None" fill-opacity="0.0" stroke="#4D4D4D" stroke-opacity="0.46" stroke-width="0.3"><path d="
M 354.00 1057.00 
L 363.00 1057.00
C 361.11 1055.28 355.96 1055.48 354.00 1057.00 Z"/>
</g>
<g fill="#000000" fill-opacity="0.00" stroke="None"><path d="
M 0.00 299.00 
C 0.50 299.00 1.00 299.00 1.00 299.00
C 1.84 257.03 53.00 254.64 89.02 252.02 C 125.05 249.41 181.75 252.46 222.00 252.00 C 262.25 251.54 313.85 254.64 355.00 255.00
C 348.41 214.18 294.34 237.52 259.00 233.00 C 223.66 228.48 174.59 236.39 138.00 233.00
C 133.46 193.96 140.54 154.12 138.00 115.00 C 135.46 75.88 91.19 108.97 88.08 143.08 C 84.96 177.18 35.79 188.58 35.07 145.93 C 34.36 103.27 40.34 80.61 56.75 47.75 C 73.17 14.90 96.70 3.44 130.00 0.00
L 0.00 0.00
L 0.00 299.00 Z"/>
</g>
<g fill="#4D4D4D" fill-opacity="0.99" stroke="None"><path d="
M 1.00 299.00 
C 0.89 304.33 1.00 309.67 1.00 315.00
C 1.00 343.22 2.77 372.41 3.00 401.00 C 3.23 429.59 4.09 451.69 12.98 479.02 C 21.86 506.36 56.29 493.00 85.00 496.00 C 113.71 499.00 136.53 489.21 170.02 494.98 C 203.51 500.75 175.37 531.10 142.00 518.00
C 148.95 580.95 176.62 658.06 242.00 681.00
C 244.86 629.92 251.69 583.04 256.00 532.00 C 260.31 480.95 265.15 437.85 274.78 386.78 C 284.40 335.70 342.44 340.36 355.00 391.00
C 383.57 391.95 423.39 395.98 451.00 396.00 C 478.61 396.02 522.53 409.69 532.92 384.92 C 543.32 360.16 573.74 341.81 594.25 363.75 C 614.76 385.70 608.37 419.01 610.00 449.00 C 611.63 478.99 609.04 518.07 611.00 549.00 C 612.96 579.93 610.60 613.58 619.00 643.00
C 684.38 570.51 688.58 461.44 653.07 374.93 C 617.57 288.42 599.04 197.24 566.00 110.00
C 593.19 111.38 639.53 111.53 647.92 146.08 C 656.32 180.62 696.75 196.22 700.00 157.00 C 703.25 117.77 692.01 91.62 676.23 61.77 C 660.45 31.92 642.16 17.65 610.93 8.07 C 579.69 -1.50 544.14 14.26 516.31 28.31 C 488.47 42.35 473.36 70.76 438.00 69.00 C 402.64 67.24 354.71 69.78 319.00 69.00 C 283.29 68.22 239.12 78.74 224.23 44.77 C 209.34 10.80 178.60 7.85 150.00 0.00
L 149.00 0.00
C 144.41 1.62 136.52 1.70 132.00 0.00
L 130.00 0.00
C 96.70 3.44 73.17 14.90 56.75 47.75 C 40.34 80.61 34.36 103.27 35.07 145.93 C 35.79 188.58 84.96 177.18 88.08 143.08 C 91.19 108.97 135.46 75.88 138.00 115.00 C 140.54 154.12 133.46 193.96 138.00 233.00
C 174.59 236.39 223.66 228.48 259.00 233.00 C 294.34 237.52 348.41 214.18 355.00 255.00
C 313.85 254.64 262.25 251.54 222.00 252.00 C 181.75 252.46 125.05 249.41 89.02 252.02 C 53.00 254.64 1.84 257.03 1.00 299.00
M 445.00 137.00 
C 482.65 142.38 471.59 207.17 431.93 196.07 C 392.26 184.97 408.09 131.73 445.00 137.00
M 225.00 146.00 
C 259.74 148.04 257.39 192.85 226.00 196.00 C 194.61 199.15 190.08 143.95 225.00 146.00
M 138.00 377.00 
C 138.19 396.73 131.79 418.82 143.00 436.00
C 155.10 427.80 194.90 414.07 189.07 434.07 C 183.25 454.07 154.04 469.23 136.92 454.08 C 119.81 438.92 105.64 453.67 85.99 458.99 C 66.34 464.32 44.06 440.62 39.00 425.00
C 58.15 412.73 71.03 433.53 89.00 436.00
C 103.83 407.05 101.80 373.40 68.78 372.22 C 35.75 371.05 29.97 330.63 45.77 308.77 C 61.57 286.91 104.14 290.99 130.00 291.00 C 155.86 291.01 190.08 299.03 192.93 330.07 C 195.78 361.12 164.03 375.88 138.00 377.00 Z"/>
</g>
<g fill="#4C4C4C" fill-opacity="0.24" stroke="None"><path d="
M 149.00 0.00 
L 132.00 0.00
C 136.52 1.70 144.41 1.62 149.00 0.00 Z"/>
</g>
<g fill="#000000" fill-opacity="0.00" stroke="None"><path d="
M 1.00 315.00 
C 1.00 315.04 0.00 315.00 0.00 315.00
L 0.00 1057.00
L 351.00 1057.00
C 298.22 1034.13 256.76 994.65 244.00 935.00 C 231.25 875.35 328.26 812.70 362.00 883.00
C 405.50 824.90 497.52 884.60 484.00 943.00 C 470.48 1001.40 414.22 1035.89 366.00 1057.00
L 748.00 1057.00
L 748.00 646.00
C 740.31 696.77 705.15 742.71 662.75 773.75 C 620.35 804.79 563.47 825.39 513.98 837.98 C 464.48 850.56 368.20 872.57 365.00 798.00 C 361.81 723.43 455.08 737.55 506.07 726.07 C 557.06 714.60 608.67 694.99 642.75 649.75 C 676.84 604.52 697.50 547.56 695.00 489.00
C 736.58 513.54 734.48 575.08 748.00 617.00
L 748.00 0.00
L 150.00 0.00
C 178.60 7.85 209.34 10.80 224.23 44.77 C 239.12 78.74 283.29 68.22 319.00 69.00 C 354.71 69.78 402.64 67.24 438.00 69.00 C 473.36 70.76 488.47 42.35 516.31 28.31 C 544.14 14.26 579.69 -1.50 610.93 8.07 C 642.16 17.65 660.45 31.92 676.23 61.77 C 692.01 91.62 703.25 117.77 700.00 157.00 C 696.75 196.22 656.32 180.62 647.92 146.08 C 639.53 111.53 593.19 111.38 566.00 110.00
C 599.04 197.24 617.57 288.42 653.07 374.93 C 688.58 461.44 684.38 570.51 619.00 643.00
C 610.60 613.58 612.96 579.93 611.00 549.00 C 609.04 518.07 611.63 478.99 610.00 449.00 C 608.37 419.01 614.76 385.70 594.25 363.75 C 573.74 341.81 543.32 360.16 532.92 384.92 C 522.53 409.69 478.61 396.02 451.00 396.00 C 423.39 395.98 383.57 391.95 355.00 391.00
C 342.44 340.36 284.40 335.70 274.78 386.78 C 265.15 437.85 260.31 480.95 256.00 532.00 C 251.69 583.04 244.86 629.92 242.00 681.00
C 176.62 658.06 148.95 580.95 142.00 518.00
C 175.37 531.10 203.51 500.75 170.02 494.98 C 136.53 489.21 113.71 499.00 85.00 496.00 C 56.29 493.00 21.86 506.36 12.98 479.02 C 4.09 451.69 3.23 429.59 3.00 401.00 C 2.77 372.41 1.00 343.22 1.00 315.00
M 376.00 446.00 
C 402.55 452.58 388.66 499.76 360.98 489.02 C 333.30 478.29 349.03 439.32 376.00 446.00
M 511.00 446.00 
C 537.32 451.45 524.99 497.31 499.00 488.00 C 473.01 478.69 484.56 440.52 511.00 446.00
M 487.00 534.00 
C 479.32 560.17 454.01 558.59 463.92 590.08 C 473.84 621.56 504.08 572.90 520.75 590.25 C 537.42 607.60 510.47 627.28 492.31 638.31 C 474.14 649.33 445.49 630.22 425.00 632.00
C 425.79 660.60 389.26 639.70 375.77 635.23 C 362.28 630.76 335.65 604.64 352.75 592.75 C 369.86 580.86 389.20 617.82 410.00 607.00
C 427.77 573.96 389.98 559.87 389.00 532.00
C 420.01 520.34 456.26 524.23 487.00 534.00
M 363.00 837.00 
C 295.69 832.20 229.78 827.14 177.25 779.75 C 124.72 732.36 134.43 645.73 137.00 580.00
C 151.32 598.24 159.06 623.29 172.92 643.08 C 186.78 662.88 204.63 677.00 222.23 692.77 C 239.83 708.54 268.08 717.06 286.68 728.32 C 305.28 739.59 356.71 731.27 358.00 756.00 C 359.29 780.74 341.81 813.23 363.00 837.00 Z"/>
</g>
<g fill="#000000" fill-opacity="0.00" stroke="None"><path d="
M 445.00 137.00 
C 408.09 131.73 392.26 184.97 431.93 196.07 C 471.59 207.17 482.65 142.38 445.00 137.00 Z"/>
</g>
<g fill="#000000" fill-opacity="0.00" stroke="None"><path d="
M 225.00 146.00 
C 190.08 143.95 194.61 199.15 226.00 196.00 C 257.39 192.85 259.74 148.04 225.00 146.00 Z"/>
</g>
<g fill="#000000" fill-opacity="0.00" stroke="None"><path d="
M 138.00 377.00 
C 164.03 375.88 195.78 361.12 192.93 330.07 C 190.08 299.03 155.86 291.01 130.00 291.00 C 104.14 290.99 61.57 286.91 45.77 308.77 C 29.97 330.63 35.75 371.05 68.78 372.22 C 101.80 373.40 103.83 407.05 89.00 436.00
C 71.03 433.53 58.15 412.73 39.00 425.00
C 44.06 440.62 66.34 464.32 85.99 458.99 C 105.64 453.67 119.81 438.92 136.92 454.08 C 154.04 469.23 183.25 454.07 189.07 434.07 C 194.90 414.07 155.10 427.80 143.00 436.00
C 131.79 418.82 138.19 396.73 138.00 377.00 Z"/>
</g>
<g fill="#4E4E4E" fill-opacity="0.17" stroke="None"><path d="
M 0.00 315.00 
C 0.00 315.00 1.00 315.04 1.00 315.00
C 1.00 309.67 0.89 304.33 1.00 299.00
C 1.00 299.00 0.50 299.00 0.00 299.00
L 0.00 315.00 Z"/>
</g>
<g fill="#4D4D4D" fill-opacity="0.95" stroke="None"><path d="
M 376.00 446.00 
C 349.03 439.32 333.30 478.29 360.98 489.02 C 388.66 499.76 402.55 452.58 376.00 446.00 Z"/>
</g>
<g fill="#4D4D4D" fill-opacity="0.95" stroke="None"><path d="
M 511.00 446.00 
C 484.56 440.52 473.01 478.69 499.00 488.00 C 524.99 497.31 537.32 451.45 511.00 446.00 Z"/>
</g>
<g fill="#4C4C4C" fill-opacity="0.98" stroke="None"><path d="
M 748.00 646.00 
L 748.00 638.00
C 746.40 634.40 746.29 627.53 748.00 624.00
L 748.00 617.00
C 734.48 575.08 736.58 513.54 695.00 489.00
C 697.50 547.56 676.84 604.52 642.75 649.75 C 608.67 694.99 557.06 714.60 506.07 726.07 C 455.08 737.55 361.81 723.43 365.00 798.00 C 368.20 872.57 464.48 850.56 513.98 837.98 C 563.47 825.39 620.35 804.79 662.75 773.75 C 705.15 742.71 740.31 696.77 748.00 646.00 Z"/>
</g>
<g fill="#4D4D4D" fill-opacity="0.97" stroke="None"><path d="
M 487.00 534.00 
C 456.26 524.23 420.01 520.34 389.00 532.00
C 389.98 559.87 427.77 573.96 410.00 607.00
C 389.20 617.82 369.86 580.86 352.75 592.75 C 335.65 604.64 362.28 630.76 375.77 635.23 C 389.26 639.70 425.79 660.60 425.00 632.00
C 445.49 630.22 474.14 649.33 492.31 638.31 C 510.47 627.28 537.42 607.60 520.75 590.25 C 504.08 572.90 473.84 621.56 463.92 590.08 C 454.01 558.59 479.32 560.17 487.00 534.00 Z"/>
</g>
<g fill="#4D4D4D" fill-opacity="0.98" stroke="None"><path d="
M 363.00 837.00 
C 341.81 813.23 359.29 780.74 358.00 756.00 C 356.71 731.27 305.28 739.59 286.68 728.32 C 268.08 717.06 239.83 708.54 222.23 692.77 C 204.63 677.00 186.78 662.88 172.92 643.08 C 159.06 623.29 151.32 598.24 137.00 580.00
C 134.43 645.73 124.72 732.36 177.25 779.75 C 229.78 827.14 295.69 832.20 363.00 837.00 Z"/>
</g>
<g fill="#4D4D4D" fill-opacity="0.74" stroke="None"><path d="
M 748.00 638.00 
L 748.00 624.00
C 746.29 627.53 746.40 634.40 748.00 638.00 Z"/>
</g>
<g fill="#4C4C4C" fill-opacity="0.99" stroke="None"><path d="
M 351.00 1057.00 
L 354.00 1057.00
C 355.96 1055.48 361.11 1055.28 363.00 1057.00
L 366.00 1057.00
C 414.22 1035.89 470.48 1001.40 484.00 943.00 C 497.52 884.60 405.50 824.90 362.00 883.00
C 328.26 812.70 231.25 875.35 244.00 935.00 C 256.76 994.65 298.22 1034.13 351.00 1057.00 Z"/>
</g>
<g fill="#4D4D4D" fill-opacity="0.46" stroke="None"><path d="
M 354.00 1057.00 
L 363.00 1057.00
C 361.11 1055.28 355.96 1055.48 354.00 1057.00 Z"/>
</g>
</svg>