<svg xmlns="http://www.w3.org/2000/svg" xmlns:v="https://svgstorm.com"
viewBox = "0 0 512 512"
width="512"
height="512">
<g fill="None" fill-opacity="0.0" stroke="#000000" stroke-opacity="0.00" stroke-width="0.3"><path d="
M 0.00 512.00 
L 512.00 512.00
L 512.00 0.00
L 0.00 0.00
L 0.00 512.00
M 350.00 192.00 
C 330.54 217.21 317.66 237.84 308.00 267.00
C 364.33 260.45 414.65 288.91 411.00 346.00
C 440.64 338.14 471.08 362.50 463.81 389.25 C 456.53 416.00 452.21 441.11 425.77 450.21 C 399.32 459.31 383.39 453.59 353.75 459.20 C 324.12 464.81 373.40 508.00 343.00 511.00
C 336.67 495.73 318.98 478.13 328.19 458.75 C 337.40 439.36 365.21 442.72 381.25 440.81 C 397.28 438.89 429.13 437.92 435.39 423.25 C 441.66 408.58 457.03 379.67 443.25 367.75 C 429.48 355.82 391.00 365.52 394.20 338.75 C 397.40 311.98 383.11 303.85 367.08 290.87 C 351.05 277.89 323.55 287.86 303.00 283.00
C 297.93 299.72 274.64 317.82 257.00 307.00
C 257.25 304.20 258.28 301.74 257.00 299.00
C 293.55 293.33 295.67 255.55 294.00 221.00
C 243.41 258.23 220.69 301.68 200.81 344.25 C 180.93 386.83 184.17 457.48 177.00 511.00
C 171.83 511.07 168.72 510.31 165.00 507.00
C 169.01 476.01 162.58 430.65 168.20 401.75 C 173.82 372.86 181.55 344.65 192.19 321.75 C 202.83 298.84 218.44 273.26 239.25 251.25 C 260.06 229.23 299.12 178.36 310.00 219.00
C 318.93 212.20 321.10 201.41 330.00 192.00
C 309.46 188.25 287.32 179.86 279.00 158.00
C 281.33 157.86 283.94 155.39 284.00 153.00
C 286.16 153.63 288.77 153.60 291.00 153.00
C 314.91 185.97 365.74 178.16 400.25 168.81 C 434.76 159.45 494.56 173.14 495.00 124.00
C 473.94 113.10 431.77 118.81 437.00 82.00
C 423.42 82.65 409.14 80.69 396.00 83.00
C 367.92 47.29 340.54 12.52 290.00 17.00
C 291.88 19.27 293.89 22.66 297.00 23.00
C 287.11 45.40 252.81 6.17 231.75 35.75 C 210.69 65.34 182.02 80.23 159.75 107.75 C 137.49 135.27 105.81 148.86 107.78 179.22 C 109.75 209.59 137.87 222.20 166.25 219.20 C 194.63 216.20 212.71 193.96 226.71 171.70 C 240.72 149.44 245.41 132.58 258.00 108.00
C 281.29 118.98 255.41 149.39 247.61 167.75 C 239.80 186.12 215.87 215.53 195.75 226.19 C 175.63 236.85 139.99 241.34 117.00 226.00
C 68.21 284.79 41.29 342.74 11.00 400.00
C -7.75 386.62 14.48 361.54 22.19 342.75 C 29.90 323.96 44.75 302.79 56.39 282.25 C 68.04 261.70 90.14 237.26 106.00 215.00
C 90.15 197.44 83.03 161.68 102.30 142.30 C 121.57 122.91 151.11 91.24 173.75 70.75 C 196.39 50.26 221.50 14.07 243.25 8.81 C 265.01 3.55 304.75 -5.30 326.75 4.40 C 348.75 14.09 374.37 19.03 389.13 49.92 C 403.89 80.81 474.78 55.29 499.25 69.19 C 523.73 83.09 515.10 147.33 498.75 161.75 C 482.41 176.18 449.09 176.97 426.25 180.40 C 403.40 183.82 373.55 190.46 350.00 192.00
M 329.00 66.00 
C 343.32 61.97 351.83 83.87 337.23 89.58 C 322.63 95.28 313.97 70.24 329.00 66.00
M 339.00 327.00 
C 353.32 322.96 361.83 344.87 347.23 350.58 C 332.63 356.28 323.97 331.24 339.00 327.00 Z"/>
</g>
<g fill="None" fill-opacity="0.0" stroke="#000000" stroke-opacity="0.97" stroke-width="0.3"><path d="
M 350.00 192.00 
C 373.55 190.46 403.40 183.82 426.25 180.40 C 449.09 176.97 482.41 176.18 498.75 161.75 C 515.10 147.33 523.73 83.09 499.25 69.19 C 474.78 55.29 403.89 80.81 389.13 49.92 C 374.37 19.03 348.75 14.09 326.75 4.40 C 304.75 -5.30 265.01 3.55 243.25 8.81 C 221.50 14.07 196.39 50.26 173.75 70.75 C 151.11 91.24 121.57 122.91 102.30 142.30 C 83.03 161.68 90.15 197.44 106.00 215.00
C 90.14 237.26 68.04 261.70 56.39 282.25 C 44.75 302.79 29.90 323.96 22.19 342.75 C 14.48 361.54 -7.75 386.62 11.00 400.00
C 41.29 342.74 68.21 284.79 117.00 226.00
C 139.99 241.34 175.63 236.85 195.75 226.19 C 215.87 215.53 239.80 186.12 247.61 167.75 C 255.41 149.39 281.29 118.98 258.00 108.00
C 245.41 132.58 240.72 149.44 226.71 171.70 C 212.71 193.96 194.63 216.20 166.25 219.20 C 137.87 222.20 109.75 209.59 107.78 179.22 C 105.81 148.86 137.49 135.27 159.75 107.75 C 182.02 80.23 210.69 65.34 231.75 35.75 C 252.81 6.17 287.11 45.40 297.00 23.00
C 293.89 22.66 291.88 19.27 290.00 17.00
C 340.54 12.52 367.92 47.29 396.00 83.00
C 409.14 80.69 423.42 82.65 437.00 82.00
C 431.77 118.81 473.94 113.10 495.00 124.00
C 494.56 173.14 434.76 159.45 400.25 168.81 C 365.74 178.16 314.91 185.97 291.00 153.00
C 288.77 153.60 286.16 153.63 284.00 153.00
C 283.94 155.39 281.33 157.86 279.00 158.00
C 287.32 179.86 309.46 188.25 330.00 192.00
C 321.10 201.41 318.93 212.20 310.00 219.00
C 299.12 178.36 260.06 229.23 239.25 251.25 C 218.44 273.26 202.83 298.84 192.19 321.75 C 181.55 344.65 173.82 372.86 168.20 401.75 C 162.58 430.65 169.01 476.01 165.00 507.00
C 168.72 510.31 171.83 511.07 177.00 511.00
C 184.17 457.48 180.93 386.83 200.81 344.25 C 220.69 301.68 243.41 258.23 294.00 221.00
C 295.67 255.55 293.55 293.33 257.00 299.00
C 258.28 301.74 257.25 304.20 257.00 307.00
C 274.64 317.82 297.93 299.72 303.00 283.00
C 323.55 287.86 351.05 277.89 367.08 290.87 C 383.11 303.85 397.40 311.98 394.20 338.75 C 391.00 365.52 429.48 355.82 443.25 367.75 C 457.03 379.67 441.66 408.58 435.39 423.25 C 429.13 437.92 397.28 438.89 381.25 440.81 C 365.21 442.72 337.40 439.36 328.19 458.75 C 318.98 478.13 336.67 495.73 343.00 511.00
C 373.40 508.00 324.12 464.81 353.75 459.20 C 383.39 453.59 399.32 459.31 425.77 450.21 C 452.21 441.11 456.53 416.00 463.81 389.25 C 471.08 362.50 440.64 338.14 411.00 346.00
C 414.65 288.91 364.33 260.45 308.00 267.00
C 317.66 237.84 330.54 217.21 350.00 192.00
M 495.00 107.00 
C 480.25 98.51 453.16 105.38 452.00 82.00
C 474.25 81.93 504.02 75.36 495.00 107.00 Z"/>
</g>
<g fill="None" fill-opacity="0.0" stroke="#000000" stroke-opacity="0.96" stroke-width="0.3"><path d="
M 329.00 66.00 
C 313.97 70.24 322.63 95.28 337.23 89.58 C 351.83 83.87 343.32 61.97 329.00 66.00 Z"/>
</g>
<g fill="None" fill-opacity="0.0" stroke="#000000" stroke-opacity="0.04" stroke-width="0.3"><path d="
M 495.00 107.00 
C 504.02 75.36 474.25 81.93 452.00 82.00
C 453.16 105.38 480.25 98.51 495.00 107.00 Z"/>
</g>
<g fill="None" fill-opacity="0.0" stroke="#000000" stroke-opacity="0.96" stroke-width="0.3"><path d="
M 339.00 327.00 
C 323.97 331.24 332.63 356.28 347.23 350.58 C 361.83 344.87 353.32 322.96 339.00 327.00 Z"/>
</g>
<g fill="#000000" fill-opacity="0.00" stroke="None"><path d="
M 0.00 512.00 
L 512.00 512.00
L 512.00 0.00
L 0.00 0.00
L 0.00 512.00
M 350.00 192.00 
C 330.54 217.21 317.66 237.84 308.00 267.00
C 364.33 260.45 414.65 288.91 411.00 346.00
C 440.64 338.14 471.08 362.50 463.81 389.25 C 456.53 416.00 452.21 441.11 425.77 450.21 C 399.32 459.31 383.39 453.59 353.75 459.20 C 324.12 464.81 373.40 508.00 343.00 511.00
C 336.67 495.73 318.98 478.13 328.19 458.75 C 337.40 439.36 365.21 442.72 381.25 440.81 C 397.28 438.89 429.13 437.92 435.39 423.25 C 441.66 408.58 457.03 379.67 443.25 367.75 C 429.48 355.82 391.00 365.52 394.20 338.75 C 397.40 311.98 383.11 303.85 367.08 290.87 C 351.05 277.89 323.55 287.86 303.00 283.00
C 297.93 299.72 274.64 317.82 257.00 307.00
C 257.25 304.20 258.28 301.74 257.00 299.00
C 293.55 293.33 295.67 255.55 294.00 221.00
C 243.41 258.23 220.69 301.68 200.81 344.25 C 180.93 386.83 184.17 457.48 177.00 511.00
C 171.83 511.07 168.72 510.31 165.00 507.00
C 169.01 476.01 162.58 430.65 168.20 401.75 C 173.82 372.86 181.55 344.65 192.19 321.75 C 202.83 298.84 218.44 273.26 239.25 251.25 C 260.06 229.23 299.12 178.36 310.00 219.00
C 318.93 212.20 321.10 201.41 330.00 192.00
C 309.46 188.25 287.32 179.86 279.00 158.00
C 281.33 157.86 283.94 155.39 284.00 153.00
C 286.16 153.63 288.77 153.60 291.00 153.00
C 314.91 185.97 365.74 178.16 400.25 168.81 C 434.76 159.45 494.56 173.14 495.00 124.00
C 473.94 113.10 431.77 118.81 437.00 82.00
C 423.42 82.65 409.14 80.69 396.00 83.00
C 367.92 47.29 340.54 12.52 290.00 17.00
C 291.88 19.27 293.89 22.66 297.00 23.00
C 287.11 45.40 252.81 6.17 231.75 35.75 C 210.69 65.34 182.02 80.23 159.75 107.75 C 137.49 135.27 105.81 148.86 107.78 179.22 C 109.75 209.59 137.87 222.20 166.25 219.20 C 194.63 216.20 212.71 193.96 226.71 171.70 C 240.72 149.44 245.41 132.58 258.00 108.00
C 281.29 118.98 255.41 149.39 247.61 167.75 C 239.80 186.12 215.87 215.53 195.75 226.19 C 175.63 236.85 139.99 241.34 117.00 226.00
C 68.21 284.79 41.29 342.74 11.00 400.00
C -7.75 386.62 14.48 361.54 22.19 342.75 C 29.90 323.96 44.75 302.79 56.39 282.25 C 68.04 261.70 90.14 237.26 106.00 215.00
C 90.15 197.44 83.03 161.68 102.30 142.30 C 121.57 122.91 151.11 91.24 173.75 70.75 C 196.39 50.26 221.50 14.07 243.25 8.81 C 265.01 3.55 304.75 -5.30 326.75 4.40 C 348.75 14.09 374.37 19.03 389.13 49.92 C 403.89 80.81 474.78 55.29 499.25 69.19 C 523.73 83.09 515.10 147.33 498.75 161.75 C 482.41 176.18 449.09 176.97 426.25 180.40 C 403.40 183.82 373.55 190.46 350.00 192.00
M 329.00 66.00 
C 343.32 61.97 351.83 83.87 337.23 89.58 C 322.63 95.28 313.97 70.24 329.00 66.00
M 339.00 327.00 
C 353.32 322.96 361.83 344.87 347.23 350.58 C 332.63 356.28 323.97 331.24 339.00 327.00 Z"/>
</g>
<g fill="#000000" fill-opacity="0.97" stroke="None"><path d="
M 350.00 192.00 
C 373.55 190.46 403.40 183.82 426.25 180.40 C 449.09 176.97 482.41 176.18 498.75 161.75 C 515.10 147.33 523.73 83.09 499.25 69.19 C 474.78 55.29 403.89 80.81 389.13 49.92 C 374.37 19.03 348.75 14.09 326.75 4.40 C 304.75 -5.30 265.01 3.55 243.25 8.81 C 221.50 14.07 196.39 50.26 173.75 70.75 C 151.11 91.24 121.57 122.91 102.30 142.30 C 83.03 161.68 90.15 197.44 106.00 215.00
C 90.14 237.26 68.04 261.70 56.39 282.25 C 44.75 302.79 29.90 323.96 22.19 342.75 C 14.48 361.54 -7.75 386.62 11.00 400.00
C 41.29 342.74 68.21 284.79 117.00 226.00
C 139.99 241.34 175.63 236.85 195.75 226.19 C 215.87 215.53 239.80 186.12 247.61 167.75 C 255.41 149.39 281.29 118.98 258.00 108.00
C 245.41 132.58 240.72 149.44 226.71 171.70 C 212.71 193.96 194.63 216.20 166.25 219.20 C 137.87 222.20 109.75 209.59 107.78 179.22 C 105.81 148.86 137.49 135.27 159.75 107.75 C 182.02 80.23 210.69 65.34 231.75 35.75 C 252.81 6.17 287.11 45.40 297.00 23.00
C 293.89 22.66 291.88 19.27 290.00 17.00
C 340.54 12.52 367.92 47.29 396.00 83.00
C 409.14 80.69 423.42 82.65 437.00 82.00
C 431.77 118.81 473.94 113.10 495.00 124.00
C 494.56 173.14 434.76 159.45 400.25 168.81 C 365.74 178.16 314.91 185.97 291.00 153.00
C 288.77 153.60 286.16 153.63 284.00 153.00
C 283.94 155.39 281.33 157.86 279.00 158.00
C 287.32 179.86 309.46 188.25 330.00 192.00
C 321.10 201.41 318.93 212.20 310.00 219.00
C 299.12 178.36 260.06 229.23 239.25 251.25 C 218.44 273.26 202.83 298.84 192.19 321.75 C 181.55 344.65 173.82 372.86 168.20 401.75 C 162.58 430.65 169.01 476.01 165.00 507.00
C 168.72 510.31 171.83 511.07 177.00 511.00
C 184.17 457.48 180.93 386.83 200.81 344.25 C 220.69 301.68 243.41 258.23 294.00 221.00
C 295.67 255.55 293.55 293.33 257.00 299.00
C 258.28 301.74 257.25 304.20 257.00 307.00
C 274.64 317.82 297.93 299.72 303.00 283.00
C 323.55 287.86 351.05 277.89 367.08 290.87 C 383.11 303.85 397.40 311.98 394.20 338.75 C 391.00 365.52 429.48 355.82 443.25 367.75 C 457.03 379.67 441.66 408.58 435.39 423.25 C 429.13 437.92 397.28 438.89 381.25 440.81 C 365.21 442.72 337.40 439.36 328.19 458.75 C 318.98 478.13 336.67 495.73 343.00 511.00
C 373.40 508.00 324.12 464.81 353.75 459.20 C 383.39 453.59 399.32 459.31 425.77 450.21 C 452.21 441.11 456.53 416.00 463.81 389.25 C 471.08 362.50 440.64 338.14 411.00 346.00
C 414.65 288.91 364.33 260.45 308.00 267.00
C 317.66 237.84 330.54 217.21 350.00 192.00
M 495.00 107.00 
C 480.25 98.51 453.16 105.38 452.00 82.00
C 474.25 81.93 504.02 75.36 495.00 107.00 Z"/>
</g>
<g fill="#000000" fill-opacity="0.96" stroke="None"><path d="
M 329.00 66.00 
C 313.97 70.24 322.63 95.28 337.23 89.58 C 351.83 83.87 343.32 61.97 329.00 66.00 Z"/>
</g>
<g fill="#000000" fill-opacity="0.04" stroke="None"><path d="
M 495.00 107.00 
C 504.02 75.36 474.25 81.93 452.00 82.00
C 453.16 105.38 480.25 98.51 495.00 107.00 Z"/>
</g>
<g fill="#000000" fill-opacity="0.96" stroke="None"><path d="
M 339.00 327.00 
C 323.97 331.24 332.63 356.28 347.23 350.58 C 361.83 344.87 353.32 322.96 339.00 327.00 Z"/>
</g>
</svg>