<svg xmlns="http://www.w3.org/2000/svg" xmlns:v="https://svgstorm.com"
viewBox = "0 0 1024 1024"
width="1024"
height="1024">
<g fill="None" fill-opacity="0.0" stroke="#000000" stroke-opacity="0.00" stroke-width="0.3"><path d="
M 0.00 1024.00 
L 1024.00 1024.00
L 1024.00 0.00
L 0.00 0.00
L 0.00 1024.00
M 360.00 163.00 
C 360.00 169.67 360.00 176.33 360.00 183.00
C 365.83 183.66 372.99 181.68 378.00 184.00
C 378.25 184.26 378.00 185.00 378.00 185.00
C 399.39 182.26 420.54 192.83 429.31 212.70 C 435.34 220.02 437.02 232.96 445.00 237.00
C 453.17 237.66 462.66 235.67 470.00 238.00
C 491.99 239.93 529.35 236.92 532.00 266.00
C 531.97 266.50 532.00 267.00 532.00 267.00
C 533.59 270.60 533.71 277.47 532.00 281.00
C 530.12 301.64 524.04 326.17 502.92 334.92 C 483.12 344.36 462.05 350.41 440.93 355.93 C 417.48 357.19 399.43 375.87 401.00 400.00
C 360.39 393.08 322.04 377.73 283.77 363.23 C 274.68 357.18 249.87 357.66 256.93 341.93 C 273.85 275.73 288.80 208.17 319.77 146.77 C 325.63 136.97 333.33 120.20 347.22 123.78 C 359.47 132.09 359.37 149.25 360.00 163.00
M 696.00 475.00 
C 694.83 479.84 698.82 487.95 693.00 490.00
C 659.83 509.82 623.71 526.43 586.00 535.00
C 581.11 518.71 569.49 500.74 551.93 496.07 C 534.53 487.93 529.47 466.87 527.00 449.00
C 525.41 445.73 525.29 439.19 527.00 436.00
C 538.76 420.14 561.08 408.02 564.33 386.33 C 568.97 375.74 580.68 371.21 591.02 369.02 C 600.96 362.42 620.26 371.69 623.92 357.92 C 633.42 340.36 640.46 315.47 661.00 308.00 C 683.97 316.36 682.95 347.32 689.98 367.02 C 695.91 390.17 710.14 412.88 703.00 438.00 C 700.04 450.15 697.33 462.43 696.00 475.00
M 447.00 791.00 
C 448.57 793.94 448.71 800.13 447.00 803.00
C 442.70 823.13 417.63 821.43 402.00 818.00
C 395.44 816.01 387.96 817.42 381.00 817.00
C 331.65 823.65 283.46 838.24 233.00 842.00
C 230.24 844.16 225.51 842.45 222.00 843.00
C 216.00 843.00 210.00 843.00 204.00 843.00
C 186.39 845.45 170.57 831.02 154.33 838.33 C 103.13 850.29 65.09 804.26 55.68 759.32 C 50.39 742.83 46.76 725.74 46.00 708.00
C 44.40 707.47 45.28 705.25 45.00 704.00
C 43.41 700.40 43.29 693.53 45.00 690.00
C 45.39 688.43 44.06 685.78 46.00 685.00
C 47.08 674.61 47.91 655.89 59.22 653.78 C 73.87 672.99 74.85 698.87 85.92 720.08 C 93.82 741.66 106.17 761.64 120.00 780.00
C 125.14 783.37 128.33 789.63 134.00 792.00
C 134.66 783.83 132.67 774.34 135.00 767.00
C 150.37 632.22 200.73 506.86 246.00 381.00
C 287.83 393.97 329.50 407.98 371.08 421.92 C 382.64 428.54 406.67 424.98 406.33 442.67 C 420.56 558.59 433.54 674.86 447.00 791.00
M 778.00 566.00 
C 786.66 573.84 795.22 582.38 803.00 591.00
C 845.01 639.15 883.43 692.83 893.98 756.02 C 904.19 766.32 919.03 754.13 927.25 746.25 C 935.49 735.95 942.39 724.22 944.00 711.00
C 942.42 707.73 942.29 701.20 944.00 698.00
C 943.02 694.24 941.90 690.48 940.00 687.00
C 937.04 684.79 934.10 681.98 932.00 679.00
C 911.94 668.44 890.73 652.06 888.00 628.00
C 886.61 627.74 887.22 625.95 887.00 625.00
C 885.39 620.74 885.30 613.19 887.00 609.00
C 887.22 608.70 887.90 608.26 888.00 608.00
C 891.32 578.76 903.65 548.53 928.75 530.75 C 941.41 523.36 961.13 519.08 970.75 534.25 C 974.61 551.91 956.26 558.65 945.30 567.30 C 934.24 577.45 925.45 590.18 924.00 605.00
C 924.00 609.00 924.00 613.00 924.00 617.00
C 926.53 634.87 940.12 646.80 955.00 656.00
C 959.56 657.85 963.69 662.67 966.00 667.00
C 973.05 676.41 977.04 687.58 979.00 699.00
C 979.86 704.28 980.59 709.75 979.00 715.00
C 976.70 735.77 967.06 755.57 953.00 771.00
C 949.48 775.32 945.30 779.56 941.00 783.00
C 931.91 791.74 920.75 798.65 908.98 802.98 C 896.95 810.77 879.98 804.41 872.25 819.25 C 847.71 835.70 817.19 837.74 788.00 840.00
C 774.05 839.47 759.55 841.14 746.00 839.00
C 725.56 837.78 705.37 835.63 685.33 832.67 C 665.59 831.38 645.72 823.31 626.00 828.00
C 622.33 828.00 618.67 828.00 615.00 828.00
C 598.07 827.57 589.16 809.27 597.00 795.00
C 594.74 790.25 596.62 783.51 596.00 778.00
C 596.64 773.83 594.71 768.34 597.00 765.00
C 597.56 762.48 595.81 758.70 598.00 757.00
C 598.00 751.33 598.00 745.67 598.00 740.00
C 598.00 739.50 598.00 739.00 598.00 739.00
C 596.41 735.40 596.29 728.53 598.00 725.00
C 598.00 720.33 598.00 715.67 598.00 711.00
C 598.00 696.00 598.00 681.00 598.00 666.00
C 598.00 657.00 598.00 648.00 598.00 639.00
C 597.80 612.47 595.22 586.54 591.00 561.00
C 626.46 550.83 658.99 532.38 692.08 516.08 C 702.84 504.30 710.79 522.07 722.08 523.92 C 742.47 535.15 760.03 550.91 778.00 566.00 Z"/>
</g>
<g fill="None" fill-opacity="0.0" stroke="#000000" stroke-opacity="1.00" stroke-width="0.3"><path d="
M 532.00 281.00 
C 530.40 277.07 530.30 269.86 532.00 266.00
C 529.35 236.92 491.99 239.93 470.00 238.00
C 461.83 237.34 452.34 239.33 445.00 237.00
C 437.02 232.96 435.34 220.02 429.31 212.70 C 420.54 192.83 399.39 182.26 378.00 185.00
C 371.84 184.34 364.34 186.32 359.00 184.00
C 359.66 177.17 357.68 169.01 360.00 163.00
C 359.37 149.25 359.47 132.09 347.22 123.78 C 333.33 120.20 325.63 136.97 319.77 146.77 C 288.80 208.17 273.85 275.73 256.93 341.93 C 249.87 357.66 274.68 357.18 283.77 363.23 C 322.04 377.73 360.39 393.08 401.00 400.00
C 399.43 375.87 417.48 357.19 440.93 355.93 C 462.05 350.41 483.12 344.36 502.92 334.92 C 524.04 326.17 530.12 301.64 532.00 281.00 Z"/>
</g>
<g fill="None" fill-opacity="0.0" stroke="#000000" stroke-opacity="0.58" stroke-width="0.3"><path d="
M 359.00 184.00 
C 359.00 184.04 360.00 184.00 360.00 184.00
C 360.25 183.75 360.00 183.00 360.00 183.00
C 360.00 176.33 360.00 169.67 360.00 163.00
C 357.68 169.01 359.66 177.17 359.00 184.00 Z"/>
</g>
<g fill="None" fill-opacity="0.0" stroke="#000000" stroke-opacity="0.32" stroke-width="0.3"><path d="
M 360.00 184.00 
C 366.00 184.00 372.00 184.00 378.00 184.00
C 372.99 181.68 365.83 183.66 360.00 183.00
C 360.00 183.00 360.25 183.75 360.00 184.00 Z"/>
</g>
<g fill="None" fill-opacity="0.0" stroke="#000000" stroke-opacity="0.87" stroke-width="0.3"><path d="
M 378.00 185.00 
C 378.00 185.00 378.25 184.26 378.00 184.00
C 372.00 184.00 366.00 184.00 360.00 184.00
C 360.00 184.00 359.00 184.04 359.00 184.00
C 364.34 186.32 371.84 184.34 378.00 185.00 Z"/>
</g>
<g fill="None" fill-opacity="0.0" stroke="#000000" stroke-opacity="0.74" stroke-width="0.3"><path d="
M 470.00 238.00 
C 462.66 235.67 453.17 237.66 445.00 237.00
C 452.34 239.33 461.83 237.34 470.00 238.00 Z"/>
</g>
<g fill="None" fill-opacity="0.0" stroke="#000000" stroke-opacity="0.79" stroke-width="0.3"><path d="
M 532.00 281.00 
C 532.00 276.33 532.00 271.67 532.00 267.00
C 532.00 267.00 531.97 266.50 532.00 266.00
C 530.30 269.86 530.40 277.07 532.00 281.00 Z"/>
</g>
<g fill="None" fill-opacity="0.0" stroke="#000000" stroke-opacity="0.21" stroke-width="0.3"><path d="
M 532.00 281.00 
C 533.71 277.47 533.59 270.60 532.00 267.00
C 532.00 271.67 532.00 276.33 532.00 281.00 Z"/>
</g>
<g fill="None" fill-opacity="0.0" stroke="#000000" stroke-opacity="0.99" stroke-width="0.3"><path d="
M 527.00 436.00 
C 527.00 440.33 527.00 444.67 527.00 449.00
C 529.47 466.87 534.53 487.93 551.93 496.07 C 569.49 500.74 581.11 518.71 586.00 535.00
C 623.71 526.43 659.83 509.82 693.00 490.00
C 697.35 486.18 693.03 478.99 696.00 475.00
C 697.33 462.43 700.04 450.15 703.00 438.00 C 710.14 412.88 695.91 390.17 689.98 367.02 C 682.95 347.32 683.97 316.36 661.00 308.00 C 640.46 315.47 633.42 340.36 623.92 357.92 C 620.26 371.69 600.96 362.42 591.02 369.02 C 580.68 371.21 568.97 375.74 564.33 386.33 C 561.08 408.02 538.76 420.14 527.00 436.00 Z"/>
</g>
<g fill="None" fill-opacity="0.0" stroke="#000000" stroke-opacity="1.00" stroke-width="0.3"><path d="
M 135.00 767.00 
C 135.38 776.33 134.08 786.06 136.00 795.00
C 129.80 791.83 124.85 785.11 120.00 780.00
C 106.17 761.64 93.82 741.66 85.92 720.08 C 74.85 698.87 73.87 672.99 59.22 653.78 C 47.91 655.89 47.08 674.61 46.00 685.00
C 46.00 692.67 46.00 700.33 46.00 708.00
C 46.76 725.74 50.39 742.83 55.68 759.32 C 65.09 804.26 103.13 850.29 154.33 838.33 C 170.57 831.02 186.39 845.45 204.00 843.00
C 209.09 840.73 216.16 842.62 222.00 842.00
C 225.67 842.00 229.33 842.00 233.00 842.00
C 283.46 838.24 331.65 823.65 381.00 817.00
C 386.80 815.90 397.02 814.15 402.00 818.00
C 417.63 821.43 442.70 823.13 447.00 803.00
C 447.00 799.00 447.00 795.00 447.00 791.00
C 433.54 674.86 420.56 558.59 406.33 442.67 C 406.67 424.98 382.64 428.54 371.08 421.92 C 329.50 407.98 287.83 393.97 246.00 381.00
C 200.73 506.86 150.37 632.22 135.00 767.00 Z"/>
</g>
<g fill="None" fill-opacity="0.0" stroke="#000000" stroke-opacity="0.55" stroke-width="0.3"><path d="
M 527.00 449.00 
C 527.00 444.67 527.00 440.33 527.00 436.00
C 525.29 439.19 525.41 445.73 527.00 449.00 Z"/>
</g>
<g fill="None" fill-opacity="0.0" stroke="#000000" stroke-opacity="0.54" stroke-width="0.3"><path d="
M 693.00 490.00 
C 698.82 487.95 694.83 479.84 696.00 475.00
C 693.03 478.99 697.35 486.18 693.00 490.00 Z"/>
</g>
<g fill="None" fill-opacity="0.0" stroke="#000000" stroke-opacity="1.00" stroke-width="0.3"><path d="
M 598.00 639.00 
C 600.31 647.09 598.35 657.16 599.00 666.00
C 599.00 681.00 599.00 696.00 599.00 711.00
C 598.33 720.50 600.33 731.32 598.00 740.00
C 598.00 745.67 598.00 751.33 598.00 757.00
C 597.34 763.16 599.32 770.66 597.00 776.00
C 597.00 776.50 597.00 777.50 597.00 778.00
C 597.00 783.67 597.00 789.33 597.00 795.00
C 589.16 809.27 598.07 827.57 615.00 828.00
C 617.61 826.44 623.46 826.28 626.00 828.00
C 645.72 823.31 665.59 831.38 685.33 832.67 C 705.37 835.63 725.56 837.78 746.00 839.00
C 758.84 838.02 774.96 838.72 788.00 840.00
C 817.19 837.74 847.71 835.70 872.25 819.25 C 879.98 804.41 896.95 810.77 908.98 802.98 C 920.75 798.65 931.91 791.74 941.00 783.00
C 944.52 778.68 948.70 774.44 953.00 771.00
C 967.06 755.57 976.70 735.77 979.00 715.00
C 977.39 710.74 977.30 703.19 979.00 699.00
C 977.04 687.58 973.05 676.41 966.00 667.00
C 962.02 663.81 958.11 659.97 955.00 656.00
C 940.12 646.80 926.53 634.87 924.00 617.00
C 922.43 614.06 922.29 607.87 924.00 605.00
C 925.45 590.18 934.24 577.45 945.30 567.30 C 956.26 558.65 974.61 551.91 970.75 534.25 C 961.13 519.08 941.41 523.36 928.75 530.75 C 903.65 548.53 891.32 578.76 888.00 608.00
C 888.00 614.67 888.00 621.33 888.00 628.00
C 890.73 652.06 911.94 668.44 932.00 679.00
C 934.69 678.64 938.65 684.04 940.00 687.00
C 941.90 690.48 943.02 694.24 944.00 698.00
C 945.13 701.97 945.89 707.09 944.00 711.00
C 942.39 724.22 935.49 735.95 927.25 746.25 C 919.03 754.13 904.19 766.32 893.98 756.02 C 883.43 692.83 845.01 639.15 803.00 591.00
C 794.34 583.16 785.78 574.62 778.00 566.00
C 760.03 550.91 742.47 535.15 722.08 523.92 C 710.79 522.07 702.84 504.30 692.08 516.08 C 658.99 532.38 626.46 550.83 591.00 561.00
C 595.22 586.54 597.80 612.47 598.00 639.00 Z"/>
</g>
<g fill="None" fill-opacity="0.0" stroke="#000000" stroke-opacity="0.51" stroke-width="0.3"><path d="
M 803.00 591.00 
C 795.22 582.38 786.66 573.84 778.00 566.00
C 785.78 574.62 794.34 583.16 803.00 591.00 Z"/>
</g>
<g fill="None" fill-opacity="0.0" stroke="#000000" stroke-opacity="0.29" stroke-width="0.3"><path d="
M 924.00 617.00 
C 924.00 613.00 924.00 609.00 924.00 605.00
C 922.29 607.87 922.43 614.06 924.00 617.00 Z"/>
</g>
<g fill="None" fill-opacity="0.0" stroke="#000000" stroke-opacity="0.74" stroke-width="0.3"><path d="
M 887.00 609.00 
C 887.00 614.33 887.00 619.67 887.00 625.00
C 887.22 625.95 886.61 627.74 888.00 628.00
C 888.00 621.33 888.00 614.67 888.00 608.00
C 887.90 608.26 887.22 608.70 887.00 609.00 Z"/>
</g>
<g fill="None" fill-opacity="0.0" stroke="#000000" stroke-opacity="0.20" stroke-width="0.3"><path d="
M 887.00 625.00 
C 887.00 619.67 887.00 614.33 887.00 609.00
C 885.30 613.19 885.39 620.74 887.00 625.00 Z"/>
</g>
<g fill="None" fill-opacity="0.0" stroke="#000000" stroke-opacity="0.87" stroke-width="0.3"><path d="
M 598.00 666.00 
C 598.00 665.96 599.00 666.00 599.00 666.00
C 598.35 657.16 600.31 647.09 598.00 639.00
C 598.00 648.00 598.00 657.00 598.00 666.00 Z"/>
</g>
<g fill="None" fill-opacity="0.0" stroke="#000000" stroke-opacity="0.45" stroke-width="0.3"><path d="
M 966.00 667.00 
C 963.69 662.67 959.56 657.85 955.00 656.00
C 958.11 659.97 962.02 663.81 966.00 667.00 Z"/>
</g>
<g fill="None" fill-opacity="0.0" stroke="#000000" stroke-opacity="0.70" stroke-width="0.3"><path d="
M 598.00 711.00 
C 598.00 710.96 599.00 711.00 599.00 711.00
C 599.00 696.00 599.00 681.00 599.00 666.00
C 599.00 666.00 598.00 665.96 598.00 666.00
C 598.00 681.00 598.00 696.00 598.00 711.00 Z"/>
</g>
<g fill="None" fill-opacity="0.0" stroke="#000000" stroke-opacity="0.55" stroke-width="0.3"><path d="
M 932.00 679.00 
C 934.10 681.98 937.04 684.79 940.00 687.00
C 938.65 684.04 934.69 678.64 932.00 679.00 Z"/>
</g>
<g fill="None" fill-opacity="0.0" stroke="#000000" stroke-opacity="0.83" stroke-width="0.3"><path d="
M 45.00 690.00 
C 45.00 694.67 45.00 699.33 45.00 704.00
C 45.28 705.25 44.40 707.47 46.00 708.00
C 46.00 700.33 46.00 692.67 46.00 685.00
C 44.06 685.78 45.39 688.43 45.00 690.00 Z"/>
</g>
<g fill="None" fill-opacity="0.0" stroke="#000000" stroke-opacity="0.22" stroke-width="0.3"><path d="
M 45.00 704.00 
C 45.00 699.33 45.00 694.67 45.00 690.00
C 43.29 693.53 43.41 700.40 45.00 704.00 Z"/>
</g>
<g fill="None" fill-opacity="0.0" stroke="#000000" stroke-opacity="0.40" stroke-width="0.3"><path d="
M 944.00 711.00 
C 945.89 707.09 945.13 701.97 944.00 698.00
C 942.29 701.20 942.42 707.73 944.00 711.00 Z"/>
</g>
<g fill="None" fill-opacity="0.0" stroke="#000000" stroke-opacity="0.59" stroke-width="0.3"><path d="
M 979.00 715.00 
C 980.59 709.75 979.86 704.28 979.00 699.00
C 977.30 703.19 977.39 710.74 979.00 715.00 Z"/>
</g>
<g fill="None" fill-opacity="0.0" stroke="#000000" stroke-opacity="0.84" stroke-width="0.3"><path d="
M 598.00 725.00 
C 598.00 729.67 598.00 734.33 598.00 739.00
C 598.00 739.00 598.00 739.50 598.00 740.00
C 600.33 731.32 598.33 720.50 599.00 711.00
C 599.00 711.00 598.00 710.96 598.00 711.00
C 598.00 715.67 598.00 720.33 598.00 725.00 Z"/>
</g>
<g fill="None" fill-opacity="0.0" stroke="#000000" stroke-opacity="0.19" stroke-width="0.3"><path d="
M 598.00 739.00 
C 598.00 734.33 598.00 729.67 598.00 725.00
C 596.29 728.53 596.41 735.40 598.00 739.00 Z"/>
</g>
<g fill="None" fill-opacity="0.0" stroke="#000000" stroke-opacity="0.74" stroke-width="0.3"><path d="
M 597.00 765.00 
C 597.00 768.67 597.00 772.33 597.00 776.00
C 599.32 770.66 597.34 763.16 598.00 757.00
C 595.81 758.70 597.56 762.48 597.00 765.00 Z"/>
</g>
<g fill="None" fill-opacity="0.0" stroke="#000000" stroke-opacity="0.20" stroke-width="0.3"><path d="
M 596.00 778.00 
C 596.00 777.96 597.00 778.00 597.00 778.00
C 597.00 777.50 597.00 776.50 597.00 776.00
C 597.00 772.33 597.00 768.67 597.00 765.00
C 594.71 768.34 596.64 773.83 596.00 778.00 Z"/>
</g>
<g fill="None" fill-opacity="0.0" stroke="#000000" stroke-opacity="0.51" stroke-width="0.3"><path d="
M 120.00 780.00 
C 124.85 785.11 129.80 791.83 136.00 795.00
C 134.08 786.06 135.38 776.33 135.00 767.00
C 132.67 774.34 134.66 783.83 134.00 792.00
C 128.33 789.63 125.14 783.37 120.00 780.00 Z"/>
</g>
<g fill="None" fill-opacity="0.0" stroke="#000000" stroke-opacity="0.54" stroke-width="0.3"><path d="
M 941.00 783.00 
C 945.30 779.56 949.48 775.32 953.00 771.00
C 948.70 774.44 944.52 778.68 941.00 783.00 Z"/>
</g>
<g fill="None" fill-opacity="0.0" stroke="#000000" stroke-opacity="0.44" stroke-width="0.3"><path d="
M 597.00 795.00 
C 597.00 789.33 597.00 783.67 597.00 778.00
C 597.00 778.00 596.00 777.96 596.00 778.00
C 596.62 783.51 594.74 790.25 597.00 795.00 Z"/>
</g>
<g fill="None" fill-opacity="0.0" stroke="#000000" stroke-opacity="0.14" stroke-width="0.3"><path d="
M 447.00 803.00 
C 448.71 800.13 448.57 793.94 447.00 791.00
C 447.00 795.00 447.00 799.00 447.00 803.00 Z"/>
</g>
<g fill="None" fill-opacity="0.0" stroke="#000000" stroke-opacity="0.59" stroke-width="0.3"><path d="
M 381.00 817.00 
C 387.96 817.42 395.44 816.01 402.00 818.00
C 397.02 814.15 386.80 815.90 381.00 817.00 Z"/>
</g>
<g fill="None" fill-opacity="0.0" stroke="#000000" stroke-opacity="0.59" stroke-width="0.3"><path d="
M 615.00 828.00 
C 618.67 828.00 622.33 828.00 626.00 828.00
C 623.46 826.28 617.61 826.44 615.00 828.00 Z"/>
</g>
<g fill="None" fill-opacity="0.0" stroke="#000000" stroke-opacity="0.58" stroke-width="0.3"><path d="
M 746.00 839.00 
C 759.55 841.14 774.05 839.47 788.00 840.00
C 774.96 838.72 758.84 838.02 746.00 839.00 Z"/>
</g>
<g fill="None" fill-opacity="0.0" stroke="#000000" stroke-opacity="0.37" stroke-width="0.3"><path d="
M 204.00 843.00 
C 210.00 843.00 216.00 843.00 222.00 843.00
C 221.96 843.00 222.00 842.00 222.00 842.00
C 216.16 842.62 209.09 840.73 204.00 843.00 Z"/>
</g>
<g fill="None" fill-opacity="0.0" stroke="#000000" stroke-opacity="0.16" stroke-width="0.3"><path d="
M 222.00 843.00 
C 225.51 842.45 230.24 844.16 233.00 842.00
C 229.33 842.00 225.67 842.00 222.00 842.00
C 222.00 842.00 221.96 843.00 222.00 843.00 Z"/>
</g>
<g fill="#000000" fill-opacity="0.00" stroke="None">
<path d="
M 0.00 1024.00 
L 1024.00 1024.00
L 1024.00 0.00
L 0.00 0.00
L 0.00 1024.00
M 360.00 163.00 
C 360.00 169.67 360.00 176.33 360.00 183.00
C 365.83 183.66 372.99 181.68 378.00 184.00
C 378.25 184.26 378.00 185.00 378.00 185.00
C 399.39 182.26 420.54 192.83 429.31 212.70 C 435.34 220.02 437.02 232.96 445.00 237.00
C 453.17 237.66 462.66 235.67 470.00 238.00
C 491.99 239.93 529.35 236.92 532.00 266.00
C 531.97 266.50 532.00 267.00 532.00 267.00
C 533.59 270.60 533.71 277.47 532.00 281.00
C 530.12 301.64 524.04 326.17 502.92 334.92 C 483.12 344.36 462.05 350.41 440.93 355.93 C 417.48 357.19 399.43 375.87 401.00 400.00
C 360.39 393.08 322.04 377.73 283.77 363.23 C 274.68 357.18 249.87 357.66 256.93 341.93 C 273.85 275.73 288.80 208.17 319.77 146.77 C 325.63 136.97 333.33 120.20 347.22 123.78 C 359.47 132.09 359.37 149.25 360.00 163.00
M 696.00 475.00 
C 694.83 479.84 698.82 487.95 693.00 490.00
C 659.83 509.82 623.71 526.43 586.00 535.00
C 581.11 518.71 569.49 500.74 551.93 496.07 C 534.53 487.93 529.47 466.87 527.00 449.00
C 525.41 445.73 525.29 439.19 527.00 436.00
C 538.76 420.14 561.08 408.02 564.33 386.33 C 568.97 375.74 580.68 371.21 591.02 369.02 C 600.96 362.42 620.26 371.69 623.92 357.92 C 633.42 340.36 640.46 315.47 661.00 308.00 C 683.97 316.36 682.95 347.32 689.98 367.02 C 695.91 390.17 710.14 412.88 703.00 438.00 C 700.04 450.15 697.33 462.43 696.00 475.00
M 447.00 791.00 
C 448.57 793.94 448.71 800.13 447.00 803.00
C 442.70 823.13 417.63 821.43 402.00 818.00
C 395.44 816.01 387.96 817.42 381.00 817.00
C 331.65 823.65 283.46 838.24 233.00 842.00
C 230.24 844.16 225.51 842.45 222.00 843.00
C 216.00 843.00 210.00 843.00 204.00 843.00
C 186.39 845.45 170.57 831.02 154.33 838.33 C 103.13 850.29 65.09 804.26 55.68 759.32 C 50.39 742.83 46.76 725.74 46.00 708.00
C 44.40 707.47 45.28 705.25 45.00 704.00
C 43.41 700.40 43.29 693.53 45.00 690.00
C 45.39 688.43 44.06 685.78 46.00 685.00
C 47.08 674.61 47.91 655.89 59.22 653.78 C 73.87 672.99 74.85 698.87 85.92 720.08 C 93.82 741.66 106.17 761.64 120.00 780.00
C 125.14 783.37 128.33 789.63 134.00 792.00
C 134.66 783.83 132.67 774.34 135.00 767.00
C 150.37 632.22 200.73 506.86 246.00 381.00
C 287.83 393.97 329.50 407.98 371.08 421.92 C 382.64 428.54 406.67 424.98 406.33 442.67 C 420.56 558.59 433.54 674.86 447.00 791.00
M 778.00 566.00 
C 786.66 573.84 795.22 582.38 803.00 591.00
C 845.01 639.15 883.43 692.83 893.98 756.02 C 904.19 766.32 919.03 754.13 927.25 746.25 C 935.49 735.95 942.39 724.22 944.00 711.00
C 942.42 707.73 942.29 701.20 944.00 698.00
C 943.02 694.24 941.90 690.48 940.00 687.00
C 937.04 684.79 934.10 681.98 932.00 679.00
C 911.94 668.44 890.73 652.06 888.00 628.00
C 886.61 627.74 887.22 625.95 887.00 625.00
C 885.39 620.74 885.30 613.19 887.00 609.00
C 887.22 608.70 887.90 608.26 888.00 608.00
C 891.32 578.76 903.65 548.53 928.75 530.75 C 941.41 523.36 961.13 519.08 970.75 534.25 C 974.61 551.91 956.26 558.65 945.30 567.30 C 934.24 577.45 925.45 590.18 924.00 605.00
C 924.00 609.00 924.00 613.00 924.00 617.00
C 926.53 634.87 940.12 646.80 955.00 656.00
C 959.56 657.85 963.69 662.67 966.00 667.00
C 973.05 676.41 977.04 687.58 979.00 699.00
C 979.86 704.28 980.59 709.75 979.00 715.00
C 976.70 735.77 967.06 755.57 953.00 771.00
C 949.48 775.32 945.30 779.56 941.00 783.00
C 931.91 791.74 920.75 798.65 908.98 802.98 C 896.95 810.77 879.98 804.41 872.25 819.25 C 847.71 835.70 817.19 837.74 788.00 840.00
C 774.05 839.47 759.55 841.14 746.00 839.00
C 725.56 837.78 705.37 835.63 685.33 832.67 C 665.59 831.38 645.72 823.31 626.00 828.00
C 622.33 828.00 618.67 828.00 615.00 828.00
C 598.07 827.57 589.16 809.27 597.00 795.00
C 594.74 790.25 596.62 783.51 596.00 778.00
C 596.64 773.83 594.71 768.34 597.00 765.00
C 597.56 762.48 595.81 758.70 598.00 757.00
C 598.00 751.33 598.00 745.67 598.00 740.00
C 598.00 739.50 598.00 739.00 598.00 739.00
C 596.41 735.40 596.29 728.53 598.00 725.00
C 598.00 720.33 598.00 715.67 598.00 711.00
C 598.00 696.00 598.00 681.00 598.00 666.00
C 598.00 657.00 598.00 648.00 598.00 639.00
C 597.80 612.47 595.22 586.54 591.00 561.00
C 626.46 550.83 658.99 532.38 692.08 516.08 C 702.84 504.30 710.79 522.07 722.08 523.92 C 742.47 535.15 760.03 550.91 778.00 566.00 Z"/>
</g>
<g fill="#000000" fill-opacity="1.00" stroke="None">
<path d="
M 532.00 281.00 
C 530.40 277.07 530.30 269.86 532.00 266.00
C 529.35 236.92 491.99 239.93 470.00 238.00
C 461.83 237.34 452.34 239.33 445.00 237.00
C 437.02 232.96 435.34 220.02 429.31 212.70 C 420.54 192.83 399.39 182.26 378.00 185.00
C 371.84 184.34 364.34 186.32 359.00 184.00
C 359.66 177.17 357.68 169.01 360.00 163.00
C 359.37 149.25 359.47 132.09 347.22 123.78 C 333.33 120.20 325.63 136.97 319.77 146.77 C 288.80 208.17 273.85 275.73 256.93 341.93 C 249.87 357.66 274.68 357.18 283.77 363.23 C 322.04 377.73 360.39 393.08 401.00 400.00
C 399.43 375.87 417.48 357.19 440.93 355.93 C 462.05 350.41 483.12 344.36 502.92 334.92 C 524.04 326.17 530.12 301.64 532.00 281.00 Z"/>
</g>
<g fill="#000000" fill-opacity="0.58" stroke="None">
<path d="
M 359.00 184.00 
C 359.00 184.04 360.00 184.00 360.00 184.00
C 360.25 183.75 360.00 183.00 360.00 183.00
C 360.00 176.33 360.00 169.67 360.00 163.00
C 357.68 169.01 359.66 177.17 359.00 184.00 Z"/>
</g>
<g fill="#000000" fill-opacity="0.32" stroke="None">
<path d="
M 360.00 184.00 
C 366.00 184.00 372.00 184.00 378.00 184.00
C 372.99 181.68 365.83 183.66 360.00 183.00
C 360.00 183.00 360.25 183.75 360.00 184.00 Z"/>
</g>
<g fill="#000000" fill-opacity="0.87" stroke="None">
<path d="
M 378.00 185.00 
C 378.00 185.00 378.25 184.26 378.00 184.00
C 372.00 184.00 366.00 184.00 360.00 184.00
C 360.00 184.00 359.00 184.04 359.00 184.00
C 364.34 186.32 371.84 184.34 378.00 185.00 Z"/>
</g>
<g fill="#000000" fill-opacity="0.74" stroke="None">
<path d="
M 470.00 238.00 
C 462.66 235.67 453.17 237.66 445.00 237.00
C 452.34 239.33 461.83 237.34 470.00 238.00 Z"/>
</g>
<g fill="#000000" fill-opacity="0.79" stroke="None">
<path d="
M 532.00 281.00 
C 532.00 276.33 532.00 271.67 532.00 267.00
C 532.00 267.00 531.97 266.50 532.00 266.00
C 530.30 269.86 530.40 277.07 532.00 281.00 Z"/>
</g>
<g fill="#000000" fill-opacity="0.21" stroke="None">
<path d="
M 532.00 281.00 
C 533.71 277.47 533.59 270.60 532.00 267.00
C 532.00 271.67 532.00 276.33 532.00 281.00 Z"/>
</g>
<g fill="#000000" fill-opacity="0.99" stroke="None">
<path d="
M 527.00 436.00 
C 527.00 440.33 527.00 444.67 527.00 449.00
C 529.47 466.87 534.53 487.93 551.93 496.07 C 569.49 500.74 581.11 518.71 586.00 535.00
C 623.71 526.43 659.83 509.82 693.00 490.00
C 697.35 486.18 693.03 478.99 696.00 475.00
C 697.33 462.43 700.04 450.15 703.00 438.00 C 710.14 412.88 695.91 390.17 689.98 367.02 C 682.95 347.32 683.97 316.36 661.00 308.00 C 640.46 315.47 633.42 340.36 623.92 357.92 C 620.26 371.69 600.96 362.42 591.02 369.02 C 580.68 371.21 568.97 375.74 564.33 386.33 C 561.08 408.02 538.76 420.14 527.00 436.00 Z"/>
</g>
<g fill="#000000" fill-opacity="1.00" stroke="None">
<path d="
M 135.00 767.00 
C 135.38 776.33 134.08 786.06 136.00 795.00
C 129.80 791.83 124.85 785.11 120.00 780.00
C 106.17 761.64 93.82 741.66 85.92 720.08 C 74.85 698.87 73.87 672.99 59.22 653.78 C 47.91 655.89 47.08 674.61 46.00 685.00
C 46.00 692.67 46.00 700.33 46.00 708.00
C 46.76 725.74 50.39 742.83 55.68 759.32 C 65.09 804.26 103.13 850.29 154.33 838.33 C 170.57 831.02 186.39 845.45 204.00 843.00
C 209.09 840.73 216.16 842.62 222.00 842.00
C 225.67 842.00 229.33 842.00 233.00 842.00
C 283.46 838.24 331.65 823.65 381.00 817.00
C 386.80 815.90 397.02 814.15 402.00 818.00
C 417.63 821.43 442.70 823.13 447.00 803.00
C 447.00 799.00 447.00 795.00 447.00 791.00
C 433.54 674.86 420.56 558.59 406.33 442.67 C 406.67 424.98 382.64 428.54 371.08 421.92 C 329.50 407.98 287.83 393.97 246.00 381.00
C 200.73 506.86 150.37 632.22 135.00 767.00 Z"/>
</g>
<g fill="#000000" fill-opacity="0.55" stroke="None">
<path d="
M 527.00 449.00 
C 527.00 444.67 527.00 440.33 527.00 436.00
C 525.29 439.19 525.41 445.73 527.00 449.00 Z"/>
</g>
<g fill="#000000" fill-opacity="0.54" stroke="None">
<path d="
M 693.00 490.00 
C 698.82 487.95 694.83 479.84 696.00 475.00
C 693.03 478.99 697.35 486.18 693.00 490.00 Z"/>
</g>
<g fill="#000000" fill-opacity="1.00" stroke="None">
<path d="
M 598.00 639.00 
C 600.31 647.09 598.35 657.16 599.00 666.00
C 599.00 681.00 599.00 696.00 599.00 711.00
C 598.33 720.50 600.33 731.32 598.00 740.00
C 598.00 745.67 598.00 751.33 598.00 757.00
C 597.34 763.16 599.32 770.66 597.00 776.00
C 597.00 776.50 597.00 777.50 597.00 778.00
C 597.00 783.67 597.00 789.33 597.00 795.00
C 589.16 809.27 598.07 827.57 615.00 828.00
C 617.61 826.44 623.46 826.28 626.00 828.00
C 645.72 823.31 665.59 831.38 685.33 832.67 C 705.37 835.63 725.56 837.78 746.00 839.00
C 758.84 838.02 774.96 838.72 788.00 840.00
C 817.19 837.74 847.71 835.70 872.25 819.25 C 879.98 804.41 896.95 810.77 908.98 802.98 C 920.75 798.65 931.91 791.74 941.00 783.00
C 944.52 778.68 948.70 774.44 953.00 771.00
C 967.06 755.57 976.70 735.77 979.00 715.00
C 977.39 710.74 977.30 703.19 979.00 699.00
C 977.04 687.58 973.05 676.41 966.00 667.00
C 962.02 663.81 958.11 659.97 955.00 656.00
C 940.12 646.80 926.53 634.87 924.00 617.00
C 922.43 614.06 922.29 607.87 924.00 605.00
C 925.45 590.18 934.24 577.45 945.30 567.30 C 956.26 558.65 974.61 551.91 970.75 534.25 C 961.13 519.08 941.41 523.36 928.75 530.75 C 903.65 548.53 891.32 578.76 888.00 608.00
C 888.00 614.67 888.00 621.33 888.00 628.00
C 890.73 652.06 911.94 668.44 932.00 679.00
C 934.69 678.64 938.65 684.04 940.00 687.00
C 941.90 690.48 943.02 694.24 944.00 698.00
C 945.13 701.97 945.89 707.09 944.00 711.00
C 942.39 724.22 935.49 735.95 927.25 746.25 C 919.03 754.13 904.19 766.32 893.98 756.02 C 883.43 692.83 845.01 639.15 803.00 591.00
C 794.34 583.16 785.78 574.62 778.00 566.00
C 760.03 550.91 742.47 535.15 722.08 523.92 C 710.79 522.07 702.84 504.30 692.08 516.08 C 658.99 532.38 626.46 550.83 591.00 561.00
C 595.22 586.54 597.80 612.47 598.00 639.00 Z"/>
</g>
<g fill="#000000" fill-opacity="0.51" stroke="None">
<path d="
M 803.00 591.00 
C 795.22 582.38 786.66 573.84 778.00 566.00
C 785.78 574.62 794.34 583.16 803.00 591.00 Z"/>
</g>
<g fill="#000000" fill-opacity="0.29" stroke="None">
<path d="
M 924.00 617.00 
C 924.00 613.00 924.00 609.00 924.00 605.00
C 922.29 607.87 922.43 614.06 924.00 617.00 Z"/>
</g>
<g fill="#000000" fill-opacity="0.74" stroke="None">
<path d="
M 887.00 609.00 
C 887.00 614.33 887.00 619.67 887.00 625.00
C 887.22 625.95 886.61 627.74 888.00 628.00
C 888.00 621.33 888.00 614.67 888.00 608.00
C 887.90 608.26 887.22 608.70 887.00 609.00 Z"/>
</g>
<g fill="#000000" fill-opacity="0.20" stroke="None">
<path d="
M 887.00 625.00 
C 887.00 619.67 887.00 614.33 887.00 609.00
C 885.30 613.19 885.39 620.74 887.00 625.00 Z"/>
</g>
<g fill="#000000" fill-opacity="0.87" stroke="None">
<path d="
M 598.00 666.00 
C 598.00 665.96 599.00 666.00 599.00 666.00
C 598.35 657.16 600.31 647.09 598.00 639.00
C 598.00 648.00 598.00 657.00 598.00 666.00 Z"/>
</g>
<g fill="#000000" fill-opacity="0.45" stroke="None">
<path d="
M 966.00 667.00 
C 963.69 662.67 959.56 657.85 955.00 656.00
C 958.11 659.97 962.02 663.81 966.00 667.00 Z"/>
</g>
<g fill="#000000" fill-opacity="0.70" stroke="None">
<path d="
M 598.00 711.00 
C 598.00 710.96 599.00 711.00 599.00 711.00
C 599.00 696.00 599.00 681.00 599.00 666.00
C 599.00 666.00 598.00 665.96 598.00 666.00
C 598.00 681.00 598.00 696.00 598.00 711.00 Z"/>
</g>
<g fill="#000000" fill-opacity="0.55" stroke="None">
<path d="
M 932.00 679.00 
C 934.10 681.98 937.04 684.79 940.00 687.00
C 938.65 684.04 934.69 678.64 932.00 679.00 Z"/>
</g>
<g fill="#000000" fill-opacity="0.83" stroke="None">
<path d="
M 45.00 690.00 
C 45.00 694.67 45.00 699.33 45.00 704.00
C 45.28 705.25 44.40 707.47 46.00 708.00
C 46.00 700.33 46.00 692.67 46.00 685.00
C 44.06 685.78 45.39 688.43 45.00 690.00 Z"/>
</g>
<g fill="#000000" fill-opacity="0.22" stroke="None">
<path d="
M 45.00 704.00 
C 45.00 699.33 45.00 694.67 45.00 690.00
C 43.29 693.53 43.41 700.40 45.00 704.00 Z"/>
</g>
<g fill="#000000" fill-opacity="0.40" stroke="None">
<path d="
M 944.00 711.00 
C 945.89 707.09 945.13 701.97 944.00 698.00
C 942.29 701.20 942.42 707.73 944.00 711.00 Z"/>
</g>
<g fill="#000000" fill-opacity="0.59" stroke="None">
<path d="
M 979.00 715.00 
C 980.59 709.75 979.86 704.28 979.00 699.00
C 977.30 703.19 977.39 710.74 979.00 715.00 Z"/>
</g>
<g fill="#000000" fill-opacity="0.84" stroke="None">
<path d="
M 598.00 725.00 
C 598.00 729.67 598.00 734.33 598.00 739.00
C 598.00 739.00 598.00 739.50 598.00 740.00
C 600.33 731.32 598.33 720.50 599.00 711.00
C 599.00 711.00 598.00 710.96 598.00 711.00
C 598.00 715.67 598.00 720.33 598.00 725.00 Z"/>
</g>
<g fill="#000000" fill-opacity="0.19" stroke="None">
<path d="
M 598.00 739.00 
C 598.00 734.33 598.00 729.67 598.00 725.00
C 596.29 728.53 596.41 735.40 598.00 739.00 Z"/>
</g>
<g fill="#000000" fill-opacity="0.74" stroke="None">
<path d="
M 597.00 765.00 
C 597.00 768.67 597.00 772.33 597.00 776.00
C 599.32 770.66 597.34 763.16 598.00 757.00
C 595.81 758.70 597.56 762.48 597.00 765.00 Z"/>
</g>
<g fill="#000000" fill-opacity="0.20" stroke="None">
<path d="
M 596.00 778.00 
C 596.00 777.96 597.00 778.00 597.00 778.00
C 597.00 777.50 597.00 776.50 597.00 776.00
C 597.00 772.33 597.00 768.67 597.00 765.00
C 594.71 768.34 596.64 773.83 596.00 778.00 Z"/>
</g>
<g fill="#000000" fill-opacity="0.51" stroke="None">
<path d="
M 120.00 780.00 
C 124.85 785.11 129.80 791.83 136.00 795.00
C 134.08 786.06 135.38 776.33 135.00 767.00
C 132.67 774.34 134.66 783.83 134.00 792.00
C 128.33 789.63 125.14 783.37 120.00 780.00 Z"/>
</g>
<g fill="#000000" fill-opacity="0.54" stroke="None">
<path d="
M 941.00 783.00 
C 945.30 779.56 949.48 775.32 953.00 771.00
C 948.70 774.44 944.52 778.68 941.00 783.00 Z"/>
</g>
<g fill="#000000" fill-opacity="0.44" stroke="None">
<path d="
M 597.00 795.00 
C 597.00 789.33 597.00 783.67 597.00 778.00
C 597.00 778.00 596.00 777.96 596.00 778.00
C 596.62 783.51 594.74 790.25 597.00 795.00 Z"/>
</g>
<g fill="#000000" fill-opacity="0.14" stroke="None">
<path d="
M 447.00 803.00 
C 448.71 800.13 448.57 793.94 447.00 791.00
C 447.00 795.00 447.00 799.00 447.00 803.00 Z"/>
</g>
<g fill="#000000" fill-opacity="0.59" stroke="None">
<path d="
M 381.00 817.00 
C 387.96 817.42 395.44 816.01 402.00 818.00
C 397.02 814.15 386.80 815.90 381.00 817.00 Z"/>
</g>
<g fill="#000000" fill-opacity="0.59" stroke="None">
<path d="
M 615.00 828.00 
C 618.67 828.00 622.33 828.00 626.00 828.00
C 623.46 826.28 617.61 826.44 615.00 828.00 Z"/>
</g>
<g fill="#000000" fill-opacity="0.58" stroke="None">
<path d="
M 746.00 839.00 
C 759.55 841.14 774.05 839.47 788.00 840.00
C 774.96 838.72 758.84 838.02 746.00 839.00 Z"/>
</g>
<g fill="#000000" fill-opacity="0.37" stroke="None">
<path d="
M 204.00 843.00 
C 210.00 843.00 216.00 843.00 222.00 843.00
C 221.96 843.00 222.00 842.00 222.00 842.00
C 216.16 842.62 209.09 840.73 204.00 843.00 Z"/>
</g>
<g fill="#000000" fill-opacity="0.16" stroke="None">
<path d="
M 222.00 843.00 
C 225.51 842.45 230.24 844.16 233.00 842.00
C 229.33 842.00 225.67 842.00 222.00 842.00
C 222.00 842.00 221.96 843.00 222.00 843.00 Z"/>
</g>
</svg>