<svg xmlns="http://www.w3.org/2000/svg" xmlns:v="https://svgstorm.com"
viewBox = "0 0 419 720"
width="419"
height="720">
<g fill="None" fill-opacity="0.0" stroke="#000000" stroke-opacity="0.00" stroke-width="0.3"><path d="
M 0.00 129.00 
C 1.96 126.62 2.62 124.94 3.00 122.00
C 8.53 124.77 11.73 128.61 19.00 127.00
C 40.45 147.00 53.99 162.12 84.00 159.00
C 103.66 158.03 155.18 179.72 184.92 161.91 C 214.65 144.11 234.09 126.32 258.80 101.75 C 283.51 77.18 250.68 52.79 247.00 23.00
C 262.72 13.26 275.96 6.58 292.00 0.00
L 0.00 0.00
L 0.00 129.00 Z"/>
</g>
<g fill="None" fill-opacity="0.0" stroke="#000000" stroke-opacity="0.99" stroke-width="0.3"><path d="
M 0.00 129.00 
L 0.00 140.00
C 14.96 162.30 34.13 163.32 54.00 177.00
C 57.81 191.42 82.97 187.22 98.75 192.39 C 114.54 197.56 131.83 203.35 147.77 206.57 C 163.70 209.80 182.21 221.46 199.00 213.00
C 195.13 246.15 214.86 263.63 226.58 287.77 C 238.29 311.91 255.42 328.22 261.71 353.30 C 268.00 378.39 290.88 394.01 302.58 421.77 C 314.27 449.53 296.71 503.19 313.12 523.90 C 329.52 544.61 339.17 571.64 350.39 592.75 C 361.62 613.86 372.99 658.79 343.00 664.00
C 342.30 671.24 335.47 675.46 340.00 683.00
C 348.94 683.37 360.64 687.15 370.00 682.00
C 370.40 688.83 365.21 698.71 357.00 696.00
C 353.94 702.86 354.79 708.36 349.00 714.00
C 351.82 714.38 353.28 714.36 354.00 718.00
C 357.83 717.76 359.81 717.11 362.00 720.00
L 369.00 720.00
C 373.98 713.92 380.83 722.04 386.00 715.00
C 384.21 681.05 396.70 657.41 398.13 628.08 C 399.57 598.76 368.73 582.31 376.00 547.00
C 367.71 518.92 403.35 480.26 381.00 452.00
C 382.48 449.03 381.00 447.44 383.00 445.00
C 384.72 445.88 386.20 445.75 388.00 445.00
C 411.34 469.76 401.76 503.03 394.00 534.00
C 412.84 530.79 412.42 508.65 419.00 496.00
L 419.00 470.00
C 391.67 406.67 354.81 357.51 339.41 289.25 C 324.00 221.00 325.54 115.37 350.00 53.00
C 353.75 69.96 344.19 88.48 357.00 100.00
C 366.68 91.43 382.69 81.85 386.00 71.00
C 374.11 33.26 339.95 0.87 294.00 0.00
L 292.00 0.00
C 275.96 6.58 262.72 13.26 247.00 23.00
C 250.68 52.79 283.51 77.18 258.80 101.75 C 234.09 126.32 214.65 144.11 184.92 161.91 C 155.18 179.72 103.66 158.03 84.00 159.00
C 53.99 162.12 40.45 147.00 19.00 127.00
C 11.73 128.61 8.53 124.77 3.00 122.00
C 2.62 124.94 1.96 126.62 0.00 129.00
M 276.00 53.00 
C 274.69 58.77 280.24 62.24 275.00 67.00
C 274.54 63.20 271.97 56.09 276.00 53.00
M 376.00 653.00 
C 375.20 660.16 375.43 667.05 372.00 672.00
C 371.97 666.78 372.11 656.36 376.00 653.00 Z"/>
</g>
<g fill="None" fill-opacity="0.0" stroke="#000000" stroke-opacity="0.01" stroke-width="0.3"><path d="
M 419.00 470.00 
L 419.00 0.00
L 294.00 0.00
C 339.95 0.87 374.11 33.26 386.00 71.00
C 382.69 81.85 366.68 91.43 357.00 100.00
C 344.19 88.48 353.75 69.96 350.00 53.00
C 325.54 115.37 324.00 221.00 339.41 289.25 C 354.81 357.51 391.67 406.67 419.00 470.00 Z"/>
</g>
<g fill="None" fill-opacity="0.0" stroke="#000000" stroke-opacity="0.40" stroke-width="0.3"><path d="
M 276.00 53.00 
C 271.97 56.09 274.54 63.20 275.00 67.00
C 280.24 62.24 274.69 58.77 276.00 53.00 Z"/>
</g>
<g fill="None" fill-opacity="0.0" stroke="#000000" stroke-opacity="0.00" stroke-width="0.3"><path d="
M 0.00 720.00 
L 362.00 720.00
C 359.81 717.11 357.83 717.76 354.00 718.00
C 353.28 714.36 351.82 714.38 349.00 714.00
C 354.79 708.36 353.94 702.86 357.00 696.00
C 365.21 698.71 370.40 688.83 370.00 682.00
C 360.64 687.15 348.94 683.37 340.00 683.00
C 335.47 675.46 342.30 671.24 343.00 664.00
C 372.99 658.79 361.62 613.86 350.39 592.75 C 339.17 571.64 329.52 544.61 313.12 523.90 C 296.71 503.19 314.27 449.53 302.58 421.77 C 290.88 394.01 268.00 378.39 261.71 353.30 C 255.42 328.22 238.29 311.91 226.58 287.77 C 214.86 263.63 195.13 246.15 199.00 213.00
C 182.21 221.46 163.70 209.80 147.77 206.57 C 131.83 203.35 114.54 197.56 98.75 192.39 C 82.97 187.22 57.81 191.42 54.00 177.00
C 34.13 163.32 14.96 162.30 0.00 140.00
L 0.00 720.00 Z"/>
</g>
<g fill="None" fill-opacity="0.0" stroke="#000000" stroke-opacity="0.02" stroke-width="0.3"><path d="
M 369.00 720.00 
L 419.00 720.00
L 419.00 496.00
C 412.42 508.65 412.84 530.79 394.00 534.00
C 401.76 503.03 411.34 469.76 388.00 445.00
C 386.20 445.75 384.72 445.88 383.00 445.00
C 381.00 447.44 382.48 449.03 381.00 452.00
C 403.35 480.26 367.71 518.92 376.00 547.00
C 368.73 582.31 399.57 598.76 398.13 628.08 C 396.70 657.41 384.21 681.05 386.00 715.00
C 380.83 722.04 373.98 713.92 369.00 720.00 Z"/>
</g>
<g fill="None" fill-opacity="0.0" stroke="#000000" stroke-opacity="0.37" stroke-width="0.3"><path d="
M 376.00 653.00 
C 372.11 656.36 371.97 666.78 372.00 672.00
C 375.43 667.05 375.20 660.16 376.00 653.00 Z"/>
</g>
<g fill="#000000" fill-opacity="0.00" stroke="None"><path d="
M 0.00 129.00 
C 1.96 126.62 2.62 124.94 3.00 122.00
C 8.53 124.77 11.73 128.61 19.00 127.00
C 40.45 147.00 53.99 162.12 84.00 159.00
C 103.66 158.03 155.18 179.72 184.92 161.91 C 214.65 144.11 234.09 126.32 258.80 101.75 C 283.51 77.18 250.68 52.79 247.00 23.00
C 262.72 13.26 275.96 6.58 292.00 0.00
L 0.00 0.00
L 0.00 129.00 Z"/>
</g>
<g fill="#000000" fill-opacity="0.99" stroke="None"><path d="
M 0.00 129.00 
L 0.00 140.00
C 14.96 162.30 34.13 163.32 54.00 177.00
C 57.81 191.42 82.97 187.22 98.75 192.39 C 114.54 197.56 131.83 203.35 147.77 206.57 C 163.70 209.80 182.21 221.46 199.00 213.00
C 195.13 246.15 214.86 263.63 226.58 287.77 C 238.29 311.91 255.42 328.22 261.71 353.30 C 268.00 378.39 290.88 394.01 302.58 421.77 C 314.27 449.53 296.71 503.19 313.12 523.90 C 329.52 544.61 339.17 571.64 350.39 592.75 C 361.62 613.86 372.99 658.79 343.00 664.00
C 342.30 671.24 335.47 675.46 340.00 683.00
C 348.94 683.37 360.64 687.15 370.00 682.00
C 370.40 688.83 365.21 698.71 357.00 696.00
C 353.94 702.86 354.79 708.36 349.00 714.00
C 351.82 714.38 353.28 714.36 354.00 718.00
C 357.83 717.76 359.81 717.11 362.00 720.00
L 369.00 720.00
C 373.98 713.92 380.83 722.04 386.00 715.00
C 384.21 681.05 396.70 657.41 398.13 628.08 C 399.57 598.76 368.73 582.31 376.00 547.00
C 367.71 518.92 403.35 480.26 381.00 452.00
C 382.48 449.03 381.00 447.44 383.00 445.00
C 384.72 445.88 386.20 445.75 388.00 445.00
C 411.34 469.76 401.76 503.03 394.00 534.00
C 412.84 530.79 412.42 508.65 419.00 496.00
L 419.00 470.00
C 391.67 406.67 354.81 357.51 339.41 289.25 C 324.00 221.00 325.54 115.37 350.00 53.00
C 353.75 69.96 344.19 88.48 357.00 100.00
C 366.68 91.43 382.69 81.85 386.00 71.00
C 374.11 33.26 339.95 0.87 294.00 0.00
L 292.00 0.00
C 275.96 6.58 262.72 13.26 247.00 23.00
C 250.68 52.79 283.51 77.18 258.80 101.75 C 234.09 126.32 214.65 144.11 184.92 161.91 C 155.18 179.72 103.66 158.03 84.00 159.00
C 53.99 162.12 40.45 147.00 19.00 127.00
C 11.73 128.61 8.53 124.77 3.00 122.00
C 2.62 124.94 1.96 126.62 0.00 129.00
M 276.00 53.00 
C 274.69 58.77 280.24 62.24 275.00 67.00
C 274.54 63.20 271.97 56.09 276.00 53.00
M 376.00 653.00 
C 375.20 660.16 375.43 667.05 372.00 672.00
C 371.97 666.78 372.11 656.36 376.00 653.00 Z"/>
</g>
<g fill="#000000" fill-opacity="0.01" stroke="None"><path d="
M 419.00 470.00 
L 419.00 0.00
L 294.00 0.00
C 339.95 0.87 374.11 33.26 386.00 71.00
C 382.69 81.85 366.68 91.43 357.00 100.00
C 344.19 88.48 353.75 69.96 350.00 53.00
C 325.54 115.37 324.00 221.00 339.41 289.25 C 354.81 357.51 391.67 406.67 419.00 470.00 Z"/>
</g>
<g fill="#000000" fill-opacity="0.40" stroke="None"><path d="
M 276.00 53.00 
C 271.97 56.09 274.54 63.20 275.00 67.00
C 280.24 62.24 274.69 58.77 276.00 53.00 Z"/>
</g>
<g fill="#000000" fill-opacity="0.00" stroke="None"><path d="
M 0.00 720.00 
L 362.00 720.00
C 359.81 717.11 357.83 717.76 354.00 718.00
C 353.28 714.36 351.82 714.38 349.00 714.00
C 354.79 708.36 353.94 702.86 357.00 696.00
C 365.21 698.71 370.40 688.83 370.00 682.00
C 360.64 687.15 348.94 683.37 340.00 683.00
C 335.47 675.46 342.30 671.24 343.00 664.00
C 372.99 658.79 361.62 613.86 350.39 592.75 C 339.17 571.64 329.52 544.61 313.12 523.90 C 296.71 503.19 314.27 449.53 302.58 421.77 C 290.88 394.01 268.00 378.39 261.71 353.30 C 255.42 328.22 238.29 311.91 226.58 287.77 C 214.86 263.63 195.13 246.15 199.00 213.00
C 182.21 221.46 163.70 209.80 147.77 206.57 C 131.83 203.35 114.54 197.56 98.75 192.39 C 82.97 187.22 57.81 191.42 54.00 177.00
C 34.13 163.32 14.96 162.30 0.00 140.00
L 0.00 720.00 Z"/>
</g>
<g fill="#000000" fill-opacity="0.02" stroke="None"><path d="
M 369.00 720.00 
L 419.00 720.00
L 419.00 496.00
C 412.42 508.65 412.84 530.79 394.00 534.00
C 401.76 503.03 411.34 469.76 388.00 445.00
C 386.20 445.75 384.72 445.88 383.00 445.00
C 381.00 447.44 382.48 449.03 381.00 452.00
C 403.35 480.26 367.71 518.92 376.00 547.00
C 368.73 582.31 399.57 598.76 398.13 628.08 C 396.70 657.41 384.21 681.05 386.00 715.00
C 380.83 722.04 373.98 713.92 369.00 720.00 Z"/>
</g>
<g fill="#000000" fill-opacity="0.37" stroke="None"><path d="
M 376.00 653.00 
C 372.11 656.36 371.97 666.78 372.00 672.00
C 375.43 667.05 375.20 660.16 376.00 653.00 Z"/>
</g>
</svg>